<svg viewBox="0 0 200 200" xmlns="http://www.w3.org/2000/svg" xml:space="preserve" style="fill-rule:evenodd;clip-rule:evenodd;stroke-linejoin:round;stroke-miterlimit:2"><path d="M76.318 51.855c2.344.489 4.59.049 6.739-1.318 2.148-1.367 3.466-3.32 3.955-5.859.488-2.442.073-4.712-1.245-6.812-1.319-2.099-3.296-3.442-5.933-4.028L37.5 24.756c-2.734-.586-5.176-.122-7.324 1.391-2.149 1.514-3.418 3.589-3.809 6.226-.39 2.441.122 4.688 1.538 6.738 1.416 2.051 3.345 3.321 5.786 3.809l42.627 8.935ZM91.113 3.076c1.758 1.856 3.931 2.783 6.519 2.783s4.761-.927 6.518-2.783c1.758-1.758 2.637-3.906 2.637-6.445s-.879-4.736-2.637-6.592L73.389-40.576c-1.856-1.953-4.029-2.905-6.519-2.857-2.49.049-4.663 1.001-6.518 2.857-1.758 1.855-2.662 4.004-2.71 6.445-.049 2.442.854 4.639 2.71 6.592L91.113 3.076Zm54.492-14.502c2.54-.488 4.541-1.831 6.006-4.028 1.465-2.197 1.905-4.468 1.319-6.812L143.848-64.6c-.586-2.539-1.953-4.492-4.102-5.859-2.148-1.367-4.443-1.807-6.885-1.318-2.441.488-4.419 1.806-5.932 3.955-1.514 2.148-1.978 4.492-1.392 7.031l9.082 42.187c.586 2.442 1.929 4.395 4.028 5.86 2.1 1.465 4.419 1.904 6.958 1.318Zm56.397 262.5c11.426 11.426 23.389 19.873 35.889 25.342 12.5 5.469 25.073 8.154 37.719 8.057 12.647-.098 24.927-2.832 36.841-8.203 11.914-5.372 22.998-13.184 33.252-23.438 16.504-16.406 26.636-33.423 30.396-51.05 3.759-17.627 2.124-36.743-4.908-57.348a260.535 260.535 0 0 0-6.372-17.798 337.862 337.862 0 0 0-7.983-18.384 497.608 497.608 0 0 0-9.522-19.189 5420.265 5420.265 0 0 0-10.693-20.362c-1.953-3.808-4.004-7.812-6.152-12.012-2.149-4.199-4.248-8.056-6.299-11.572-2.051-3.515-3.906-6.103-5.566-7.763-2.833-2.735-6.031-4.029-9.595-3.882-3.565.146-6.812 1.684-9.741 4.614-3.321 3.32-5.005 7.178-5.054 11.572-.049 4.395 1.196 10.254 3.735 17.578l15.967 44.678c.879 2.344 1.27 4.273 1.172 5.786-.098 1.514-.586 2.71-1.465 3.589-1.074 1.074-2.295 1.587-3.662 1.538-1.367-.049-2.979-1.001-4.834-2.856L196.436 11.279c-3.028-3.027-6.714-4.541-11.06-4.541s-8.032 1.514-11.06 4.541c-3.027 3.125-4.541 6.861-4.541 11.206 0 4.346 1.514 8.033 4.541 11.06l77.637 77.637a66.57 66.57 0 0 0-5.859 3.003 78.458 78.458 0 0 0-5.86 3.735l-90.088-90.088c-3.027-3.125-6.738-4.687-11.132-4.687-4.395 0-8.106 1.562-11.133 4.687-3.027 3.027-4.541 6.714-4.541 11.06 0 4.345 1.514 8.032 4.541 11.059l89.062 89.063a93.658 93.658 0 0 0-4.467 5.42 133.08 133.08 0 0 0-4.029 5.566l-81.445-81.445c-3.125-3.028-6.86-4.541-11.206-4.541-4.346 0-8.032 1.513-11.06 4.541-3.027 3.027-4.541 6.738-4.541 11.133 0 4.394 1.514 8.105 4.541 11.132l88.477 88.477a99.04 99.04 0 0 0-2.271 7.471 151.267 151.267 0 0 0-1.684 7.177l-61.524-61.523c-3.027-3.125-6.713-4.688-11.059-4.688-4.346 0-8.081 1.563-11.206 4.688-3.028 3.027-4.541 6.714-4.541 11.059 0 4.346 1.513 8.033 4.541 11.06l96.533 96.533Zm75.439-210.937-28.857-28.858c-3.027-3.027-6.738-4.541-11.133-4.541-4.394 0-8.105 1.514-11.133 4.541-.195.196-.39.489-.586.879l53.174 53.321c-.879-4.59-1.465-8.985-1.758-13.184-.293-4.199-.195-8.252.293-12.158Zm120.264 212.842c16.504-16.504 26.636-33.57 30.396-51.197 3.759-17.627 2.172-36.792-4.761-57.495a252.68 252.68 0 0 0-6.445-17.651 384.753 384.753 0 0 0-8.057-18.384 575.645 575.645 0 0 0-9.448-19.189 1098.99 1098.99 0 0 0-10.767-20.362c-1.953-3.808-4.004-7.812-6.152-12.012-2.149-4.199-4.273-8.056-6.372-11.572-2.1-3.515-3.98-6.054-5.64-7.617-2.734-2.832-5.859-4.175-9.375-4.028-3.516.146-6.787 1.684-9.814 4.614-1.954 1.953-3.37 4.199-4.249 6.738a268.36 268.36 0 0 1 4.761 9.082 195.381 195.381 0 0 0 4.761 8.936 1967.92 1967.92 0 0 1 10.254 19.922 493.341 493.341 0 0 1 9.302 19.336 422.14 422.14 0 0 1 7.983 18.75c2.441 6.152 4.541 12.158 6.299 18.017 8.105 24.903 9.668 47.876 4.687 68.921-4.98 21.045-16.748 40.747-35.302 59.107-6.25 6.347-12.94 11.865-20.069 16.552 10.449-1.465 20.581-4.785 30.396-9.961 9.814-5.175 19.018-12.011 27.612-20.507Z" style="fill-rule:nonzero" transform="matrix(.46996 0 0 .46996 -7.226 33.823)"/></svg>