<svg viewBox="0 0 200 200" xmlns="http://www.w3.org/2000/svg" xml:space="preserve"
     style="fill-rule:evenodd;clip-rule:evenodd;stroke-linejoin:round;stroke-miterlimit:2">
<path
  d="M28.6 58.2c1.1.2 2.2 0 3.2-.6a4 4 0 0 0 1.9-2.8c.2-1.1 0-2.2-.6-3.2s-1.6-1.6-2.8-1.9l-19.9-4.2A4.2 4.2 0 0 0 5.2 49c-.2 1 0 2.1.7 3.1s1.6 1.6 2.7 1.8l20 4.2Zm7-23c.8 1 1.8 1.4 3 1.4s2.3-.5 3.1-1.3c.8-.9 1.3-1.9 1.3-3s-.5-2.3-1.3-3.2L27.3 14.8a4 4 0 0 0-3.1-1.4c-1.2 0-2.2.5-3 1.4-.9.8-1.3 1.8-1.3 3 0 1.1.4 2.2 1.2 3l14.5 14.5Zm25.6-6.7c1.2-.3 2.1-1 2.8-2 .7-1 1-2 .6-3.1l-4.2-20c-.3-1.1-1-2-2-2.7-1-.6-2-.8-3.2-.6-1.1.2-2 .8-2.8 1.8a4 4 0 0 0-.6 3.4L56 25c.3 1.1 1 2 2 2.7 1 .7 2 1 3.2.7Zm26.5 123.3c5.4 5.4 11 9.4 16.9 12a43 43 0 0 0 35-.1 52.8 52.8 0 0 0 15.6-11 48.6 48.6 0 0 0 14.3-24c1.8-8.3 1-17.3-2.3-27a122.4 122.4 0 0 0-3-8.4 158.8 158.8 0 0 0-3.7-8.6 233.9 233.9 0 0 0-4.5-9 2547.3 2547.3 0 0 0-5-9.6 5557.7 5557.7 0 0 1-5.9-11c-1-1.7-1.8-3-2.6-3.7a6 6 0 0 0-4.5-1.8c-1.7 0-3.2.7-4.6 2.1a7.6 7.6 0 0 0-2.4 5.5c0 2 .6 4.8 1.8 8.2l7.5 21c.4 1.1.6 2 .6 2.7 0 .7-.3 1.3-.7 1.7-.5.5-1.1.8-1.8.7-.6 0-1.4-.4-2.2-1.3L85 39.2a7 7 0 0 0-5.2-2.2 7.3 7.3 0 0 0-7.3 7.4 7 7 0 0 0 2.1 5.2L111.2 86a31.3 31.3 0 0 0-2.8 1.4 36.9 36.9 0 0 0-2.7 1.7L63.3 47a7 7 0 0 0-5.2-2.2 7 7 0 0 0-5.2 2.2 7 7 0 0 0-2.2 5.2 7 7 0 0 0 2.2 5.2l41.8 41.9a44 44 0 0 0-2 2.5 62.5 62.5 0 0 0-2 2.6L52.5 66a7.3 7.3 0 0 0-5.3-2 7 7 0 0 0-5.2 2 7.1 7.1 0 0 0-2.1 5.3c0 2 .7 3.8 2.1 5.2l41.6 41.6a46.5 46.5 0 0 0-1 3.5 71 71 0 0 0-.9 3.4L52.8 96a7 7 0 0 0-5.2-2.1c-2 0-3.8.7-5.3 2.2a7 7 0 0 0-2 5.2 7 7 0 0 0 2 5.2l45.4 45.3Zm35.5-99.1L109.6 39a7.1 7.1 0 0 0-5.2-2.1c-2.1 0-3.8.7-5.3 2.1l-.2.4 25 25.1a52.4 52.4 0 0 1-.7-12Zm56.5 100a49 49 0 0 0 14.3-24 51 51 0 0 0-2.3-27 118.7 118.7 0 0 0-3-8.4 180.8 180.8 0 0 0-3.8-8.6 270.5 270.5 0 0 0-4.4-9 516.5 516.5 0 0 0-5-9.6 5557.7 5557.7 0 0 1-6-11c-1-1.7-1.8-3-2.6-3.7a5.6 5.6 0 0 0-4.4-1.8 7 7 0 0 0-4.6 2.1c-1 1-1.6 2-2 3.2a126.1 126.1 0 0 1 2.2 4.3 91.8 91.8 0 0 0 2.2 4.2 924.8 924.8 0 0 1 4.9 9.3 231.9 231.9 0 0 1 4.3 9.1 198.4 198.4 0 0 1 3.8 8.8l3 8.5a59.4 59.4 0 0 1 2.1 32.4 58 58 0 0 1-16.6 27.8c-2.9 3-6 5.5-9.4 7.7 5-.7 9.7-2.2 14.3-4.6 4.6-2.5 9-5.7 13-9.7Z"/>
</svg>
