<svg xmlns="http://www.w3.org/2000/svg" class="icon" viewBox="0 0 1024 1024"><path d="M939 554v214c0 65-53 117-118 117H203c-65 0-118-52-118-117V256c0-65 53-117 118-117h618c65 0 118 52 118 117v298zm-64-75V256a53 53 0 0 0-54-53H203a53 53 0 0 0-54 53v344a290 290 0 0 1 43-3 287 287 0 0 1 183 66 352 352 0 0 1 329-226c66 0 127 17 171 42zm0 83c-6-9-21-22-44-33-34-18-78-28-127-28-122 0-229 77-270 189l-14 39c-8 21-35 28-52 13l-36-31a223 223 0 0 0-140-50 225 225 0 0 0-43 4v103a53 53 0 0 0 54 53h618a53 53 0 0 0 54-53V562zm-555-82a96 96 0 1 1 0-192 96 96 0 0 1 0 192zm0-64a32 32 0 1 0 0-64 32 32 0 0 0 0 64z"/></svg>