<svg viewBox="0 0 200 200" xmlns="http://www.w3.org/2000/svg" xml:space="preserve" style="fill-rule:evenodd;clip-rule:evenodd;stroke-linejoin:round;stroke-miterlimit:2"><path d="M57.586-115.313c-5.156 0-10.254.774-15.293 2.321-5.039 1.547-9.621 3.773-13.746 6.679-4.125 2.907-7.383 6.446-9.774 10.618-.421.703-.668 1.371-.738 2.004-.07.632-.105 1.605-.105 2.918V8.438c0 1.64.492 2.917 1.476 3.832.985.914 2.344 1.371 4.078 1.371a6.896 6.896 0 0 0 4.571-1.688c4.453-3.797 9.492-6.668 15.117-8.613C48.797 1.395 54.539.422 60.398.422c3.657 0 7.196.41 10.618 1.23a45.213 45.213 0 0 1 9.703 3.516 39.603 39.603 0 0 1 8.297 5.52c.75.656 1.57.984 2.461.984.796 0 1.464-.27 2.003-.809.54-.539.809-1.254.809-2.144V-95.273c0-.938-.082-1.618-.246-2.04-.164-.421-.574-1.125-1.23-2.109-3.469-4.969-8.356-8.859-14.661-11.672-6.304-2.812-13.16-4.219-20.566-4.219Zm82.617 0c-7.406 0-14.262 1.407-20.566 4.219-6.305 2.813-11.192 6.703-14.66 11.672-.657.984-1.067 1.688-1.231 2.109-.164.422-.246 1.102-.246 2.04V8.719c0 .89.27 1.605.809 2.144.539.539 1.207.809 2.004.809.89 0 1.71-.328 2.46-.984a39.603 39.603 0 0 1 8.297-5.52 45.233 45.233 0 0 1 9.703-3.516c3.422-.82 6.961-1.23 10.618-1.23 5.859 0 11.601.973 17.226 2.918 5.625 1.945 10.664 4.816 15.117 8.613a6.896 6.896 0 0 0 4.571 1.688c1.734 0 3.093-.457 4.078-1.371.984-.915 1.476-2.192 1.476-3.832v-99.211c0-1.313-.035-2.297-.105-2.954-.07-.656-.316-1.312-.738-1.968-2.391-4.172-5.649-7.711-9.774-10.618-4.125-2.906-8.707-5.132-13.746-6.679-5.039-1.547-10.137-2.321-15.293-2.321Z" style="fill:#dfc9bc;fill-rule:nonzero" transform="translate(.984 150.369)"/></svg>