<svg viewBox="0 0 200 200" xmlns="http://www.w3.org/2000/svg" xml:space="preserve"
     style="fill-rule:evenodd;clip-rule:evenodd;stroke-linejoin:round;stroke-miterlimit:2"><path d="M26.344 87h60.703a3.732 3.732 0 0 0 3.75-3.75c0-1.641-1.125-3.094-2.625-3.609-5.906-2.344-7.125-9.985-1.313-15.844 1.782-1.781 3.938-4.078 3.938-8.766V1.266c0-9.75-4.828-14.719-14.531-14.719H26.484c-9.703 0-14.531 4.922-14.531 14.719v71.25C11.953 82.172 16.828 87 26.344 87Zm-.985-28.594c-1.453 0-2.671-1.218-2.671-2.718V-3.516a2.67 2.67 0 0 1 2.671-2.672c1.454 0 2.719 1.172 2.719 2.672v59.204c0 1.5-1.265 2.718-2.719 2.718Zm1.407 21.047c-4.735 0-7.266-2.531-7.266-6.984 0-4.219 3-6.938 7.688-6.938h48.093c.61 0 1.172-.047 1.641-.14-2.203 4.875-1.828 10.031.656 14.062H26.766Z" style="fill:#dfc9bc;fill-rule:nonzero" transform="translate(20.47 42.606) scale(1.54804)"/></svg>
