<svg viewBox="0 0 200 200" xmlns="http://www.w3.org/2000/svg" xml:space="preserve" style="fill-rule:evenodd;clip-rule:evenodd;stroke-linejoin:round;stroke-miterlimit:2"><path d="M40.008 14.063h128.531c7.313 0 12.82-1.817 16.524-5.45 3.703-3.633 5.554-9.082 5.554-16.347v-73.618c0-7.218-1.851-12.644-5.554-16.277-3.704-3.633-9.211-5.449-16.524-5.449H148.43c-1.875 0-3.375-.141-4.5-.422a7.894 7.894 0 0 1-2.989-1.441c-.867-.68-1.839-1.606-2.918-2.778l-5.625-6.328c-1.734-1.922-3.656-3.398-5.765-4.43-2.11-1.031-4.969-1.546-8.578-1.546H90c-3.609 0-6.457.515-8.543 1.546-2.086 1.032-4.019 2.508-5.801 4.43l-5.625 6.328c-1.547 1.735-2.976 2.942-4.289 3.621-1.312.68-3.351 1.02-6.117 1.02H40.008c-7.36 0-12.879 1.816-16.559 5.449-3.679 3.633-5.519 9.059-5.519 16.277v73.618c0 7.265 1.84 12.714 5.519 16.347 3.68 3.633 9.199 5.45 16.559 5.45ZM104.273-6.68c-5.343 0-10.335-.984-14.976-2.953-4.641-1.969-8.707-4.711-12.199-8.226-3.493-3.516-6.235-7.594-8.227-12.235-1.992-4.64-2.988-9.656-2.988-15.047 0-5.343.996-10.336 2.988-14.976 1.992-4.641 4.734-8.719 8.227-12.235 3.492-3.515 7.558-6.257 12.199-8.226 4.641-1.969 9.633-2.953 14.976-2.953 7.079 0 13.524 1.711 19.336 5.133 5.813 3.421 10.43 8.039 13.852 13.851 3.422 5.813 5.133 12.281 5.133 19.406 0 5.391-.985 10.407-2.953 15.047-1.969 4.641-4.711 8.719-8.227 12.235-3.516 3.515-7.594 6.257-12.234 8.226-4.641 1.969-9.61 2.953-14.907 2.953Zm0-10.687c5.11 0 9.762-1.242 13.957-3.727 4.196-2.484 7.536-5.824 10.02-10.019 2.484-4.196 3.727-8.871 3.727-14.028 0-5.109-1.243-9.761-3.727-13.957-2.484-4.195-5.824-7.547-10.02-10.054-4.195-2.508-8.847-3.762-13.957-3.762-5.109 0-9.761 1.254-13.957 3.762-4.195 2.507-7.546 5.859-10.054 10.054-2.508 4.196-3.762 8.848-3.762 13.957 0 5.157 1.254 9.832 3.762 14.028 2.508 4.195 5.859 7.535 10.054 10.019 4.196 2.485 8.848 3.727 13.957 3.727Zm43.032-53.649c0-2.39.902-4.488 2.707-6.293 1.804-1.804 3.949-2.707 6.433-2.707 2.391 0 4.489.903 6.293 2.707 1.805 1.805 2.707 3.903 2.707 6.293 0 2.532-.902 4.664-2.707 6.399-1.804 1.734-3.902 2.601-6.293 2.601-2.484.047-4.629-.808-6.433-2.566-1.805-1.758-2.707-3.902-2.707-6.434Z" style="fill:#dfc9bc;fill-rule:nonzero" transform="translate(-4.319 150.579)"/></svg>