<svg xmlns="http://www.w3.org/2000/svg" width="200" height="200" class="icon" viewBox="0 0 1024 1024"><path d="M725.333 810.667a42.667 42.667 0 0 1 0 85.333h-42.666a42.667 42.667 0 0 1-85.334 0V572.33L542.165 627.5A42.539 42.539 0 0 1 512 640H341.333a42.539 42.539 0 0 1-30.165-12.501L256 572.33V896a42.667 42.667 0 0 1-85.333 0H128a42.667 42.667 0 0 1 0-85.333h42.667v-16.299l-61.739-30.848a42.71 42.71 0 0 1 38.144-76.373l23.595 11.818V469.333a42.752 42.752 0 0 1 72.832-30.165l115.498 115.499h135.339l115.499-115.499a42.752 42.752 0 0 1 72.832 30.165v229.632l23.594-11.818a42.71 42.71 0 0 1 38.144 76.373l-61.738 30.848v16.299h42.666zm-384-128a42.667 42.667 0 1 1 0 85.333 42.667 42.667 0 0 1 0-85.333zm170.667 0A42.667 42.667 0 1 1 512 768a42.667 42.667 0 0 1 0-85.333zM426.667 768a42.667 42.667 0 1 1 0 85.333 42.667 42.667 0 0 1 0-85.333zM768 469.333a42.667 42.667 0 1 1 0 85.334 42.667 42.667 0 0 1 0-85.334zm42.667-384c70.57 0 128 57.43 128 128s-57.43 128-128 128V384a42.667 42.667 0 0 1-85.334 0v-85.333A42.667 42.667 0 0 1 768 256h42.667c23.509 0 42.666-19.157 42.666-42.667 0-23.509-19.157-42.666-42.666-42.666H768c-23.51 0-42.667 19.157-42.667 42.666a42.667 42.667 0 0 1-85.333 0c0-70.57 57.43-128 128-128h42.667z"/></svg>