<svg xmlns="http://www.w3.org/2000/svg" class="icon" viewBox="0 0 1024 1024"><path fill="#2C2C2C" d="M164 893h-1c-6-1-36-3-56-21a81 81 0 0 1-23-53 27 27 0 0 1 0-1V667c0-6-1-27 6-50 7-22 15-37 18-41l75-134 1-2c3-3 16-21 33-32 18-11 40-12 47-12h479c5 0 29 2 48 13s33 29 36 32a30 30 0 0 1 2 3l89 142 1 2c2 3 11 21 15 38 5 16 6 35 6 38v152c0 8-1 36-24 56a92 92 0 0 1-59 21H164zm-8-286c-1 3-6 12-11 27-4 15-4 29-4 30a43 43 0 0 1 0 2v151c1 3 2 10 5 13h1c4 3 14 5 17 5h693c6 0 16-2 21-6 4-4 5-10 5-11V667l-4-27c-3-10-9-22-10-24v-1l-88-139v-1l-18-16c-6-3-17-5-23-6H264c-5 0-13 1-17 4-5 3-12 11-14 14v1l-76 133v1l-1 1zm353-253a29 29 0 0 1-28-29V160a29 29 0 0 1 28-29 29 29 0 0 1 29 29v165a29 29 0 0 1-29 29zm193-1a29 29 0 0 1-29-29 29 29 0 0 1 6-18l66-81a29 29 0 0 1 22-11c7 0 13 3 18 7a28 28 0 0 1 11 19 28 28 0 0 1-6 21l-66 81a28 28 0 0 1-22 11zm-382-2a28 28 0 0 1-22-11l-65-81a29 29 0 0 1 5-40 28 28 0 0 1 18-7c9 0 17 4 22 11l65 81a29 29 0 0 1-5 40 29 29 0 0 1-18 7z"/><path fill="#2C2C2C" d="M510 775c-63 0-119-43-135-105l-1-5H119a29 29 0 0 1-28-28 29 29 0 0 1 28-29h281a29 29 0 0 1 29 29c0 45 36 80 81 80 46 0 82-35 82-80a29 29 0 0 1 29-29h278a29 29 0 0 1 0 57H646l-1 5c-15 62-71 105-135 105z"/></svg>