<svg xmlns="http://www.w3.org/2000/svg" xml:space="preserve" fill-rule="evenodd" stroke-linejoin="round" stroke-miterlimit="2" clip-rule="evenodd" viewBox="0 0 200 200"><path fill-rule="nonzero" d="M47 178c26 0 47-32 47-78S73 22 47 22 0 54 0 100s21 78 47 78Zm106 0c26 0 47-32 47-78s-21-78-47-78-47 32-47 78 21 78 47 78ZM28 130c15 0 24-10 24-25s-9-25-24-25c-6 0-11 2-15 5 3-30 18-51 34-51 19 0 35 27 35 66s-16 66-35 66c-14 0-27-15-32-40 4 3 8 4 13 4Zm107 0c14 0 24-10 24-25s-10-25-24-25c-7 0-12 2-16 5 4-30 18-51 34-51 19 0 35 27 35 66s-16 66-35 66c-14 0-27-15-32-40 4 3 8 4 14 4ZM22 102c-3 0-5-4-5-8 1-3 4-6 7-5 3 0 5 4 4 7-1 4-3 7-6 6Zm106 0c-3 0-5-4-4-8 0-3 3-6 6-5 3 0 5 4 4 7 0 4-3 7-6 6Z"/></svg>