<svg xmlns="http://www.w3.org/2000/svg" fill-rule="evenodd" stroke-linejoin="round" stroke-miterlimit="2" viewBox="0 0 200 200" xmlns:v="https://vecta.io/nano"><path fill="#dfc9bc" fill-rule="nonzero" d="M25.8 92c0 4.6.7 8.8 2.2 12.5a22 22 0 0 0 6 8.8 12.8 12.8 0 0 0 17.2 0 22 22 0 0 0 6-8.8 35.2 35.2 0 0 0 .1-25 22 22 0 0 0-6-8.9 13 13 0 0 0-17.2 0 22 22 0 0 0-6 8.9A33.6 33.6 0 0 0 25.7 92zm34-40.6c0 4.6.8 8.7 2.3 12.5a22 22 0 0 0 6.1 8.8 13 13 0 0 0 17.2 0 22 22 0 0 0 6-8.8 32 32 0 0 0 2.3-12.5 33 33 0 0 0-2.2-12.5 22.4 22.4 0 0 0-6.1-8.9 13 13 0 0 0-17.2 0 22.4 22.4 0 0 0-6 8.9 33 33 0 0 0-2.3 12.5zm46 0c0 4.6.8 8.7 2.3 12.5 1.5 3.7 3.5 6.6 6 8.8a13 13 0 0 0 17.2 0 22 22 0 0 0 6-8.8 32 32 0 0 0 2.3-12.5 33 33 0 0 0-2.2-12.5 22.4 22.4 0 0 0-6.1-8.9 12.8 12.8 0 0 0-17.2 0 22 22 0 0 0-6 8.9 33.6 33.6 0 0 0-2.2 12.5zM140.2 92c0 4.6.7 8.8 2.2 12.5s3.5 6.6 6 8.8a12.8 12.8 0 0 0 17.2 0 22 22 0 0 0 6-8.8c1.5-3.7 2.2-7.9 2.2-12.5s-.7-8.8-2.2-12.5a22 22 0 0 0-6-8.9 12.8 12.8 0 0 0-17.2 0 22.5 22.5 0 0 0-6 8.9 33.1 33.1 0 0 0-2.2 12.5zM47 146.4c0 4.7 1 9 3 12.6a22 22 0 0 0 8.3 8.6c3.5 2 7.6 3.1 12.3 3.1 3.5 0 6.6-.4 9.2-1.2a185.2 185.2 0 0 0 7.7-2.5 79.2 79.2 0 0 1 6-1.8 24.5 24.5 0 0 1 12.8 0 91.4 91.4 0 0 1 6 1.8c2.3.9 4.9 1.7 7.5 2.5 2.7.8 5.8 1.2 9.2 1.2 4.7 0 8.9-1 12.4-3.1 3.6-2.1 6.4-5 8.3-8.6 2-3.7 3-7.9 3-12.6a23.2 23.2 0 0 0-7.5-17.8 116.5 116.5 0 0 0-6.7-6.1 162 162 0 0 1-5.5-4.7 25.2 25.2 0 0 1-4.6-5.3 49.9 49.9 0 0 1-3-4.9 107.4 107.4 0 0 1-2.3-5 181.3 181.3 0 0 0-5.2-10.2c-1.8-3.2-4-5.8-6.8-7.8s-6.5-3-11.2-3a19 19 0 0 0-11.3 3c-2.8 2-5 4.6-6.8 7.8a195.5 195.5 0 0 0-5.1 10.2 106.9 106.9 0 0 1-2.5 5 52.3 52.3 0 0 1-2.8 4.7 26.4 26.4 0 0 1-4.6 5.4 138.8 138.8 0 0 1-5.6 4.8 97.4 97.4 0 0 0-6.8 6 30.8 30.8 0 0 0-5.3 7.5 23.2 23.2 0 0 0-2.1 10.4z"/></svg>