<svg viewBox="0 0 200 200" xmlns="http://www.w3.org/2000/svg" xml:space="preserve" style="fill-rule:evenodd;clip-rule:evenodd;stroke-linejoin:round;stroke-miterlimit:2"><path d="M17.93-57.586c0 4.641.738 8.813 2.215 12.516 1.476 3.703 3.492 6.644 6.046 8.824 2.555 2.18 5.403 3.269 8.543 3.269 3.188 0 6.059-1.089 8.614-3.269 2.554-2.18 4.57-5.121 6.047-8.824 1.476-3.703 2.214-7.875 2.214-12.516 0-4.594-.738-8.754-2.214-12.48-1.477-3.727-3.493-6.68-6.047-8.86-2.555-2.179-5.426-3.269-8.614-3.269-3.14 0-5.988 1.09-8.543 3.269-2.554 2.18-4.57 5.133-6.046 8.86-1.477 3.726-2.215 7.886-2.215 12.48Zm34.101-40.57c0 4.593.75 8.754 2.25 12.48 1.5 3.727 3.528 6.668 6.082 8.824 2.555 2.157 5.403 3.235 8.543 3.235 3.188 0 6.059-1.078 8.614-3.235 2.554-2.156 4.582-5.097 6.082-8.824 1.5-3.726 2.25-7.887 2.25-12.48 0-4.641-.75-8.813-2.25-12.516-1.5-3.703-3.528-6.644-6.082-8.824-2.555-2.18-5.426-3.27-8.614-3.27-3.14 0-5.988 1.09-8.543 3.27-2.554 2.18-4.582 5.121-6.082 8.824-1.5 3.703-2.25 7.875-2.25 12.516Zm45.985 0c0 4.593.738 8.754 2.214 12.48 1.477 3.727 3.493 6.668 6.047 8.824 2.555 2.157 5.426 3.235 8.614 3.235 3.14 0 5.988-1.078 8.543-3.235 2.554-2.156 4.582-5.097 6.082-8.824 1.5-3.726 2.25-7.887 2.25-12.48 0-4.641-.75-8.813-2.25-12.516-1.5-3.703-3.528-6.644-6.082-8.824-2.555-2.18-5.403-3.27-8.543-3.27-3.188 0-6.059 1.09-8.614 3.27-2.554 2.18-4.57 5.121-6.047 8.824-1.476 3.703-2.214 7.875-2.214 12.516Zm34.172 40.57c0 4.641.75 8.813 2.25 12.516 1.5 3.703 3.515 6.644 6.046 8.824 2.532 2.18 5.391 3.269 8.579 3.269 3.14 0 5.988-1.089 8.542-3.269 2.555-2.18 4.571-5.121 6.047-8.824 1.477-3.703 2.215-7.875 2.215-12.516 0-4.594-.738-8.754-2.215-12.48-1.476-3.727-3.492-6.68-6.047-8.86-2.554-2.179-5.402-3.269-8.542-3.269-3.188 0-6.047 1.09-8.579 3.269-2.531 2.18-4.546 5.133-6.046 8.86-1.5 3.726-2.25 7.886-2.25 12.48ZM39.023-3.164c0 4.734.997 8.93 2.989 12.586 1.992 3.656 4.758 6.527 8.297 8.613 3.539 2.086 7.652 3.129 12.339 3.129 3.469 0 6.54-.398 9.211-1.195a185.185 185.185 0 0 0 7.664-2.461 79.151 79.151 0 0 1 5.942-1.863c1.992-.54 4.137-.809 6.433-.809 2.297 0 4.43.269 6.399.809a91.43 91.43 0 0 1 5.976 1.863c2.391.844 4.922 1.664 7.594 2.461 2.672.797 5.742 1.195 9.211 1.195 4.688 0 8.813-1.043 12.375-3.129 3.563-2.086 6.34-4.957 8.332-8.613 1.992-3.656 2.988-7.852 2.988-12.586 0-4.031-.703-7.477-2.109-10.336-1.406-2.859-3.199-5.355-5.379-7.488a116.504 116.504 0 0 0-6.715-6.082 162.087 162.087 0 0 1-5.554-4.676 25.238 25.238 0 0 1-4.571-5.309 49.859 49.859 0 0 1-2.918-4.886 107.365 107.365 0 0 1-2.425-4.957 181.314 181.314 0 0 0-5.168-10.231c-1.758-3.211-4.02-5.812-6.786-7.805-2.765-1.992-6.515-2.988-11.25-2.988-4.734 0-8.484.996-11.25 2.988-2.765 1.993-5.027 4.594-6.785 7.805a195.486 195.486 0 0 0-5.168 10.16 106.869 106.869 0 0 1-2.425 4.957 52.266 52.266 0 0 1-2.848 4.817 26.357 26.357 0 0 1-4.606 5.379 138.844 138.844 0 0 1-5.589 4.746 97.427 97.427 0 0 0-6.75 6.082c-2.157 2.133-3.938 4.629-5.344 7.488-1.406 2.859-2.11 6.305-2.11 10.336Z" style="fill:#dfc9bc;fill-rule:nonzero" transform="translate(7.864 149.541)"/></svg>