<svg xmlns="http://www.w3.org/2000/svg" xml:space="preserve" fill-rule="evenodd" stroke-linejoin="round" stroke-miterlimit="2" clip-rule="evenodd" viewBox="0 0 200 200"><path fill-rule="nonzero" d="M67.8 132c7.4 7.4 15.2 14 23.4 20s16.4 10.7 24.6 14.2 16 5.2 23.3 5.2a32.8 32.8 0 0 0 30.5-18.4 20 20 0 0 0 1.7-7.8 13.8 13.8 0 0 0-1.2-5.6 10 10 0 0 0-3.9-4.6l-23.6-16.7a26.2 26.2 0 0 0-5-2.8c-1.5-.6-3-1-4.4-1a10 10 0 0 0-5 1.5 25 25 0 0 0-5.1 4l-5.5 5.4a4 4 0 0 1-3 1.2c-.5 0-1.1 0-1.6-.3a36.5 36.5 0 0 1-1.4-.5 57.4 57.4 0 0 1-9.2-6.7A179.2 179.2 0 0 1 91 108.7a206.2 206.2 0 0 1-10.4-11.3 54.2 54.2 0 0 1-6.6-9.1 11 11 0 0 1-.6-1.4 5.2 5.2 0 0 1-.3-1.7c0-1.1.4-2 1.2-2.8l5.5-5.7c1.6-1.7 3-3.4 4-5a9.8 9.8 0 0 0 .5-9.5c-.7-1.5-1.7-3.2-3-5L65 34a12 12 0 0 0-4.7-4 13.9 13.9 0 0 0-5.9-1.3c-5.3 0-10.2 2.2-14.8 6.7A33.6 33.6 0 0 0 28.7 61a59 59 0 0 0 5.2 23.2c3.4 8.1 8 16.3 14 24.4 5.9 8.2 12.5 16 19.9 23.3Z"/></svg>