<svg xmlns="http://www.w3.org/2000/svg" xml:space="preserve" fill-rule="evenodd" stroke-linejoin="round" stroke-miterlimit="2" clip-rule="evenodd" viewBox="0 0 200 200"><path fill-rule="nonzero" d="M20.7 91h49.6C84 91 91 84 91 69.7V21.2C91 6.8 84 0 70.3 0H20.7C7 0 0 6.8 0 21.2v48.5C0 84.1 7 91 20.7 91Zm109.1 0h49.5C193 91 200 84 200 69.7V21.2C200 6.8 193 0 179.3 0h-49.5C116 0 109 6.8 109 21.2v48.5c0 14.4 7 21.3 20.8 21.3ZM21 75.7c-3.8 0-5.7-2-5.7-6V21.2c0-4 1.9-5.9 5.7-5.9h49c3.8 0 5.7 2 5.7 5.9v48.5c0 4-2 6-5.7 6H21Zm109 0c-3.9 0-5.7-2-5.7-6V21.2c0-4 1.8-5.9 5.7-5.9h49c3.8 0 5.7 2 5.7 5.9v48.5c0 4-1.9 6-5.7 6h-49ZM36.2 57h18.6c1.5 0 2.1-.6 2.1-2.5v-18c0-1.7-.6-2.4-2.1-2.4H36.2c-1.7 0-2.2.7-2.2 2.4v18c0 1.9.5 2.5 2.2 2.5Zm109.6 0h18.6c1.6 0 2.2-.6 2.2-2.5v-18c0-1.7-.6-2.4-2.2-2.4h-18.6c-1.5 0-2 .7-2 2.4v18c0 1.9.5 2.5 2 2.5Zm-125 143h49.5C84 200 91 193.2 91 178.8v-48.7C91 116 84 109 70.3 109H20.7C7 109 0 116 0 130v48.7C0 193.2 7 200 20.7 200Zm95.5-62.9H135c1.5 0 2.2-.7 2.2-2.5v-18c0-1.8-.7-2.4-2.2-2.4h-18.6c-1.6 0-2.1.6-2.1 2.4v18c0 1.8.5 2.5 2.1 2.5Zm57.7 0h18.6c1.5 0 2.2-.7 2.2-2.5v-18c0-1.8-.7-2.4-2.2-2.4H174c-1.6 0-2.1.6-2.1 2.4v18c0 1.8.5 2.5 2.1 2.5ZM21 184.7c-3.8 0-5.7-2-5.7-5.9v-48.5c0-4 1.9-6 5.7-6h49c3.8 0 5.7 2 5.7 6v48.5c0 4-2 5.9-5.7 5.9H21ZM36.2 166h18.6c1.5 0 2.1-.7 2.1-2.6v-18c0-1.7-.6-2.3-2.1-2.3H36.2c-1.7 0-2.2.6-2.2 2.4v17.9c0 2 .5 2.6 2.2 2.6Zm109.3 0H164c1.6 0 2.2-.7 2.2-2.6v-18c0-1.7-.6-2.3-2.2-2.3h-18.5c-1.7 0-2.2.6-2.2 2.4v17.9c0 2 .5 2.6 2.2 2.6Zm-29.2 28.8H135c1.5 0 2.2-.7 2.2-2.5v-18c0-1.8-.7-2.4-2.2-2.4h-18.6c-1.6 0-2.1.6-2.1 2.4v18c0 1.8.5 2.5 2.1 2.5Zm57.7 0h18.6c1.5 0 2.2-.7 2.2-2.5v-18c0-1.8-.7-2.4-2.2-2.4H174c-1.6 0-2.1.6-2.1 2.4v18c0 1.8.5 2.5 2.1 2.5Z"/></svg>