<svg viewBox="0 0 500 500" xmlns="http://www.w3.org/2000/svg" xml:space="preserve" style="fill-rule:evenodd;clip-rule:evenodd;stroke-linejoin:round;stroke-miterlimit:2"><path d="M-12.391 102.922c0 15.469 2.907 29.976 8.719 43.523 5.813 13.547 13.875 25.477 24.188 35.789 10.312 10.313 22.242 18.375 35.789 24.188 13.547 5.812 28.054 8.719 43.523 8.719 12.188 0 23.813-1.875 34.875-5.625 11.063-3.75 21.188-8.907 30.375-15.469l69.188 69.328c1.687 1.594 3.539 2.789 5.554 3.586 2.016.797 4.149 1.195 6.399 1.195 3.187 0 6-.726 8.437-2.179 2.438-1.454 4.336-3.446 5.696-5.977 1.359-2.531 2.039-5.344 2.039-8.437 0-2.25-.399-4.36-1.196-6.329a15.528 15.528 0 0 0-3.445-5.203l-68.766-69.187c7.219-9.375 12.868-19.828 16.946-31.36 4.078-11.531 6.117-23.718 6.117-36.562 0-15.469-2.906-29.977-8.719-43.524-5.812-13.546-13.875-25.476-24.187-35.789-10.313-10.312-22.243-18.375-35.789-24.187-13.547-5.813-28.055-8.719-43.524-8.719-15.469 0-29.976 2.906-43.523 8.719-13.547 5.812-25.477 13.875-35.789 24.187C10.203 33.922 2.141 45.852-3.672 59.398c-5.812 13.547-8.719 28.055-8.719 43.524Zm24.047 0c0-12.188 2.274-23.602 6.821-34.242 4.546-10.641 10.875-20.016 18.984-28.125 8.109-8.11 17.484-14.438 28.125-18.985 10.641-4.547 22.055-6.82 34.242-6.82 12.188 0 23.602 2.273 34.242 6.82 10.641 4.547 19.993 10.875 28.055 18.985 8.063 8.109 14.391 17.484 18.984 28.125C185.703 79.32 188 90.734 188 102.922c0 12.187-2.297 23.601-6.891 34.242-4.593 10.641-10.921 19.992-18.984 28.055-8.062 8.062-17.414 14.39-28.055 18.984-10.64 4.594-22.054 6.891-34.242 6.891-12.187 0-23.601-2.297-34.242-6.891-10.641-4.594-20.016-10.922-28.125-18.984-8.109-8.063-14.438-17.414-18.984-28.055-4.547-10.641-6.821-22.055-6.821-34.242Z" style="fill-rule:nonzero" transform="translate(27.416 19.62) scale(1.79108)"/></svg>