<?xml version="1.0" encoding="utf-8"?>
<svg viewBox="0 0 500 500" xmlns="http://www.w3.org/2000/svg">
  <path fill-rule="nonzero" d="M 69.9 210.242 C 69.534 249.497 85.201 287.201 113.276 314.639 C 141.041 342.228 178.533 357.806 217.674 358.016 C 248.626 358.335 278.834 348.524 303.692 330.078 L 394.856 421.243 C 402.085 428.403 413.186 429.903 422.058 424.919 C 424.999 422.713 427.204 420.507 429.41 416.831 C 432.446 410.876 432.715 403.888 430.145 397.716 C 429.119 395.245 427.62 392.997 425.734 391.1 L 335.305 299.936 C 367.584 257.897 374.878 201.791 354.42 152.897 C 322.068 78.063 235.652 43.039 160.329 74.231 C 105.851 97.588 70.359 150.97 69.9 210.242 Z M 101.513 210.242 C 101.264 179.22 113.754 149.454 136.067 127.9 C 169.538 94.672 219.699 84.814 263.256 102.903 C 306.359 121.076 334.231 163.466 333.834 210.242 C 334.363 241.171 322.131 270.954 300.016 292.584 C 278.058 314.207 248.492 326.35 217.674 326.403 C 186.998 326.729 157.519 314.513 136.067 292.584 C 113.969 270.884 101.518 241.213 101.513 210.242 Z" style=""/>
</svg>