<svg xmlns="http://www.w3.org/2000/svg" xml:space="preserve" fill-rule="evenodd" stroke-linejoin="round" stroke-miterlimit="2" clip-rule="evenodd" viewBox="0 0 500 500"><path fill-rule="nonzero" d="M277 386c4 0 8-1 12-5 3-4 6-9 8-15l86-223 2-8 1-8c0-4-1-7-3-10-3-2-6-3-10-3l-8 1-8 2-224 86-14 8c-4 4-5 8-5 12 0 6 2 11 6 13 4 3 9 5 15 7l94 28 28 93c1 6 4 12 6 16 3 4 8 6 14 6Zm-42-135-90-27-2-1v-3l2-1 176-67a208 208 0 0 0 15-6 1441 1441 0 0 1 15-7 1378 1378 0 0 0-26 22l-90 90Zm44 107-2-1-1-2-27-90 90-90 11-12a937 937 0 0 0 11-14 763 763 0 0 1-7 14 189 189 0 0 0-6 16l-67 176-1 2-1 1Z"/></svg>