<svg viewBox="0 0 200 200" xmlns="http://www.w3.org/2000/svg" xml:space="preserve" style="fill-rule:evenodd;clip-rule:evenodd;stroke-linejoin:round;stroke-miterlimit:2"><path d="M84.305 21.023c9.797 0 19.019-1.875 27.668-5.625 8.648-3.75 16.277-8.929 22.886-15.539 6.61-6.609 11.789-14.238 15.539-22.886 3.75-8.649 5.625-17.871 5.625-27.668s-1.875-19.02-5.625-27.668c-3.75-8.649-8.929-16.278-15.539-22.887-6.609-6.609-14.25-11.789-22.921-15.539-8.672-3.75-17.907-5.625-27.704-5.625-9.796 0-19.019 1.875-27.668 5.625-8.648 3.75-16.265 8.93-22.851 15.539-6.586 6.609-11.754 14.238-15.504 22.887-3.75 8.648-5.625 17.871-5.625 27.668s1.875 19.019 5.625 27.668c3.75 8.648 8.93 16.277 15.539 22.886 6.609 6.61 14.238 11.789 22.887 15.539 8.648 3.75 17.871 5.625 27.668 5.625ZM51.188-13.852c-1.454 0-2.532-.433-3.235-1.3-.703-.868-1.055-1.957-1.055-3.27 0-1.969.762-4.535 2.286-7.699 1.523-3.164 3.82-6.34 6.89-9.527 3.071-3.188 6.949-5.86 11.637-8.016 4.687-2.156 10.219-3.234 16.594-3.234 6.375 0 11.906 1.078 16.593 3.234 4.688 2.156 8.567 4.828 11.637 8.016 3.07 3.187 5.367 6.363 6.891 9.527 1.523 3.164 2.285 5.73 2.285 7.699 0 1.313-.352 2.402-1.055 3.27-.703.867-1.781 1.3-3.234 1.3H51.188Zm33.117-39.023c-3.422 0-6.539-.891-9.352-2.672-2.812-1.781-5.062-4.207-6.75-7.277-1.687-3.071-2.531-6.528-2.531-10.371 0-3.61.844-6.926 2.531-9.95 1.688-3.023 3.938-5.437 6.75-7.242 2.813-1.804 5.93-2.707 9.352-2.707 3.422 0 6.539.903 9.351 2.707 2.813 1.805 5.063 4.219 6.75 7.242 1.688 3.024 2.532 6.34 2.532 9.95 0 3.843-.844 7.312-2.532 10.406-1.687 3.094-3.937 5.531-6.75 7.312-2.812 1.782-5.929 2.649-9.351 2.602Z" style="fill:#dfc9bc;fill-rule:nonzero" transform="translate(15.62 150.07)"/></svg>