<svg width="1027pt" height="1027pt" viewBox="0 0 1027 1027" xmlns="http://www.w3.org/2000/svg"><path fill="#39393a" opacity=".55" d="M492.07 0h45.12l-.1 1.05C528.06 1.1 519.03.7 510 .78c-6.38-.01-12.78.63-19.13-.23l1.2-.55Z"/><path fill="#353636" opacity=".55" d="M474.84 1.91c4.42-.78 8.91-1 13.4-.9-4.4.96-8.92 1.01-13.4.9Z"/><path fill="#080909" d="M488.24 1.01c.66-.11 1.97-.35 2.63-.46 6.35.86 12.75.22 19.13.23 9.03-.08 18.06.32 27.09.27 1.5 0 3.01.02 4.53.06 3.94.65 7.93.87 11.92.78l2.41.24c2.21 1.35 4.84 1.49 7.27.66l3.57.36c1.97 1.21 4.32 1.39 6.5.66.37.06 1.1.17 1.46.22 1.52 1.27 3.59 1.53 5.4.73 1.13.15 2.27.3 3.42.45 3.78.95 7.64 1.5 11.53 1.71l.85.15c3.1.79 6.25 1.4 9.44 1.71l1.74.24c.7 1.16 1.7 1.56 2.99 1.21.43-.08 1.29-.23 1.73-.3 1.05 1.28 2.79 1.6 4.3.92.41.09 1.23.26 1.64.35 2.45.66 4.93 1.25 7.42 1.77l.76.19c2.13 1.24 4.56 1.67 7.01 1.63l.75.19c2.5.67 5.01 1.28 7.53 1.88l.64.15c1.65 1.77 4.06 2.72 6.44 1.88l.67-.1c.53 1.34 1.52 1.76 2.99 1.27l.88-.12c.56.23 1.7.69 2.26.93 1.63.38 3.26.78 4.91 1.16.54.25 1.63.76 2.17 1.01 1.26.26 2.52.53 3.8.79.65 1.27 1.67 1.7 3.06 1.31l.82-.11c.54.27 1.62.79 2.16 1.05l.86-.09c.54.28 1.61.82 2.14 1.1.96.26 1.92.53 2.89.8 1.44 1.32 3.23 2.2 5.22 2.3 1.26.21 2.52.47 3.8.72.55.25 1.65.76 2.2 1.01 4.53 1.66 9.01 3.45 13.57 5.05 1.05 1.49 2.83 2.25 4.65 1.92 1.32.53 2.64 1.05 3.95 1.63 1.77 1.34 2.53 3.37 2.15 5.53 1.45.71 2.92 1.4 4.4 2.08-.52.34-1.56 1.01-2.08 1.34-39.13-17.34-80.73-28.81-122.99-35.37C552.89 7.9 512.27 6.83 472 9.66c-24.39 2.02-48.74 5.38-72.44 11.58a526.446 526.446 0 0 0-48.47 14.08c-7.87 2.29-15.23 5.95-22.88 8.86-12.79 5.15-25.7 10.27-37.44 17.57-2.27 1.87-4.58 3.73-7.24 5.02-40.35 20.29-77.86 46.14-111.54 76.21C99.01 208.6 47.37 297.01 23.88 392.15 14.46 430.67 9.14 470.31 9.32 510c-.93 68.78 13.15 137.61 40.06 200.88 7.66 18.55 17.06 36.33 26.79 53.86 11.17 18.85 22.98 37.36 36.42 54.68-2.62 1.84-5.7 2.81-8.88 3.11-.89-1.22-1.77-2.43-2.65-3.64a84.217 84.217 0 0 0-4.15-5.72c-3.32-4.68-6.85-9.24-9.6-14.28-.4-.44-1.19-1.33-1.59-1.78-1.24-2.03-2.51-4.04-3.78-6.05a62.443 62.443 0 0 0-3.93-6.08c-4.44-7.08-8.67-14.31-12.65-21.66.53-1.92-.52-3.75-2.31-4.5-2.23-3.49-4.14-7.18-5.98-10.89-1.18-2.74-2.51-5.41-4.04-7.98-1.53-2.9-2.93-5.88-3.92-9l-1.36-1.96c-1.6-3.61-3.22-7.2-4.78-10.82.21-1.67-.02-3.93-1.98-4.39l.07-.58c.49-1.79-.89-3.23-2.08-4.31-.32-.89-.65-1.77-.97-2.64-.9-2.59-1.91-5.13-2.95-7.65-.31-.83-.61-1.65-.9-2.47.74-2.01.28-4.72-2.15-5.19-2.93-9.27-6.75-18.26-9.16-27.7a43.96 43.96 0 0 0-2.6-8.84c-.1-.32-.3-.96-.4-1.29.58-2.35-.03-4.75-1.68-6.52l.06-.69c.33-1.4-.15-2.3-1.44-2.69l.28-2.02c-.27-.54-.79-1.64-1.06-2.19l.09-.88c-.24-.56-.7-1.69-.93-2.25-.36-1.65-.74-3.29-1.12-4.93.33-1.42.43-3.4-1.16-4.08l.26-.97c.47-1.38.05-2.29-1.29-2.75.1-.52.31-1.55.42-2.07.37-1.29-.04-2.29-1.23-2.99-.07-.42-.22-1.27-.29-1.69-.42-2.95-.98-5.86-1.62-8.75-.07-.39-.21-1.17-.29-1.56.75-1.79.47-3.81-.86-5.24l.03-.68c.58-1.55.22-3.24-1.02-4.33l-.12-1.66c.67-1.53.36-3.26-.84-4.41.02-.38.05-1.15.07-1.53.83-1.92.47-4.18-1.2-5.52l-.08-2.42c.75-2.2.49-4.56-.72-6.53l-.2-1.46c.7-1.82.43-3.84-.81-5.34-.06-.62-.17-1.86-.22-2.49-.19-2.95-.44-5.9-.76-8.83-.12-1.44-.23-2.86-.34-4.28-.14-2.92-.31-5.83-.56-8.73-.2-3.12-.37-6.25-.74-9.36.63-4.73.58-9.51.45-14.28-.2-7.39.34-14.8-.47-22.16.43-3.53.49-7.08.71-10.61.48-4.17.65-8.36.74-12.54l.24-3.55c1.26-2.3 1.39-4.94.72-7.43l.24-1.4c1.26-2.36 1.45-5.05.72-7.6.06-.35.17-1.04.22-1.39 1.32-2.3 1.47-4.97.86-7.5l.18-.58c1.21-1.57 1.5-3.61.8-5.45l.24-2.58c1.14-1.19 1.52-2.86.97-4.4-.07-.48-.2-1.45-.26-1.94 1.32-.45 1.76-1.36 1.34-2.74-.11-.57-.32-1.71-.43-2.28 1.26-.45 1.73-1.36 1.39-2.74-.05-.47-.15-1.43-.19-1.9 1.28-1.54 1.71-3.6 1.04-5.49l-.13-.83c1.3-.48 1.74-1.41 1.32-2.77l-.4-2.06c1.67-.57 1.59-2.6 1.27-3.99.33-1.67.66-3.33.98-4.99 1.18-.8 1.53-1.86 1.03-3.18l-.15-.77c1.22-.81 1.52-1.87.9-3.2.08-.39.24-1.18.33-1.57a61.3 61.3 0 0 0 3.73-14.66l.15-.59c1.87-1.59 2.61-4.01 1.9-6.36.35-1.16.71-2.33 1.07-3.48 1.41-3.01 2.4-6.19 2.86-9.48l.19-.83c.26-.53.77-1.6 1.03-2.13l-.01-.65c1.66-1.35 2.36-3.46 1.84-5.54 1.61-4.91 3.39-9.77 5.15-14.63.26-.54.79-1.63 1.05-2.17l-.1-.81c1.5-.79 2.27-2.53 2-4.18l-.03-.61c1.96-.51 2.23-2.77 2.03-4.46.93-2.51 1.93-4.99 2.97-7.45 1.67-.93 2.46-2.79 2.03-4.64 2.37-5.9 5.15-11.62 7.9-17.34 1.71-.86 2.55-2.72 2.17-4.57.24-.44.71-1.33.95-1.77 1.95-3.19 3.58-6.54 5.01-9.98 1.52-3.08 3.21-6.07 4.91-9.04a90.07 90.07 0 0 0 3.24-5.84c3.94-7.19 8.36-14.1 12.45-21.2 2.88.18 3.33-2.86 3.34-5.05.17-.2.51-.59.68-.79 1.58-.42 2.58-1.89 2.31-3.52 4.85-7.75 10.21-15.17 15.66-22.49 1.59-.34 2.63-1.74 2.51-3.36 3.62-4.99 7.52-9.77 11.33-14.62 1.6-.28 3.03-1.53 2.92-3.27 4.26-6.03 9.68-11.12 14.13-17 2.32.21 3.89-1.88 3.94-4.04 2.63-3.02 5.44-5.88 8.17-8.81 7.5-6.7 14.95-13.56 21.37-21.33 8.24-7.85 16.74-15.47 25.72-22.47 2.2.09 4.03-1.36 4.48-3.51.9-.92 1.8-1.83 2.69-2.75 2 .26 4.25-.81 4.35-3.05.25-.03.75-.1 1-.14 1.63.11 2.44-1.52 2.74-2.87 5.48-4.09 10.82-8.42 16.83-11.73 1.52.06 2.39-.66 2.62-2.15.88-.57 1.77-1.14 2.67-1.69.44-.4 1.34-1.18 1.79-1.58 2.37-1.5 4.76-2.99 7.24-4.33.44-.42 1.31-1.25 1.75-1.66 2.09-1.13 4.17-2.29 6.29-3.38.44-.4 1.32-1.22 1.76-1.62 6.75-3.82 13.26-8.05 20.14-11.63 6.75-3.61 13.72-6.68 20.96-9.19 3.8-1.83 7.73-3.4 11.72-4.79 1.86.37 3.69-.49 4.55-2.19 7.12-3.12 14.27-6.19 21.54-8.93.54-.26 1.63-.78 2.17-1.04 1.29-.35 2.58-.71 3.87-1.06.55-.26 1.64-.77 2.19-1.03 1.3-.2 2.59-.42 3.9-.58 2.01.03 3.81-.9 5.2-2.31 1.89-.67 3.78-1.34 5.69-2 2.36.64 4.76-.14 6.27-2.07 1.27-.35 2.54-.68 3.82-1.02l2.21-.96.67.03c2.35.58 4.73-.16 6.38-1.92l.65-.03c.55-.25 1.63-.75 2.18-1l.85.12c1.35.44 2.42.06 3.19-1.15l.86.08 2.14-1.13c.47.01 1.39.05 1.86.06.53-.28 1.6-.86 2.13-1.15 1.67-.2 3.35-.43 5.03-.53 1.27.2 2.22-.26 2.85-1.39 1.99-.3 3.97-.64 5.96-.98 1.34.51 2.45.2 3.32-.94l.92.2c1.37.44 2.29-.01 2.74-1.34.48.07 1.43.2 1.91.27 1.54.57 3.2.11 4.33-1.08l.7.02c1.83.57 3.81.24 5.34-.94l.66-.23c1.51.64 3.21.34 4.36-.86.41-.02 1.22-.08 1.62-.11 1.52.64 3.23.27 4.32-.99l.69.01c1.82.65 3.83.34 5.34-.9l.64-.14c1.84.7 3.89.41 5.42-.87l1.52-.16c1.84.71 3.88.42 5.44-.81l.64-.14c1.84.62 3.87.39 5.44-.8.63-.07 1.87-.22 2.49-.29 2.44.77 5.07.6 7.25-.81.37-.03 1.13-.11 1.5-.14 3.24-.13 6.48-.37 9.7-.82l1.65-.16c4.48.11 9 .06 13.4-.9Z"/><path fill="#373739" opacity=".57" d="M541.62 1.11c3.99-.16 7.99.06 11.92.78-3.99.09-7.98-.13-11.92-.78Z"/><path fill="#373737" opacity=".54" d="M463.49 2.89c3.22-.46 6.45-.7 9.7-.82-3.22.45-6.46.69-9.7.82Z"/><path fill="#38373a" opacity=".62" d="M555.95 2.13c2.44-.6 4.99-.47 7.27.66-2.43.83-5.06.69-7.27-.66Z"/><path fill="#3a3b3a" opacity=".56" d="M454.74 3.84c2.24-1.2 4.79-1.33 7.25-.81-2.18 1.41-4.81 1.58-7.25.81Z"/><path fill="#3a3a3b" opacity=".55" d="M566.79 3.15c2.18-.66 4.5-.48 6.5.66-2.18.73-4.53.55-6.5-.66Z"/><path fill="#333" opacity=".4" d="M446.81 4.93c1.56-1.19 3.59-1.48 5.44-.8-1.57 1.19-3.6 1.42-5.44.8Z"/><path fill="#373737" opacity=".64" d="M574.75 4.03c1.82-.56 3.8-.36 5.4.73-1.81.8-3.88.54-5.4-.73Z"/><path fill="#363636" opacity=".53" d="M440.73 5.88c1.58-1.15 3.58-1.4 5.44-.81a5.512 5.512 0 0 1-5.44.81Z"/><path fill="#343434" opacity=".53" d="M583.57 5.21c3.88.25 7.74.8 11.53 1.71-3.89-.21-7.75-.76-11.53-1.71Z"/><g fill="#393939"><path opacity=".53" d="M433.79 6.91c1.56-1.15 3.56-1.42 5.42-.87-1.53 1.28-3.58 1.57-5.42.87ZM5.09 444.23c-.59-1.86-.37-3.88.8-5.45.7 1.84.41 3.88-.8 5.45Z"/></g><path fill="#373737" opacity=".58" d="M427.81 7.95c1.5-1.24 3.5-1.49 5.34-.9-1.51 1.24-3.52 1.55-5.34.9Z"/><path fill="#353535" opacity=".59" d="M595.95 7.07c3.17.42 6.31 1.04 9.44 1.71-3.19-.31-6.34-.92-9.44-1.71Z"/><g fill="#373737"><path opacity=".59" d="M422.8 8.93c1.13-1.17 2.79-1.5 4.32-.99-1.09 1.26-2.8 1.63-4.32.99ZM649.01 18.79c1.29-.32 2.28.1 2.99 1.27-1.47.49-2.46.07-2.99-1.27Z"/></g><path fill="#eef8fe" d="M472 9.66c40.27-2.83 80.89-1.76 120.82 4.44 42.26 6.56 83.86 18.03 122.99 35.37 34.79 14.89 67.48 34.38 97.91 56.83 33.8 24.68 64.23 53.88 90.77 86.21 31.12 36.84 56.03 78.72 75.12 122.95 11.41 26.27 20.2 53.63 26.87 81.48 7.91 34.45 12.79 69.66 13.32 105.03.91 11.36.1 22.73-.23 34.09-3.55 83.82-28.71 166.62-72.29 238.31-1.17-1.53-2.32-3.04-3.47-4.56-.1.97-.19 1.94-.27 2.93-1.58-1.12-3.16-2.22-4.75-3.28-1.29-3.8-2.09-8.17-5.46-10.77-5.37-4.32-11.62-7.39-17.06-11.61 1.48-2.05 3.01-4.06 4.58-6.04-.01-1.46-.02-2.92-.01-4.36-.78-.07-1.54-.12-2.29-.17 2.48-3.61 2.41-8.06 2.21-12.25-.07-3.57.01-7.13-.15-10.68-1.93-2.71-2.81-5.92-3.09-9.18 1.17.64 2.33 1.3 3.5 1.97-.48-4.94-.8-9.9-.75-14.86-1.09-.11-2.18-.22-3.24-.31.8-1.34 1.6-2.67 2.42-3.98-1.45-.24-2.91-.48-4.34-.71.4-6.77.78-13.57.19-20.34-.45-4.54.14-9.08 1.03-13.52.57.65 1.72 1.95 2.29 2.6.59-4.68.88-9.4.81-14.12-.35-.03-1.06-.08-1.41-.11-.41 1.44-.81 2.88-1.2 4.34-.54-1.72-1.06-3.42-1.57-5.13.89-.35 1.8-.69 2.71-1.04.72-4.21 2.76-9.49-.97-12.84-2.42-2.21-5.47.21-7.86 1.17a97.47 97.47 0 0 1-6.77-6.87c16.42-67.12 15.7-138.29-1.7-205.15-14.15-55.41-40.32-107.62-75.62-152.57-43.34-54.95-100.71-98.79-165.27-125.88-40.29-16.99-83.25-27.61-126.8-31.44-34.78-2.94-69.92-1.49-104.37 4.11-6.09.74-12.25.61-18.37.65-3.86.8-7.52 2.33-11.35 3.23-31.87 8.34-63 19.78-92.16 35.18-65.43 34.05-121.82 85.44-161.23 147.83-25.27 39.62-43.51 83.66-54.23 129.4-2.43 10.57-4.77 21.21-6.06 31.99-9.65 61.14-4.84 124.43 13.07 183.64 21.5 71.09 62.42 136.2 117.27 186.28-2.2 1.11-4.4 2.21-6.6 3.29-4.37-3.38-9.67-7.71-15.56-5.48 5.03 2.78 10.72 4.9 14.09 9.87-5.91 5.14-14.07 5.93-21.55 6.42 4.01-3.49 7.17-7.8 9.91-12.32-.98-.55-1.96-1.09-2.93-1.61-6.12 6.5-12.92 12.29-19.65 18.15-2.83 2.53-6.31 4.37-8.66 7.41-1.54 2.02-.09 4.64-.01 6.91 2.05-.78 4.16-1.6 5.71-3.23 4.06-4.07 8.33-7.94 12.15-12.23.38 5.07 1.45 10.05 2.28 15.07 1.15 6.51 1.14 13.18 2.58 19.66 1.27-.05 2.54-.1 3.82-.16a79.17 79.17 0 0 0 2.29 4.11c4.82-3.02 9.14-6.78 12.83-11.1 3.99 3.19 7.66 6.75 11.04 10.58-1.16 1.79-2.36 3.58-3.55 5.37-.85-.74-1.71-1.46-2.57-2.16-2.07 4.71-5.21 9.98-2.42 15.13 1.55 1.4 3.64 1.68 5.64 1.86-.18-1.29-.35-2.55-.52-3.82.74.25 1.49.52 2.23.8.69-1.15 1.37-2.3 2.06-3.44 4.08.83 8.15 1.69 12.17 2.77-1.68 1.86-3.59 3.56-4.93 5.7-.83 2.25-.12 4.71.02 7.03 2.07-.75 4.42-1.37 5.7-3.32 3.63-4.87 6.75-10.09 9.81-15.32 1.42-3.18 5.47-2.57 8.25-3.56 6.92-2.02 14.47-3.84 19.68-9.17 3.18-4.16 8.49-2.58 12.79-1.65v-1.94c11.71 7.01 23.73 13.53 36.03 19.46 1.25.6 2.51 1.2 3.79 1.81-2.72 2.71-5.49 5.37-8.33 7.95-8.39-.85-16.1 3.85-21.96 9.41-5.85 5.77-10.61 12.95-12.51 21.02-1.03 5.2.71 10.49 3.4 14.92-.32.96-.64 1.94-.95 2.92-2.74-1.57-5.75-2.57-8.84-3.17.52 1.31 1.04 2.64 1.56 3.97-1.36-.15-2.72-.29-4.07-.46-61.15-33.63-114.89-80.48-157.17-135.95-13.44-17.32-25.25-35.83-36.42-54.68-9.73-17.53-19.13-35.31-26.79-53.86C22.47 647.61 8.39 578.78 9.32 510c-.18-39.69 5.14-79.33 14.56-117.85 23.49-95.14 75.13-183.55 148.11-249.17 33.68-30.07 71.19-55.92 111.54-76.21 2.66-1.29 4.97-3.15 7.24-5.02 11.74-7.3 24.65-12.42 37.44-17.57 7.65-2.91 15.01-6.57 22.88-8.86 15.92-5.47 32.1-10.16 48.47-14.08 23.7-6.2 48.05-9.56 72.44-11.58m-6.16 18.21c-7.94 2.51-16.23 3.32-24.4 4.67.31.71.91 2.15 1.21 2.86 6.61 1.54 13.48 1.19 20.14.07-.09 4.3-.14 8.65-1.1 12.87-1.11 8.61-1.46 17.42-4.11 25.75-.9 3.32 1.72 6.12 3.39 8.68 4.27-2.11 5.6-7.34 5.21-11.75-1.26-11.68.95-23.42-.48-35.09 2.83-2.44 7.55-1.21 10.41-3.83 1.31-1.81 2.8-4.64.82-6.55-3.86-.61-7.41 1.55-11.09 2.32m-42.18 9.3c-.99 2.14-2.34 4.3-2.08 6.76.2 7.59.82 15.37-1.24 22.78-1.55 6.3-3.29 13.03-8.41 17.43-2.69-2.44-4.93-5.39-6.21-8.82-3.4-8.95-4.13-18.66-3.95-28.15-.73.05-2.18.16-2.9.21-1.17 12.91-.79 26.97 6.47 38.2 2.17 3.58 7.13 6.43 11.09 3.88 3.57-2.66 5.56-6.79 7.43-10.71 5.14-11.67 6.94-24.7 5.62-37.35-.84-2.43-3.2-4.26-5.82-4.23m78.68 8.82c-3.69 1.19-7.81 1.89-10.79 4.56-.22 1.42 0 2.86.08 4.28 15.06-4.24 30.77-5.57 46.37-5.3 19.16.86 38.32 2.6 57.08 6.72 5.05-.09 11.56.22 14.91-4.27-7.44-5.31-16.58-7.15-25.52-7.83-7.73-1.64-15.66-1.34-23.47-2.26-19.61-.85-39.49-.57-58.66 4.1m-151.88 7.5c-7.04 6.93-9.4 17.03-10.7 26.49-.36 8.41 2.32 17.79 9.41 22.93 3.79 2.99 9.42 2.14 13.1-.63 6.46-4.98 10.69-12.08 15.19-18.74 2.6-4.12 4.97-8.61 5.05-13.61-2.58-2.67-6.17-3.1-9.62-2.06.25-1.93.66-3.83 1.19-5.71-.12-.12-.36-.37-.47-.5.19-2.59.61-5.78-1.6-7.69-5.54-5.86-15.81-6.26-21.55-.48m324.71-.44c-6.62 2.49-12.09 7.19-16.76 12.39-7.81 8.27-14.25 18.41-15.99 29.82-.3 5.4-.2 11.41 3.53 15.74 3.34 3.27 8.53 2.92 12.82 2.46 10.75-2.44 20.9-7.39 29.73-13.96 2.67-2.43 6.8-5.73 4.85-9.79-2.19-2.79-6.2-3.01-9.39-3.93-6.41-.9-12.59-3.71-19.15-3.1 2.73-2.88 5.42-5.86 8.53-8.36 4.56-2.99 9.87-4.55 14.85-6.69 1.28-.51 1.52-2.06 2.14-3.14 1.35 3.56 4.52 5.62 7.9 6.99 1.52-.64 2.9-1.75 3-3.54-.13-4.5-1.74-9.07-4.69-12.49-5.87-4.95-14.49-5.28-21.37-2.4M294.5 71.27c-5.97.9-12.04 3.57-15.66 8.57-1.42 1.83-.3 4.12.11 6.09.94-.68 1.88-1.37 2.83-2.05 4.06 13.86 7.51 27.89 11.29 41.83.82 3.31 1.6 6.75 3.65 9.55 2.13 1.08 4.68 1.19 7.05 1.36 3.14-1.42 4.66-4.71 6.42-7.46 6.72-10.95 12.5-23.01 13.08-36.06.04-6.38-1.48-13.48-6.88-17.5-6.2-4.49-14.44-5.9-21.89-4.33m410.64 18.87c-4.66 4.69-9.25 10.08-10.37 16.83.49 5.03.9 10.68 5 14.26 5.87 6.37 15.23 5.9 23.15 5.38 3.29-.43 7.3-.22 9.52-3.16 1.32-1.74 3.86-3.54 3.12-6.01-2.47-4.01-7.82-3.38-11.71-2.28-5.8 1.27-12.84 2.98-17.86-1.23-2.85-2.02-3.34-6.04-2.37-9.17 1.68-4.32 5.03-7.67 8.03-11.1 5.68-5.39 13.58-10.17 21.69-7.93 3.29 1.36 3.61 5.04 4.07 8.1.49-.08 1.47-.25 1.96-.33.88-2.92 2.13-6.33.19-9.12-2.48-4.7-8.32-6.19-13.26-5.87-8.35.73-15.28 6.07-21.16 11.63M136.5 773.51c-3.42 4.14-3.31 9.89-3.26 14.97-.04 5.29 2.19 10.75.03 15.88-.78 2.46-2.98 5.35-5.92 4.37-6.31-3.78-8.84-11.77-7.88-18.79.84-3.69-2.58-6.02-5.73-6.69-2.56 4.49-2.17 9.83-1.77 14.79.97 7.08 5.01 14.05 11.33 17.62 3.02 1.86 7.01 1.5 9.87-.51 3.99-2.07 6-6.43 7.21-10.54 2.22-8.4-1.87-17 .03-25.39.2-2.98 4.02-2.37 5.91-1.5 5.32 2.16 7.27 7.96 9.78 12.61.44-1.4 1.49-2.71 1.33-4.21-1.07-6.21-5.13-12.03-11.03-14.5-3.2-1.62-7.7-1.19-9.9 1.89m25.64 22.54c.19 1.37-.13 2.95.64 4.21 3.18 4.83 7.92 8.29 12.38 11.85-8.77 6.95-17.82 13.53-26.65 20.4-2.07 1.55-2.54 4.18-2.52 6.62 3.16.95 5.72-1.28 7.95-3.19 7.69-7.56 16.3-14.11 24.15-21.51 2.28 1.8 4.18 4.18 6.86 5.43 2.09-1.07 3.53-2.97 4.85-4.83-5.27-5.53-12.2-8.99-18.24-13.57-3-2.01-5.5-5.39-9.42-5.41Z"/><path fill="#363636" opacity=".53" d="M416.82 9.9c1.16-1.15 2.84-1.47 4.36-.86-1.15 1.2-2.85 1.5-4.36.86Z"/><path fill="#393939" opacity=".64" d="M607.13 9.02c1.45-.52 2.45-.12 2.99 1.21-1.29.35-2.29-.05-2.99-1.21Z"/><path fill="#373737" opacity=".52" d="M410.82 11.07c1.47-1.3 3.5-1.59 5.34-.94a5.852 5.852 0 0 1-5.34.94Z"/><path fill="#373737" opacity=".53" d="M611.85 9.93c1.5-.57 3.12-.17 4.3.92-1.51.68-3.25.36-4.3-.92Z"/><path fill="#373737" opacity=".51" d="M405.79 12.13c1.07-1.27 2.78-1.6 4.33-1.08-1.13 1.19-2.79 1.65-4.33 1.08Z"/><g fill="#8ca6a0"><path d="M617.79 11.2c2.51.42 4.98 1.04 7.42 1.77-2.49-.52-4.97-1.11-7.42-1.77ZM268.06 60.1c6.54-4.04 13.49-7.32 20.96-9.19-7.24 2.51-14.21 5.58-20.96 9.19ZM191.71 112.19c1.03-1.68 2.58-2.94 4.48-3.51-.45 2.15-2.28 3.6-4.48 3.51ZM54.02 285c1.61-3.36 3.22-6.72 5.01-9.98-1.43 3.44-3.06 6.79-5.01 9.98ZM154.53 463.03c4.68-6.3 9.99-12.12 15.8-17.39 1.09 9.86 1.33 19.79 1.18 29.71-5.96-3.67-11.85-7.51-16.98-12.32ZM32.01 690.94c2.43.47 2.89 3.18 2.15 5.19a14.965 14.965 0 0 1-2.15-5.19ZM96.91 813.17c1.46 1.84 2.84 3.75 4.15 5.72-1.45-1.87-2.85-3.76-4.15-5.72Z"/></g><path fill="#333" opacity=".41" d="M401.14 13.2c.46-1.27 1.37-1.72 2.74-1.34-.45 1.33-1.37 1.78-2.74 1.34Z"/><path fill="#373737" opacity=".57" d="M396.9 13.94c.87-1.15 1.97-1.47 3.32-.94-.87 1.14-1.98 1.45-3.32.94Z"/><path fill="#343434" opacity=".62" d="M625.97 13.16c2.39.25 4.72.88 7.01 1.63-2.45.04-4.88-.39-7.01-1.63Z"/><path fill="#363636" opacity=".5" d="M388.09 16.31c.38-1.42 1.33-1.89 2.85-1.39-.63 1.13-1.58 1.59-2.85 1.39Z"/><path fill="#373737" opacity=".61" d="M633.73 14.98c2.51.61 5.03 1.22 7.53 1.88-2.52-.6-5.03-1.21-7.53-1.88Z"/><path fill="#3b3b3b" opacity=".54" d="M380.93 17.99Z"/><path fill="#333" opacity=".65" d="M641.9 17.01c2.3-.1 4.57.5 6.44 1.88-2.38.84-4.79-.11-6.44-1.88Z"/><path fill="#3a3b3a" opacity=".48" d="m376.93 19.06 2.14-1.13-2.14 1.13Z"/><path fill="#353535" opacity=".53" d="M372.88 20.13c.75-1.21 1.81-1.59 3.19-1.15-.77 1.21-1.84 1.59-3.19 1.15Z"/><path fill="#3b3b3b" opacity=".56" d="M369.85 21.01c.55-.25 1.63-.75 2.18-1-.55.25-1.63.75-2.18 1Z"/><path fill="#3c3c3c" opacity=".59" d="M652.88 19.94c.56.23 1.7.69 2.26.93-.56-.24-1.7-.7-2.26-.93Z"/><path fill="#353535" opacity=".6" d="M362.82 22.96c1.79-1.48 4.05-2.2 6.38-1.92-1.65 1.76-4.03 2.5-6.38 1.92Z"/><path fill="#3c3c3d" opacity=".55" d="M660.05 22.03c.54.25 1.63.76 2.17 1.01-.54-.25-1.63-.76-2.17-1.01Z"/><path fill="#3a3a3a" opacity=".53" d="m359.94 23.89 2.21-.96-2.21.96Z"/><path fill="#343434" opacity=".52" d="M666.02 23.83c1.37-.37 2.38.07 3.06 1.31-1.39.39-2.41-.04-3.06-1.31Z"/><path fill="#313131" opacity=".62" d="M349.85 26.98c1.76-1.46 3.98-2.14 6.27-2.07-1.51 1.93-3.91 2.71-6.27 2.07Z"/><path fill="#373737" opacity=".44" d="M669.9 25.03Z"/><path fill="#060e15" d="M465.84 27.87c3.68-.77 7.23-2.93 11.09-2.32 1.98 1.91.49 4.74-.82 6.55-2.86 2.62-7.58 1.39-10.41 3.83 1.43 11.67-.78 23.41.48 35.09.39 4.41-.94 9.64-5.21 11.75-1.67-2.56-4.29-5.36-3.39-8.68 2.65-8.33 3-17.14 4.11-25.75.96-4.22 1.01-8.57 1.1-12.87-6.66 1.12-13.53 1.47-20.14-.07-.3-.71-.9-2.15-1.21-2.86 8.17-1.35 16.46-2.16 24.4-4.67Z"/><path fill="#373737" opacity=".45" d="M672.92 25.99c.54.28 1.61.82 2.14 1.1-.53-.28-1.6-.82-2.14-1.1Z"/><path fill="#303030" opacity=".45" d="M677.95 27.89c2-.31 4.54.03 5.22 2.3-1.99-.1-3.78-.98-5.22-2.3Z"/><path fill="#373737" opacity=".62" d="M338.96 31.29c.72-2.2 3.22-2.49 5.2-2.31-1.39 1.41-3.19 2.34-5.2 2.31Z"/><path fill="#393939" opacity=".52" d="M686.97 30.91c.55.25 1.65.76 2.2 1.01-.55-.25-1.65-.76-2.2-1.01Z"/><path fill="#3c3d3d" opacity=".6" d="M332.87 32.9c.55-.26 1.64-.77 2.19-1.03-.55.26-1.64.77-2.19 1.03Z"/><path fill="#393939" opacity=".51" d="M326.83 35c.54-.26 1.63-.78 2.17-1.04-.54.26-1.63.78-2.17 1.04Z"/><path fill="#080c15" d="M423.66 37.17c2.62-.03 4.98 1.8 5.82 4.23 1.32 12.65-.48 25.68-5.62 37.35-1.87 3.92-3.86 8.05-7.43 10.71-3.96 2.55-8.92-.3-11.09-3.88-7.26-11.23-7.64-25.29-6.47-38.2.72-.05 2.17-.16 2.9-.21-.18 9.49.55 19.2 3.95 28.15 1.28 3.43 3.52 6.38 6.21 8.82 5.12-4.4 6.86-11.13 8.41-17.43 2.06-7.41 1.44-15.19 1.24-22.78-.26-2.46 1.09-4.62 2.08-6.76Z"/><path fill="#303030" opacity=".39" d="M702.74 36.97c1.81-.37 3.61.38 4.65 1.92-1.82.33-3.6-.43-4.65-1.92Z"/><path fill="#080c11" d="M711.34 40.52c9.89 4.23 19.76 8.51 29.34 13.4.84 1.77 2.69 2.91 4.67 2.42.32.21.95.63 1.26.84.84 1.74 2.71 2.68 4.6 2.09 5.24 2.51 10.32 5.35 15.4 8.17 32.11 18.16 62.58 39.46 89.71 64.51.09 2.03 1.85 3.31 3.8 3.36 15.1 13.5 29.31 28.05 42.4 43.52-.21 1.74 1.18 2.98 2.82 3.21 4.69 5.32 9.05 10.93 13.28 16.63-.36 1.66.79 3.05 2.35 3.51 8.46 10.02 15.49 21.15 22.72 32.07 5.41 8.79 11.38 17.28 15.97 26.55-.58 1.92.54 3.78 2.44 4.36 6.57 11.54 12.55 23.45 17.95 35.59.93 2.2 1.9 4.39 2.89 6.57 3.7 7.98 6.64 16.27 10.01 24.39-.34 2.11.43 4.15 2.01 5.58 1.01 2.86 2.01 5.73 3 8.61-.5 1.35-.13 2.41 1.11 3.17.27.93.55 1.86.84 2.8-.47 2.36.3 4.71 2.15 6.29.7 2.24 1.4 4.48 2.08 6.73.21.56.64 1.68.85 2.24l-.13.82c-.44 1.36-.03 2.4 1.24 3.1l-.11.83c.26.55.76 1.64 1.01 2.19l-.11.84c-.44 1.36-.04 2.4 1.2 3.13l-.13.82c.24.56.71 1.66.94 2.21.36 1.56.74 3.11 1.12 4.67.58 2.52 1.18 5.03 1.8 7.55.1.42.3 1.27.39 1.7.24.56.71 1.68.94 2.24l-.32 1.84c-.36 1.28.05 2.29 1.22 3.02l-.11.86c-.5 1.47-.07 2.47 1.3 2.99-.11.78-.32 2.34-.42 3.12-.31 1.29.12 2.31 1.26 3.06l-.17.96c-.43 1.41.03 2.32 1.38 2.75-.11.83-.32 2.5-.43 3.33-.39 1.32.02 2.26 1.23 2.82l-.31 1.02c-.69 1.4-.24 3.4 1.36 3.95l-.12 2.85c-.62 1.53-.25 3.22.97 4.37.04.39.11 1.18.15 1.57-.75 1.83-.47 3.87.78 5.42l.21.62c-.71 1.84-.46 3.89.74 5.49.06.37.17 1.11.22 1.48-.65 2.2-.44 4.54.76 6.52l.32 2.47c-.73 2.47-.57 5.09.66 7.38.13 1.48.26 2.96.4 4.46.17 2.92.39 5.84.7 8.76.07 1.12.15 2.24.24 3.37-.68 13.76.64 27.53.03 41.29-.39 7.38-.3 14.77-.15 22.17-.04.63-.12 1.88-.17 2.51-.39 3.25-.61 6.51-.71 9.79-.12 1.13-.22 2.26-.32 3.41-1.29 1.83-1.46 4.11-.63 6.18-.05.38-.14 1.14-.18 1.52-1.07 4.88-1.61 9.85-1.81 14.83-.09.63-.29 1.88-.38 2.51-1.16 1.16-1.41 2.85-.7 4.33-.04.39-.13 1.16-.18 1.54-1.27 1.53-1.54 3.56-.87 5.42-.05.39-.16 1.17-.22 1.56-1.17 1.17-1.44 2.87-.77 4.39l-.14.68c-1.3 1.44-1.59 3.43-.91 5.24-.4 1.96-.78 3.92-1.14 5.9-1.15.74-1.54 1.76-1.17 3.05.08.45.24 1.35.32 1.81-1.28 1.05-1.61 2.74-1.12 4.29v.61c-1.57 1.79-2.15 4.14-1.77 6.49-.08.32-.24.98-.33 1.31a43.685 43.685 0 0 0-2.76 11.77l-.14.65c-1.56 1.74-2.55 4.06-1.8 6.4l.08.62c-1.38.5-1.79 1.48-1.23 2.96-.94 3.69-2.01 7.34-3.09 10.99-.2.57-.6 1.7-.79 2.27-2.19 7.29-4.81 14.44-7.3 21.63-.21.56-.64 1.68-.85 2.24-2.42 6.71-5.09 13.32-7.82 19.91-.3.51-.9 1.52-1.2 2.03l-.02.69c-1.59.95-2.36 2.73-2.06 4.56-.5 1.27-1.01 2.54-1.47 3.84-2.39.38-3.22 2.99-2.55 5.07-11.49 25.29-24.97 49.78-40.93 72.53-1.56.48-2.66 1.89-2.38 3.57-9.16 13.87-19.53 26.92-30.19 39.67-1.61.26-3 1.5-2.78 3.25-1.38 1.62-2.78 3.21-4.18 4.81-1.64.2-3.08 1.43-2.89 3.2-24.15 27.42-51.57 51.98-81.2 73.34-1.76-.37-3.08 1-3.35 2.64-2.2 1.54-4.42 3.04-6.71 4.44-1.74-.32-3.07 1.02-3.42 2.62-7.45 4.92-14.87 9.9-22.64 14.29-1.91-.43-3.71.62-4.32 2.46-5.25 3.67-10.97 6.61-16.58 9.68-2.04-.6-3.86.74-4.61 2.58-5.04 2.72-10.12 5.37-15.32 7.76-1.87-.26-3.66.65-4.46 2.38l-1.67.44c-1.86-.28-3.66.58-4.55 2.25-14.43 6.89-29.41 12.54-44.43 17.96-6.69 1.27-13.34 2.97-19.33 6.29-3.19 1.04-6.41 1.97-9.65 2.8-2.42-.69-4.91-.02-6.55 1.9-1.55.32-3.09.65-4.63.99-1.38-.52-2.44-.15-3.17 1.11l-.84-.09c-.54.26-1.63.77-2.17 1.03l-1.79-.32c-1.29-.37-2.28.04-2.97 1.22l-.84.19c-2.54.49-5.06 1.07-7.57 1.68l-.74.17c-1.5-.62-3.15-.27-4.19.98l-.71-.05c-1.54-.54-3.2-.18-4.31 1.03-.41.04-1.25.1-1.66.14-1.42-.4-3.42-.58-4.17 1.02l-.86-.26c-1.47-.77-3.04.1-4.13 1.09l-.76.01c-1.55-.56-3.23-.25-4.39.94-.64.05-1.92.15-2.57.21a5.25 5.25 0 0 0-5.39.83l-.64.2c-1.85-.71-3.9-.47-5.48.72-.36.07-1.1.22-1.46.29-2.14-.75-4.45-.52-6.3.8-.38.04-1.15.11-1.53.15-2.88.21-5.74.5-8.59.88-.41.05-1.24.14-1.66.18-3.16.13-6.32.35-9.45.79-.61.06-1.84.17-2.45.22-4.26-.17-8.54-.1-12.71.85-.49.07-1.47.22-1.96.29-6.85-.82-13.75-.11-20.62-.14-7.42.18-14.87-.7-22.25.33-1.46-.25-2.92-.47-4.39-.64-4.24-.74-8.55-.84-12.84-.68-1.47-.13-2.94-.25-4.4-.36-2.3-1.23-4.91-1.36-7.38-.64-.62-.06-1.85-.19-2.47-.25-1.96-1.29-4.35-1.52-6.54-.75-.62-.06-1.87-.18-2.49-.23-1.93-1.33-4.3-1.57-6.5-.85-.37-.04-1.11-.12-1.48-.17-1.57-1.25-3.64-1.51-5.5-.82-.39-.05-1.18-.17-1.58-.22a3.908 3.908 0 0 0-4.43-.76c-.39-.05-1.18-.14-1.57-.19-1.56-1.22-3.57-1.58-5.44-.96-.46.06-1.39.17-1.85.22-.43-1.34-1.35-1.8-2.74-1.39-.58.09-1.75.28-2.33.37-.43-1.3-1.33-1.77-2.7-1.39-.47.06-1.42.19-1.89.25-1.06-1.3-2.78-1.63-4.27-.97-.39-.08-1.15-.24-1.53-.32-2.51-.55-5.02-1.12-7.52-1.66-.38-.08-1.13-.26-1.51-.34-2.54-.63-5.09-1.22-7.64-1.76-1.56-.36-3.11-.69-4.66-1.02-.81-1.19-1.87-1.51-3.19-.97-1.64-.37-3.27-.73-4.91-1.07-.55-.24-1.65-.71-2.2-.94l-.68.04c-1.87-1.48-4.2-2.08-6.54-1.87-3.54-1.05-7.04-2.17-10.57-3.24-.54-.25-1.62-.75-2.16-1.01l-.8.13c-.74-1.24-1.79-1.6-3.14-1.05-18.28-5.87-36.12-13.01-53.62-20.89-.89-1.68-2.69-2.53-4.53-2.2-12.45-5.74-24.71-11.95-36.48-18.98-.49-1.57-1.99-2.72-3.64-2.16a80.746 80.746 0 0 1-6.46-3.72c-.56-1.86-2.37-2.94-4.26-2.48-.2-.1-.61-.28-.81-.37-.33-1.6-1.72-3-3.44-2.47-16.68-9.93-32.38-21.48-47.59-33.53-.21-1.61-1.42-2.96-3.13-2.79-6.21-4.68-12.22-9.65-17.87-14.99-.23-1.64-1.47-3.09-3.24-2.84-24-21.43-45.57-45.52-65.13-71.05 3.18-.3 6.26-1.27 8.88-3.11 42.28 55.47 96.02 102.32 157.17 135.95 51.2 28.36 107.35 47.83 165.18 56.95 52.48 8.23 106.27 8.3 158.73-.16 85.5-13.59 167.52-49.27 235.35-103.13 47.06-37.31 87.37-83.16 118.26-134.66 43.58-71.69 68.74-154.49 72.29-238.31.33-11.36 1.14-22.73.23-34.09-.53-35.37-5.41-70.58-13.32-105.03-6.67-27.85-15.46-55.21-26.87-81.48-19.09-44.23-44-86.11-75.12-122.95-26.54-32.33-56.97-61.53-90.77-86.21-30.43-22.45-63.12-41.94-97.91-56.83.52-.33 1.56-1 2.08-1.34-1.48-.68-2.95-1.37-4.4-2.08.38-2.16-.38-4.19-2.15-5.53Z"/><path fill="#030913" d="M502.34 45.99c19.17-4.67 39.05-4.95 58.66-4.1 7.81.92 15.74.62 23.47 2.26 8.94.68 18.08 2.52 25.52 7.83-3.35 4.49-9.86 4.18-14.91 4.27-18.76-4.12-37.92-5.86-57.08-6.72-15.6-.27-31.31 1.06-46.37 5.3-.08-1.42-.3-2.86-.08-4.28 2.98-2.67 7.1-3.37 10.79-4.56Z"/><path fill="#323232" opacity=".6" d="M300.74 46.12c1.05-1.48 2.75-2.27 4.55-2.19-.86 1.7-2.69 2.56-4.55 2.19Z"/><path fill="#050e12" d="M350.46 53.49c5.74-5.78 16.01-5.38 21.55.48 2.21 1.91 1.79 5.1 1.6 7.69-2.77-2.83-5.26-6.7-9.56-7.15-4.68-.77-9.35 1.79-11.89 5.65-5.22 8.01-7.23 18.03-5.42 27.43.74 3.57 2.84 6.9 5.9 8.92 3.01 1.39 5.84-1.01 7.88-2.98 4.14-4.31 7.58-9.26 10.52-14.45-3.56 1.18-6.83 3.05-10.33 4.37-2.66.95-4.45-1.73-5.44-3.77-1.03-2.08-1.94-5.58.85-6.69 5.31-2.48 11.12-3.68 16.77-5.12 3.45-1.04 7.04-.61 9.62 2.06-.08 5-2.45 9.49-5.05 13.61-4.5 6.66-8.73 13.76-15.19 18.74-3.68 2.77-9.31 3.62-13.1.63-7.09-5.14-9.77-14.52-9.41-22.93 1.3-9.46 3.66-19.56 10.7-26.49Z"/><path fill="#080e13" d="M675.17 53.05c6.88-2.88 15.5-2.55 21.37 2.4 2.95 3.42 4.56 7.99 4.69 12.49-.1 1.79-1.48 2.9-3 3.54-1.64-4.71-2.91-10.44-7.96-12.67-8.12-2.26-16.6 1.38-22.48 6.97-8.01 7.73-15.17 17.18-17.34 28.31-.09 3.45-1.27 8.1 2 10.48 9.16.41 17.54-4.25 25.6-8.02-3.48-.85-7.09-1.1-10.53-2.09-3.99-2.09-5.64-8.19-2.71-11.78 6.56-.61 12.74 2.2 19.15 3.1 3.19.92 7.2 1.14 9.39 3.93 1.95 4.06-2.18 7.36-4.85 9.79-8.83 6.57-18.98 11.52-29.73 13.96-4.29.46-9.48.81-12.82-2.46-3.73-4.33-3.83-10.34-3.53-15.74 1.74-11.41 8.18-21.55 15.99-29.82 4.67-5.2 10.14-9.9 16.76-12.39Z"/><g fill="#ecdbd1"><path d="M740.68 53.92c1.75.33 3.51.96 4.67 2.42-1.98.49-3.83-.65-4.67-2.42ZM902.52 178.83c1.4.56 2.4 1.75 2.82 3.21-1.64-.23-3.03-1.47-2.82-3.21ZM918.62 198.67c1.37.66 2.21 1.99 2.35 3.51-1.56-.46-2.71-1.85-2.35-3.51ZM486.14 695.27c9.93-5.54 19.81-12.08 25.77-22.06 5.86 9.93 15.83 16.33 25.79 21.59-5.07 9.6-15.09 16.06-25.7 17.68-10.59-1.52-20.45-7.92-25.86-17.21ZM902.57 847.19c-.22-1.75 1.17-2.99 2.78-3.25-.39 1.45-1.37 2.67-2.78 3.25ZM168.84 893.58c1.77-.25 3.01 1.2 3.24 2.84-1.44-.46-2.64-1.46-3.24-2.84ZM189.95 911.41c1.71-.17 2.92 1.18 3.13 2.79-1.45-.38-2.67-1.34-3.13-2.79ZM800.82 938.24c.35-1.6 1.68-2.94 3.42-2.62-.67 1.38-1.95 2.28-3.42 2.62ZM240.67 947.73c1.72-.53 3.11.87 3.44 2.47-1.44-.35-2.72-1.17-3.44-2.47ZM255.64 956.77c1.65-.56 3.15.59 3.64 2.16-1.51-.13-2.84-.9-3.64-2.16Z"/></g><path fill="#eef7f7" d="M352.16 60.16c2.54-3.86 7.21-6.42 11.89-5.65 4.3.45 6.79 4.32 9.56 7.15.11.13.35.38.47.5a39.94 39.94 0 0 0-1.19 5.71c-5.65 1.44-11.46 2.64-16.77 5.12-2.79 1.11-1.88 4.61-.85 6.69.99 2.04 2.78 4.72 5.44 3.77 3.5-1.32 6.77-3.19 10.33-4.37-2.94 5.19-6.38 10.14-10.52 14.45-2.04 1.97-4.87 4.37-7.88 2.98-3.06-2.02-5.16-5.35-5.9-8.92-1.81-9.4.2-19.42 5.42-27.43Z"/><g fill="#c8afae"><path d="M746.61 57.18c1.77.02 3.41.77 4.6 2.09-1.89.59-3.76-.35-4.6-2.09ZM63.94 265.98c1.01-1.99 2.08-3.94 3.24-5.84a90.07 90.07 0 0 1-3.24 5.84ZM220.59 474.18c4.36-.21 8.74-.44 13.11-.06-3.52 7.34-8.28 14-12.18 21.15-.61-7.02-.83-14.06-.93-21.09ZM978.85 728.17c-.67-2.08.16-4.69 2.55-5.07-.53 1.83-1.42 3.53-2.55 5.07ZM244.92 950.57c1.89-.46 3.7.62 4.26 2.48-1.68-.3-3.32-1.01-4.26-2.48Z"/></g><path fill="#eff3f7" d="M667.79 65.78c5.88-5.59 14.36-9.23 22.48-6.97 5.05 2.23 6.32 7.96 7.96 12.67-3.38-1.37-6.55-3.43-7.9-6.99-.62 1.08-.86 2.63-2.14 3.14-4.98 2.14-10.29 3.7-14.85 6.69-3.11 2.5-5.8 5.48-8.53 8.36-2.93 3.59-1.28 9.69 2.71 11.78 3.44.99 7.05 1.24 10.53 2.09-8.06 3.77-16.44 8.43-25.6 8.02-3.27-2.38-2.09-7.03-2-10.48 2.17-11.13 9.33-20.58 17.34-28.31Z"/><path fill="#070d13" d="M294.5 71.27c7.45-1.57 15.69-.16 21.89 4.33 5.4 4.02 6.92 11.12 6.88 17.5-.58 13.05-6.36 25.11-13.08 36.06-1.76 2.75-3.28 6.04-6.42 7.46-2.37-.17-4.92-.28-7.05-1.36-2.05-2.8-2.83-6.24-3.65-9.55-3.78-13.94-7.23-27.97-11.29-41.83-.95.68-1.89 1.37-2.83 2.05-.41-1.97-1.53-4.26-.11-6.09 3.62-5 9.69-7.67 15.66-8.57m-10.45 9.1c6.03 14.91 9.59 30.7 15.72 45.57 3.63-5.2 7.45-10.29 10.59-15.82 3.56-7.73 6.48-16.41 4.77-25-1.95-5.35-7.97-7.47-13.11-8.4-6.17-.77-12.55.65-17.97 3.65Z"/><g fill="#f0f4f3"><path d="M246.16 73.35c.44-.4 1.32-1.22 1.76-1.62-.44.4-1.32 1.22-1.76 1.62ZM238.12 78.39ZM223.8 88.14c.44-1.24 1.31-1.96 2.62-2.15-.23 1.49-1.1 2.21-2.62 2.15ZM204.23 102.74c-.3-1.65 1.47-2.44 2.74-2.87-.3 1.35-1.11 2.98-2.74 2.87ZM198.88 105.93c1.22-1.27 2.46-2.88 4.35-3.05-.1 2.24-2.35 3.31-4.35 3.05ZM856.32 131.95c1.66.57 2.9 1.87 3.8 3.36-1.95-.05-3.71-1.33-3.8-3.36ZM132.51 168.84c.95-1.66 2.34-3 3.94-4.04-.05 2.16-1.62 4.25-3.94 4.04ZM115.46 189.11c.43-1.48 1.47-2.7 2.92-3.27.11 1.74-1.32 2.99-2.92 3.27ZM79.63 238.94c.81-1.87 1.83-3.66 3.34-5.05-.01 2.19-.46 5.23-3.34 5.05ZM1017.78 423c1.07.96 1.52 2.53 1.36 3.95-1.6-.55-2.05-2.55-1.36-3.95ZM1.17 486.22c.14-4.19.35-8.37.74-12.54-.09 4.18-.26 8.37-.74 12.54ZM4.91 582.71c1.67 1.34 2.03 3.6 1.2 5.52-.76-1.74-1.38-3.61-1.2-5.52ZM47.75 728.99l1.36 1.96-1.36-1.96ZM53.03 739.95c1.53 2.57 2.86 5.24 4.04 7.98-1.41-2.62-2.75-5.29-4.04-7.98ZM63.05 758.82c1.79.75 2.84 2.58 2.31 4.5-1.41-1.11-2.1-2.77-2.31-4.5ZM78.01 784.98c1.42 1.95 2.74 3.97 3.93 6.08a114.51 114.51 0 0 1-3.93-6.08ZM85.72 797.11c.4.45 1.19 1.34 1.59 1.78-.4-.44-1.19-1.33-1.59-1.78ZM935.54 804.27c-.28-1.68.82-3.09 2.38-3.57-.14 1.53-1 2.88-2.38 3.57ZM859.09 802.68c5.94.58 11.51 2.83 16.87 5.37-2.68 3.65-5.14 7.45-7.95 10.99-2.96-5.46-5.6-11.1-8.92-16.36ZM895.5 855.2c-.19-1.77 1.25-3 2.89-3.2-.48 1.43-1.49 2.62-2.89 3.2ZM773.86 954.99c.61-1.84 2.41-2.89 4.32-2.46-.99 1.47-2.63 2.2-4.32 2.46ZM752.67 967.25c.75-1.84 2.57-3.18 4.61-2.58-1.22 1.35-2.9 2.09-4.61 2.58Z"/></g><path fill="#eef7fa" d="M284.05 80.37c5.42-3 11.8-4.42 17.97-3.65 5.14.93 11.16 3.05 13.11 8.4 1.71 8.59-1.21 17.27-4.77 25-3.14 5.53-6.96 10.62-10.59 15.82-6.13-14.87-9.69-30.66-15.72-45.57Z"/><path fill="#080d13" d="M705.14 90.14c5.88-5.56 12.81-10.9 21.16-11.63 4.94-.32 10.78 1.17 13.26 5.87 1.94 2.79.69 6.2-.19 9.12-.49.08-1.47.25-1.96.33-.46-3.06-.78-6.74-4.07-8.1-8.11-2.24-16.01 2.54-21.69 7.93-3 3.43-6.35 6.78-8.03 11.1-.97 3.13-.48 7.15 2.37 9.17 5.02 4.21 12.06 2.5 17.86 1.23 3.89-1.1 9.24-1.73 11.71 2.28.74 2.47-1.8 4.27-3.12 6.01-2.22 2.94-6.23 2.73-9.52 3.16-7.92.52-17.28.99-23.15-5.38-4.1-3.58-4.51-9.23-5-14.26 1.12-6.75 5.71-12.14 10.37-16.83Z"/><g fill="#f2f5fb"><path d="M229.09 84.3c.44-.4 1.34-1.18 1.79-1.58-.45.4-1.35 1.18-1.79 1.58ZM190.03 694.66c.38-.08 1.13-.25 1.51-.33-.13.36-.38 1.07-.51 1.42l-.87-.28-.13-.81ZM810.95 931.18c.27-1.64 1.59-3.01 3.35-2.64-.67 1.34-1.92 2.23-3.35 2.64ZM471.2 983.02c.68-8.72 4.17-17 8.71-24.39 3.79 2.92 8.79 1.85 13.12 3.29 2.71 9.35-.37 20.07-7.44 26.73-2.17 2.11-5.2 4.29-8.38 3.23-3.96-.72-6.51-5.02-6.01-8.86Z"/></g><path fill="#0c0a0e" d="M428.6 109.72c34.45-5.6 69.59-7.05 104.37-4.11 43.55 3.83 86.51 14.45 126.8 31.44 64.56 27.09 121.93 70.93 165.27 125.88-2.11 1.02-4.21 2.03-6.31 3.05-22.71-28.36-48.75-54.2-78.24-75.48-30.87-22.55-64.74-41.08-100.67-54.19-40.53-15.22-83.58-23.42-126.81-25.04-28.42-.74-57.03.61-84.98 6.04-5.31 1.62-10.47 3.67-15.58 5.8-15.06 2.1-29.78 6.35-44.21 11.08-59.1 19.29-113.71 52.38-157.8 96.25-59.17 58.06-99.83 134.68-114.6 216.27-1.65-.47-3.29-.94-4.93-1.4-.69 4.66-1.25 9.99-5.71 12.69 1.29-10.78 3.63-21.42 6.06-31.99 10.72-45.74 28.96-89.78 54.23-129.4 39.41-62.39 95.8-113.78 161.23-147.83 29.16-15.4 60.29-26.84 92.16-35.18 3.83-.9 7.49-2.43 11.35-3.23 6.12-.04 12.28.09 18.37-.65Z"/><path fill="#f0d7cf" d="M428.03 117.31c27.95-5.43 56.56-6.78 84.98-6.04 43.23 1.62 86.28 9.82 126.81 25.04 35.93 13.11 69.8 31.64 100.67 54.19 29.49 21.28 55.53 47.12 78.24 75.48 46.77 58.69 76.78 130.53 85.98 205 4.2 35.58 3.93 71.71-1.29 107.17-9.97 67.61-36.67 132.81-77.77 187.48-3.57 4.61-6.63 9.78-11.34 13.37 1.16-9.63.34-19.34.52-29 .2-13.31-.95-26.58-1.62-39.85 2.69-6.39 7.68-11.63 11.65-17.3 11.91-15.46 22.4-32.01 35.16-46.81 3.15-4.1 7.38-8.48 6.88-14.05-.15-8.04-5.95-14.29-10.59-20.29-13.53-15.29-29.46-28.43-46.76-39.24-8.07-5.09-17.07-8.41-25.52-12.7-3.97-10.79-6.98-21.96-10.99-32.77-12.8-35.67-28.03-70.41-42.73-105.32-3.98-7.75-7.76-15.83-13.35-22.56-8.88-4.03-19.52-2.39-28.13 1.62-10.19 5.31-19 12.92-26.93 21.15-5.09 4.98-10.12 10.03-14.48 15.66-7.75 9.35-14.45 19.5-21.56 29.33-3.24 4.95-9 7.08-13.83 10.07-4.89 2.61-9.41 6.57-15.18 6.92-5.13.12-10.15-1.17-15.24-1.67-12.18-1.37-24.36-2.72-36.54-4.12-9.01-1.07-18.05.05-27.06.14-7.66-.97-15.32.66-22.99.07-14.33-1.49-28.52 1.83-42.72 3.26-8.53.91-17.03 2.08-25.49 3.51-6.56.98-11.86-3.79-17.33-6.55-4.86-3.02-10.8-4.88-14.14-9.82-3.44-4.75-6.96-9.43-10.31-14.24-11.68-16.22-25.38-31-41.03-43.46-7.39-5.47-15.64-10.49-24.98-11.44-5.24-.34-10.64-.01-15.58 1.88-3.75 4.11-6.14 9.27-8.86 14.08-4.59 8.2-7.69 17.09-11.31 25.73-15.19 37.23-30.64 74.45-42.15 113.03-2.57-.3-5.24-.96-7.75.03-10.25 3.25-20.08 7.69-29.81 12.22-13.33 6.3-25.3 15.07-36.56 24.5-7.48 6.12-14.34 12.98-20.84 20.13-4.78 6.24-10.89 12.57-11.14 20.9-.45 5.32 3.49 9.52 6.53 13.41 11.93 13.95 21.99 29.35 33.06 43.96 7.7 10.07 14.85 20.53 21.99 31 4.4 6.3 9.2 12.42 12.48 19.4 1.28 5.27.42 10.81.71 16.19-.32 19.2 1.42 38.34 2.51 57.48-49.85-48.77-87.01-110.42-106.6-177.38-18.05-61.21-21.4-126.64-9.86-189.39 14.77-81.59 55.43-158.21 114.6-216.27 44.09-43.87 98.7-76.96 157.8-96.25 14.43-4.73 29.15-8.98 44.21-11.08 5.11-2.13 10.27-4.18 15.58-5.8M248.92 252.95c-12.14 7.78-23.7 16.52-33.96 26.69-3.1 3.34-6.14 6.73-9.39 9.92-16.11 17.67-29.26 38.55-35.4 61.83-3.57 14.24-3.78 29.02-4.44 43.61.48 10.68-1.23 21.62 1.65 32.07-13.11 6.24-23.6 16.46-34.11 26.23-2.9 2.14-5.03 5.76-3.95 9.45 2.82 9.26 8.72 17.71 16.91 23.01 8.73 6.77 18.46 12.19 28.71 16.31 2.59 1.11 6.23 1.6 7.98-1.17 2.88-4.25 4.91-9.14 5.81-14.21.78-10.55.86-21.15.21-31.71.25-4.4-.81-8.8-.31-13.18 8.66-5 18.13-8.37 26.81-13.35 9.62-5.69 19.05-11.8 27.41-19.26 5.41-4.34 10.35-9.25 14.75-14.6 11.09-11.74 20.09-25.38 27.11-39.9a157.391 157.391 0 0 0 13-34.95c2.37-10.03 2.16-20.39 1.88-30.62-1.2-13.22-4.98-26.66-13.29-37.23-2.54-2.09-5.32-3.98-8.68-4.34-.7-1.32-.91-3.45-2.87-3.24-9.37-.77-18 4.08-25.83 8.64m476.62-8.56c-.25 1.05-.5 2.11-.73 3.17-6.31.32-10.71 5.59-13.43 10.78-7.04 12.24-9.56 26.66-9.1 40.66-.57 18.81 6.01 36.96 13.99 53.7 15.61 33.25 42.23 61.27 74.85 78.21 7.49 3.59 15.07 7.02 22.46 10.83-.77 15.05-1.54 30.16-.29 45.2 1.05 5.16 3.02 10.29 6.2 14.5 2.89 3.03 7.1.75 10.29-.49 12.62-5.6 24.74-12.83 34.6-22.6 3.39-4.47 6.39-9.41 8.11-14.78 1.09-3.08.19-6.6-2.25-8.77-11.02-10.25-21.88-21.19-35.65-27.74 2.42-7.12 1.51-14.69 1.66-22.06.14-13.21-.51-26.42-1.87-39.56-3.65-31.4-21.46-59.39-43.31-81.49-8.11-8.61-16.99-16.52-26.68-23.32-9.24-6.59-18.88-13.25-30.07-15.95-2.86-.84-5.87-.5-8.78-.29M213.69 464.71c-1.34 1.4-1.07 3.45-1 5.22.68 8.06 1.08 16.15 1.99 24.2.81 6.09.46 12.42 2.73 18.24 2.09.55 4.17 1.14 6.2 1.86 4.48-4.54 6.59-10.72 9.14-16.43 3.48-8.3 9.01-15.6 12.23-24.01.48-2.58 1.87-6.12-.66-8.07-3.64-3.2-8.87-2.53-13.35-2.7-5.74.63-11.76-.39-17.28 1.69m547.79-.95c-1.37.36-2.63 1.07-3.69 2-2.94 2.12-1.05 6.05-.48 8.88 2.65 6.4 6.42 12.26 9.68 18.36 3.38 6.37 5.25 13.58 9.64 19.4 1.43 2.35 4.2 1.1 6.24.47 2.22-.46 2.64-3.13 3.19-4.96 1.05-12.32 2.5-24.61 3.13-36.96-.07-2.07.92-4.67-.9-6.23-4.17-1.89-8.86-1.02-13.26-1.47-4.51-.5-9.11-.54-13.55.51M131.4 522.6c-2.93.56-5.5 2.21-7.82 4.02-7.01 5.84-11.53 14.28-13 23.25-2.06 6.31 1.33 13.29 6.61 16.9 4.8 3.33 10.03 5.99 15.03 8.99 5.58 3.04 10.6 6.99 16.23 9.94 1.23.91 2.83.8 4.12.06 1.3-2.04 1.97-4.38 2.73-6.64 2.14-5.68.49-11.84-.88-17.51-3-10.98-4.02-22.64-9.08-32.96-2.42-5.19-8.56-7.39-13.94-6.05m732.06-.02c-4.39 1.8-7.26 5.93-8.7 10.32-3.35 9.54-4.84 19.59-7.34 29.37-1.01 5.01-2.64 10.28-1.14 15.37.8 2.49 1.41 5.08 2.64 7.42 1.27 1.83 3.66 1.32 5.27.27 6.55-3.76 12.75-8.11 19.35-11.8 4.55-2.72 9.47-4.97 13.44-8.57 2.91-2.56 4.38-6.35 5.16-10.05-1.05-11.54-6.06-23.53-16.13-29.96-3.61-2.61-8.27-2.98-12.55-2.37Z"/><path fill="#303030" opacity=".52" d="M144.62 155.99c6.23-7.91 13.52-15.03 21.37-21.33-6.42 7.77-13.87 14.63-21.37 21.33Z"/><path fill="#3e3e3e" opacity=".67" d="M101.62 207.09c.08-1.56 1.05-2.85 2.51-3.36.12 1.62-.92 3.02-2.51 3.36Z"/><path fill="#343434" opacity=".7" d="M83.65 233.1c.03-1.54.92-2.87 2.31-3.52.27 1.63-.73 3.1-2.31 3.52Z"/><path fill="#0b0b09" d="M248.92 252.95c7.83-4.56 16.46-9.41 25.83-8.64 1.96-.21 2.17 1.92 2.87 3.24 3.36.36 6.14 2.25 8.68 4.34-1.97.67-4.14 1.06-5.77 2.43-.63 1.22-.87 2.6-1.14 3.94-1.19-2.06-2.57-4.01-3.88-5.99-15.54 4.35-27.17 16.03-39.87 25.27.63-1.32 1.21-2.65 1.81-3.98-3.84-1.22-8.25-3.4-12.11-1.1-2.55 1.18-3.15 4.11-3.93 6.53-2.15.23-4.3.44-6.45.65 10.26-10.17 21.82-18.91 33.96-26.69Z"/><path fill="#070907" d="M725.54 244.39c2.91-.21 5.92-.55 8.78.29 11.19 2.7 20.83 9.36 30.07 15.95 9.69 6.8 18.57 14.71 26.68 23.32 21.85 22.1 39.66 50.09 43.31 81.49 1.36 13.14 2.01 26.35 1.87 39.56-.15 7.37.76 14.94-1.66 22.06 13.77 6.55 24.63 17.49 35.65 27.74 2.44 2.17 3.34 5.69 2.25 8.77-1.72 5.37-4.72 10.31-8.11 14.78-9.86 9.77-21.98 17-34.6 22.6-3.19 1.24-7.4 3.52-10.29.49-3.18-4.21-5.15-9.34-6.2-14.5-1.25-15.04-.48-30.15.29-45.2-7.39-3.81-14.97-7.24-22.46-10.83-32.62-16.94-59.24-44.96-74.85-78.21-7.98-16.74-14.56-34.89-13.99-53.7-.46-14 2.06-28.42 9.1-40.66 2.72-5.19 7.12-10.46 13.43-10.78.23-1.06.48-2.12.73-3.17m1.06 7.87c-2.29 3.3-4.72 6.59-5.83 10.51-5.58 16.86-5.36 35.36-.85 52.45 1.33.92 3.13.41 4.63.23 5.04-1.16 9.81-3.27 14.53-5.34 6.67-3.29 13.46-6.92 18.35-12.67 4.64-5.29 8.3-11.45 10.59-18.11-12.88-10.24-25.31-22.2-41.42-27.07m41.07 57.39c-4.03 6.53-10.18 11.24-16.14 15.88-7.02 5.05-14.3 9.79-22.26 13.21 3.85 7.57 8.27 14.85 13.24 21.74 6.22 8.96 14.02 16.62 21.54 24.46 15.41 13.67 33.33 25.15 53.54 30.04 1.05-7.95.61-15.98.68-23.98-.13-11.26.64-22.63-1.54-33.76-1.43-10.21-5.64-19.7-10.16-28.87-7.85-14.3-17.79-27.35-28.9-39.27-2.28 7.32-6.08 14.01-10 20.55m64.01 136.11c-1.26 9.76-1.27 19.62-1.21 29.44 6.21-3.29 11.88-7.47 17.08-12.19-4.84-6.15-9.88-12.18-15.87-17.25Z"/><path fill="#b0cdc8" d="M235.64 277.54c12.7-9.24 24.33-20.92 39.87-25.27 1.31 1.98 2.69 3.93 3.88 5.99 7.95 18.09 7.11 38.68 2.79 57.59-6.58-.1-12.72-2.74-18.6-5.43-6.51-3.13-13.11-6.56-18.04-11.97-4.51-4.65-7.6-10.39-10.93-15.89-.13-1.75 0-3.53 1.03-5.02m29.55-2.04c-2.8.55-8.59.22-7.76 4.48.79 5.46 3.07 10.76 6.47 15.09 1.7 1.24 3.49 3.95 5.84 2.8 2.9-2.58 3.95-6.59 5.13-10.15.7-2.71 1.88-6.67-1.3-8.3-2.68-1.46-5.3-3.54-8.38-3.92Z"/><path fill="#06090a" d="M280.53 254.32c1.63-1.37 3.8-1.76 5.77-2.43 8.31 10.57 12.09 24.01 13.29 37.23.28 10.23.49 20.59-1.88 30.62a157.391 157.391 0 0 1-13 34.95c-7.02 14.52-16.02 28.16-27.11 39.9-4.4 5.35-9.34 10.26-14.75 14.6-.85-2.59-1.67-5.18-2.47-7.77-4.81-.23-9.86-1.11-14.5.58-6.05 2.91-10.36 8.32-15.86 12.02-2.01 1.39-4.48.01-6.63-.22-1.92 1.37-3.8 3.19-6.31 3.27-4.57.28-9.13-.39-13.68-.76.13-1.5.26-3 .33-4.49.05.8.14 2.4.19 3.2 18.05-4.14 34.47-13.72 48.67-25.39 11.28-10.45 22.23-21.51 30.57-34.52 3.36-5.34 6.7-10.7 9.61-16.3-5.22-2.49-10.39-5.14-15.13-8.48-8.51-5.91-17.66-11.68-23.22-20.71-3.25-5.49-6.73-10.94-8.66-17.06 3.39 1.6 6.18 4.17 8.62 6.99-1.05-5.63-1.25-11.41.23-16.99 3.33 5.5 6.42 11.24 10.93 15.89 4.93 5.41 11.53 8.84 18.04 11.97 5.88 2.69 12.02 5.33 18.6 5.43 4.32-18.91 5.16-39.5-2.79-57.59.27-1.34.51-2.72 1.14-3.94Z"/><path fill="#b2ccc6" d="M726.6 252.26c16.11 4.87 28.54 16.83 41.42 27.07-2.29 6.66-5.95 12.82-10.59 18.11-4.89 5.75-11.68 9.38-18.35 12.67-4.72 2.07-9.49 4.18-14.53 5.34-1.5.18-3.3.69-4.63-.23-4.51-17.09-4.73-35.59.85-52.45 1.11-3.92 3.54-7.21 5.83-10.51m9.56 23.13c-2.97 1.13-5.76 2.72-8.37 4.5-2.13 1.25-1.43 4.08-1.1 6.07 1.04 4.01 2.24 8.22 4.95 11.46 2.5 2.02 5.24-1.1 6.92-2.83 3.23-5.02 6.27-10.83 5.92-16.95-2.54-1.36-5.45-2.09-8.32-2.25Z"/><g fill="#8ba79c"><path d="M959.66 260.8c1.37 1.07 2.1 2.67 2.44 4.36-1.9-.58-3.02-2.44-2.44-4.36ZM831.68 445.76c5.99 5.07 11.03 11.1 15.87 17.25-5.2 4.72-10.87 8.9-17.08 12.19-.06-9.82-.05-19.68 1.21-29.44Z"/></g><path fill="#0f090b" d="M818.73 265.98c2.1-1.02 4.2-2.03 6.31-3.05 35.3 44.95 61.47 97.16 75.62 152.57 17.4 66.86 18.12 138.03 1.7 205.15-20.65 85.89-70.16 164.26-137.95 220.75-34.31 28.5-73.14 51.53-114.7 67.72-5.71-.94-11.47-1.51-17.23-2.01 43.35-15.37 84.26-37.7 120.26-66.36 20.61-15.99 38.9-34.69 56.34-54 2.05-2.36 3.81-4.98 5.23-7.75 4.71-3.59 7.77-8.76 11.34-13.37 41.1-54.67 67.8-119.87 77.77-187.48 5.22-35.46 5.49-71.59 1.29-107.17-9.2-74.47-39.21-146.31-85.98-205Z"/><path fill="#070505" d="M225.34 272.46c3.86-2.3 8.27-.12 12.11 1.1-.6 1.33-1.18 2.66-1.81 3.98-1.03 1.49-1.16 3.27-1.03 5.02-1.48 5.58-1.28 11.36-.23 16.99-2.44-2.82-5.23-5.39-8.62-6.99-.39-1.15-.78-2.29-1.16-3.43-10.89 11.21-20.45 23.75-28.15 37.36-8.13 14.11-12.46 30.25-12.77 46.52-.05 12.94-.1 25.87.05 38.81-.07 1.49-.2 2.99-.33 4.49 4.55.37 9.11 1.04 13.68.76 2.51-.08 4.39-1.9 6.31-3.27 2.15.23 4.62 1.61 6.63.22 5.5-3.7 9.81-9.11 15.86-12.02 4.64-1.69 9.69-.81 14.5-.58.8 2.59 1.62 5.18 2.47 7.77-8.36 7.46-17.79 13.57-27.41 19.26-8.68 4.98-18.15 8.35-26.81 13.35-.5 4.38.56 8.78.31 13.18.65 10.56.57 21.16-.21 31.71-.9 5.07-2.93 9.96-5.81 14.21-1.75 2.77-5.39 2.28-7.98 1.17-10.25-4.12-19.98-9.54-28.71-16.31-8.19-5.3-14.09-13.75-16.91-23.01-1.08-3.69 1.05-7.31 3.95-9.45 10.51-9.77 21-19.99 34.11-26.23-2.88-10.45-1.17-21.39-1.65-32.07.66-14.59.87-29.37 4.44-43.61 6.14-23.28 19.29-44.16 35.4-61.83 3.25-3.19 6.29-6.58 9.39-9.92 2.15-.21 4.3-.42 6.45-.65.78-2.42 1.38-5.35 3.93-6.53m-70.81 190.57c5.13 4.81 11.02 8.65 16.98 12.32.15-9.92-.09-19.85-1.18-29.71a120.64 120.64 0 0 0-15.8 17.39Z"/><path fill="#090915" d="M265.19 275.5c3.08.38 5.7 2.46 8.38 3.92 3.18 1.63 2 5.59 1.3 8.3-1.18 3.56-2.23 7.57-5.13 10.15-2.35 1.15-4.14-1.56-5.84-2.8-3.4-4.33-5.68-9.63-6.47-15.09-.83-4.26 4.96-3.93 7.76-4.48Z"/><path fill="#050915" d="M736.16 275.39c2.87.16 5.78.89 8.32 2.25.35 6.12-2.69 11.93-5.92 16.95-1.68 1.73-4.42 4.85-6.92 2.83-2.71-3.24-3.91-7.45-4.95-11.46-.33-1.99-1.03-4.82 1.1-6.07 2.61-1.78 5.4-3.37 8.37-4.5Z"/><path fill="#303030" opacity=".57" d="M50.9 291.34c-.06-1.8.7-3.51 2.17-4.57.38 1.85-.46 3.71-2.17 4.57Z"/><path fill="#87a6a5" d="M196.45 326.49c7.7-13.61 17.26-26.15 28.15-37.36.38 1.14.77 2.28 1.16 3.43 1.93 6.12 5.41 11.57 8.66 17.06 5.56 9.03 14.71 14.8 23.22 20.71 4.74 3.34 9.91 5.99 15.13 8.48-2.91 5.6-6.25 10.96-9.61 16.3-8.34 13.01-19.29 24.07-30.57 34.52-14.2 11.67-30.62 21.25-48.67 25.39-.05-.8-.14-2.4-.19-3.2-.15-12.94-.1-25.87-.05-38.81.31-16.27 4.64-32.41 12.77-46.52Z"/><path fill="#88a7a7" d="M767.67 309.65c3.92-6.54 7.72-13.23 10-20.55 11.11 11.92 21.05 24.97 28.9 39.27 4.52 9.17 8.73 18.66 10.16 28.87 2.18 11.13 1.41 22.5 1.54 33.76-.07 8 .37 16.03-.68 23.98-20.21-4.89-38.13-16.37-53.54-30.04-7.52-7.84-15.32-15.5-21.54-24.46-4.97-6.89-9.39-14.17-13.24-21.74 7.96-3.42 15.24-8.16 22.26-13.21 5.96-4.64 12.11-9.35 16.14-15.88Z"/><path fill="#303132" opacity=".62" d="M980.05 300.75c.97 2.18 1.93 4.37 2.89 6.57a272.7 272.7 0 0 1-2.89-6.57Z"/><path fill="#353636" opacity=".61" d="M40.97 313.32c-.15-1.81.61-3.52 2.03-4.64.43 1.85-.36 3.71-2.03 4.64Z"/><path fill="#333" opacity=".58" d="M35.97 325.23c-.35-1.79.85-3.29 2.03-4.46.2 1.69-.07 3.95-2.03 4.46Z"/><path fill="#2d2d2d" opacity=".39" d="M34 330.02c-.47-1.68.35-3.54 2-4.18.27 1.65-.5 3.39-2 4.18Z"/><path fill="#393939" opacity=".55" d="M33.05 333c.26-.54.79-1.63 1.05-2.17-.26.54-.79 1.63-1.05 2.17Z"/><path fill="#303032" opacity=".38" d="M992.95 331.71c1.62 1.39 2.35 3.47 2.01 5.58-1.58-1.43-2.35-3.47-2.01-5.58Z"/><path fill="#353537" opacity=".51" d="M997.96 345.9c1.17.76 1.54 1.82 1.11 3.17-1.24-.76-1.61-1.82-1.11-3.17Z"/><path fill="#343434" opacity=".58" d="M26.06 353.17c-.38-2.07.42-4.05 1.84-5.54.52 2.08-.18 4.19-1.84 5.54Z"/><path fill="#323334" opacity=".55" d="M999.91 351.87c1.59 1.7 2.3 3.97 2.15 6.29-1.85-1.58-2.62-3.93-2.15-6.29Z"/><path fill="#353535" opacity=".53" d="M25.04 355.95c.26-.53.77-1.6 1.03-2.13-.26.53-.77 1.6-1.03 2.13Z"/><path fill="#353535" opacity=".64" d="M21.99 366.26c.75-3.22 1.73-6.38 2.86-9.48-.46 3.29-1.45 6.47-2.86 9.48Z"/><path fill="#3c3d3e" opacity=".5" d="M1004.14 364.89c.21.56.64 1.68.85 2.24-.21-.56-.64-1.68-.85-2.24Z"/><path fill="#363637" opacity=".49" d="M1004.86 367.95c1.21.7 1.62 1.73 1.24 3.1-1.27-.7-1.68-1.74-1.24-3.1Z"/><path fill="#303030" opacity=".6" d="M19.02 376.1c-.12-2.29.47-4.55 1.9-6.36.71 2.35-.03 4.77-1.9 6.36Z"/><path fill="#3c3c3e" opacity=".56" d="M1005.99 371.88Z"/><path fill="#343535" opacity=".52" d="M1006.89 374.91c1.22.72 1.62 1.76 1.2 3.13-1.24-.73-1.64-1.77-1.2-3.13Z"/><path fill="#333" opacity=".55" d="M15.14 391.35c.67-5.02 2.02-9.9 3.73-14.66a61.3 61.3 0 0 1-3.73 14.66Z"/><path fill="#393939" opacity=".46" d="M1007.96 378.86Z"/><path fill="#303031" opacity=".42" d="M1010.02 385.74c.62 2.51 1.22 5.02 1.8 7.55-.62-2.52-1.22-5.03-1.8-7.55Z"/><path fill="#383838" opacity=".64" d="M13.91 396.12c-.49-1.3-.19-2.36.9-3.2.62 1.33.32 2.39-.9 3.2Z"/><path fill="#3b3c3c" opacity=".53" d="M1012.21 394.99Z"/><path fill="#393a3a" opacity=".58" d="M13.03 400.07c-.5-1.36-.16-2.42 1.03-3.18.5 1.32.15 2.38-1.03 3.18Z"/><path fill="#100b05" d="M688.83 400.73c8.61-4.01 19.25-5.65 28.13-1.62 5.59 6.73 9.37 14.81 13.35 22.56 14.7 34.91 29.93 69.65 42.73 105.32 4.01 10.81 7.02 21.98 10.99 32.77 8.45 4.29 17.45 7.61 25.52 12.7 17.3 10.81 33.23 23.95 46.76 39.24 4.64 6 10.44 12.25 10.59 20.29.5 5.57-3.73 9.95-6.88 14.05-12.76 14.8-23.25 31.35-35.16 46.81-3.97 5.67-8.96 10.91-11.65 17.3.67 13.27 1.82 26.54 1.62 39.85-.18 9.66.64 19.37-.52 29a38.912 38.912 0 0 1-5.23 7.75c.73-30.31-.51-60.67-4.17-90.78-2.02-10.55-2.06-21.41-5-31.8-1.85-6.28-1.84-12.87-3.11-19.25-2.65-12.98-5.38-25.96-8.84-38.75-3.1-9.33-4.7-19.08-7.74-28.43-1.93-5.89-3.33-11.94-5.08-17.88-6.71-19.71-13.36-39.46-21.3-58.71-7.73-19.4-16.11-38.52-24.3-57.72-4.82-11.29-10.23-22.45-13.06-34.46.1 9.98.96 20.13-1.26 29.97-2.44 12.83-5.88 25.44-8.11 38.31-1.53 8.64-4.22 17.07-4.85 25.87a30.69 30.69 0 0 1-3.74 13.09c-3.93-1.02-6.03-5.25-5.31-9.1 1.79-14.36 5.77-28.31 8.67-42.46 5.06-19.92 11.83-40.29 8.68-61.11-4.53.37-9.15.83-13.36 2.64-8.18 3.1-14.52 9.38-20.7 15.33-6.1 6.36-11.87 13.04-17.2 20.06-1.66-2.28-3.13-4.85-5.51-6.46-2.27.32-4.34 1.43-6.37 2.43 4.36-5.63 9.39-10.68 14.48-15.66 7.93-8.23 16.74-15.84 26.93-21.15m99.08 173.01c1.53 6.12 3.29 12.18 4.84 18.29.77 3.28 4.22 4.63 6.61 6.59 17.59 12.87 35.1 27.08 46.24 46.18 3.26-4.11 6.36-8.38 10.09-12.09 1.67-1.82 4.24-2.02 6.51-2.56-1.8-3.5-4.06-6.75-6.76-9.6-6.95-7.08-13.92-14.19-21.86-20.18-13.99-10.76-28.97-20.61-45.67-26.63m9.01 35.54c1.55 5.28 2.31 10.75 3.96 16 1.57 10.63 4.25 21.09 5.81 31.74.15 4.04 3.72 6.39 6.25 9.05 3.67 3.42 6.44 7.63 9.5 11.58l1.15-.12c5.81-8.88 12.08-17.59 17.42-26.72l.81-.01.43-.83-.49-.8-.82.05c-.17-1.59-1.31-2.79-2.18-4.02-8.02-10.13-17.47-19.32-28.38-26.25-3.98-3.9-8.97-6.46-13.46-9.67m12.21 63.65c.79 7.45 1.9 14.86 2.6 22.33 2.66-3.7 5.09-7.55 7.58-11.36-2.98-4.03-6.44-7.66-10.18-10.97Z"/><path fill="#363636" opacity=".52" d="M1012.83 399.07c1.31.54 1.72 1.55 1.22 3.02-1.17-.73-1.58-1.74-1.22-3.02Z"/><path fill="#110b07" d="M303.44 401.42c4.94-1.89 10.34-2.22 15.58-1.88 9.34.95 17.59 5.97 24.98 11.44 15.65 12.46 29.35 27.24 41.03 43.46-3.54 2.58-6.75 5.58-9.61 8.88-11.07-17.33-24.14-33.54-39.72-47.02-7.7-6.72-17.78-10.53-28.05-9.98-1.08 7.79.4 15.64.68 23.44.48 12.95 3.61 25.57 5.73 38.3 1.98 12.61 3.99 25.22 5.06 37.94.07 2.54.49 5.25-.56 7.66-1.46 1.84-2.9-.08-4.05-1.16-1.89-1.82-1.48-4.69-1.89-7.05-1.72-18.76-4.47-37.41-7.47-56.01-1.89-10.89-1.56-21.96-2.27-32.94-5.23 14.84-11.53 29.28-17.57 43.8-9.27 22.63-18.61 45.25-26.74 68.32-12.75 36.68-22.94 74.25-30.58 112.32-10.68 54.29-14.73 109.93-11.1 165.15.36 4.18-.17 8.54 1.13 12.59 1.91 2.46 4.4 4.39 6.69 6.48-2 .51-4.24 2.09-6.25.82-3.28-1.82-5.83-4.66-8.55-7.18.83-1.76 1.67-3.52 2.39-5.32-1.09-19.14-2.83-38.28-2.51-57.48-.29-5.38.57-10.92-.71-16.19-3.28-6.98-8.08-13.1-12.48-19.4-7.14-10.47-14.29-20.93-21.99-31-11.07-14.61-21.13-30.01-33.06-43.96-3.04-3.89-6.98-8.09-6.53-13.41.25-8.33 6.36-14.66 11.14-20.9 6.5-7.15 13.36-14.01 20.84-20.13 11.26-9.43 23.23-18.2 36.56-24.5 9.73-4.53 19.56-8.97 29.81-12.22 2.51-.99 5.18-.33 7.75-.03 11.51-38.58 26.96-75.8 42.15-113.03 3.62-8.64 6.72-17.53 11.31-25.73 2.72-4.81 5.11-9.97 8.86-14.08m-92.37 173.5c-19.74 7.74-37.08 20.36-53.02 34.13-6.53 6.64-13.73 12.84-18.4 21.02 8.22.87 11.75 9.16 16.66 14.63 11.4-18.87 28.68-33.26 46.32-46.07 7.57-5.65 15.51-10.84 24.03-14.92 1.99-1.08 4.27-.93 6.45-.95 1.5-5.44 3.29-10.92 3.12-16.63-8.71 1.94-16.91 5.51-25.16 8.79M198.02 614c-7.29 5.46-15.22 10.28-21.28 17.17-1.8.42-2.87 2.2-4.21 3.35-4.48 4.93-9.08 9.85-12.54 15.58 6.61 9.27 12.59 18.96 19.09 28.31 8.82-13.74 22.46-23.12 33.81-34.53 1.91-1.57 4.51.11 6.68.19.6-3.9 1.9-7.74 1.91-11.71 2.82-11.89 5.13-23.91 8.09-35.78-11.58 3.58-21.6 10.72-31.55 17.42m1.52 53.55c-6.26 4.71-12.31 9.89-16.77 16.4 2.4 3.58 4.43 7.44 7.26 10.71l.13.81.87.28c.13-.35.38-1.06.51-1.42 2.51-2.5 3.98-5.82 6.35-8.42 3.92-4.41 8.24-8.43 12.36-12.64 1.36-1.53 3.29-2.19 5.18-2.77.82-4.96 1.48-9.93 2.06-14.91-6.42 3.29-12.17 7.68-17.95 11.96m-5.67 34.38c5.92 8.79 10.7 18.26 16.11 27.36 1.13-14.53 2.05-29.09 3.5-43.59-7.88 3.58-13.85 9.98-19.61 16.23Z"/><path fill="#363636" opacity=".46" d="M1013.94 402.95c1.15.69 1.58 1.69 1.3 2.99-1.37-.52-1.8-1.52-1.3-2.99Z"/><path fill="#efd7cf" d="M697.2 406.18c4.21-1.81 8.83-2.27 13.36-2.64 3.15 20.82-3.62 41.19-8.68 61.11-2.9 14.15-6.88 28.1-8.67 42.46-.72 3.85 1.38 8.08 5.31 9.1a30.69 30.69 0 0 0 3.74-13.09c.63-8.8 3.32-17.23 4.85-25.87 2.23-12.87 5.67-25.48 8.11-38.31 2.22-9.84 1.36-19.99 1.26-29.97 2.83 12.01 8.24 23.17 13.06 34.46 8.19 19.2 16.57 38.32 24.3 57.72 7.94 19.25 14.59 39 21.3 58.71 1.75 5.94 3.15 11.99 5.08 17.88 3.04 9.35 4.64 19.1 7.74 28.43 3.46 12.79 6.19 25.77 8.84 38.75 1.27 6.38 1.26 12.97 3.11 19.25 2.94 10.39 2.98 21.25 5 31.8 3.66 30.11 4.9 60.47 4.17 90.78-17.44 19.31-35.73 38.01-56.34 54-36 28.66-76.91 50.99-120.26 66.36-24.93 8.39-50.55 14.92-76.64 18.5-79.01 11.51-161.23-1.07-233.31-35.4-35.52-16.84-68.5-38.88-97.82-65.05-2.29-2.09-4.78-4.02-6.69-6.48-1.3-4.05-.77-8.41-1.13-12.59-3.63-55.22.42-110.86 11.1-165.15 7.64-38.07 17.83-75.64 30.58-112.32 8.13-23.07 17.47-45.69 26.74-68.32 6.04-14.52 12.34-28.96 17.57-43.8.71 10.98.38 22.05 2.27 32.94 3 18.6 5.75 37.25 7.47 56.01.41 2.36 0 5.23 1.89 7.05 1.15 1.08 2.59 3 4.05 1.16 1.05-2.41.63-5.12.56-7.66-1.07-12.72-3.08-25.33-5.06-37.94-2.12-12.73-5.25-25.35-5.73-38.3-.28-7.8-1.76-15.65-.68-23.44 10.27-.55 20.35 3.26 28.05 9.98 15.58 13.48 28.65 29.69 39.72 47.02 6.58 10.21 12.72 20.71 19.51 30.79 1.51 2.31 3.46 4.5 6.09 5.52 4.71-1.02 8.87-3.63 13.49-4.91 12.42-2.71 25.17-3.04 37.79-4.14 12.24-.77 24.41-2.82 36.71-2.44 7.34.1 14.67.92 22.02.38 8.34.62 16.63-.91 24.97-.84 6.68-.1 13.32.76 19.99 1.16 15.43 1.41 30.98 1.55 46.33 3.75 6.3.75 11.96 3.75 17.84 5.91 6.07-3.56 8.71-10.31 12.41-15.93 8.8-13.74 16.56-28.19 26.73-41 5.33-7.02 11.1-13.7 17.2-20.06 6.18-5.95 12.52-12.23 20.7-15.33M408.34 571.14c-3.14.66-6.3 1.54-8.99 3.34-3.7 2.2-5.88 6.04-8.79 9.08-6.52 6.68-9.92 16.12-9.72 25.41.15 6.33-.55 12.75.96 18.97 1.79 6.91 4.75 14.31 11.32 17.97 5.64 2.96 12.32.79 17.25-2.59 8.5-5.26 13.83-14.25 17.71-23.2 4.32-10.19 3.07-21.38 3.28-32.13-1.42-6.76-4.56-14.41-11.53-17.02-3.75-1.04-7.75-.65-11.49.17m177.06.19c-5.27 2.59-8.14 8.15-9.79 13.54-1.36 4.59-.68 9.42-.76 14.13-.25 8.77.99 17.89 5.39 25.62 3.98 7.04 8.25 14.5 15.55 18.58 4.95 3.71 12.12 5.8 17.77 2.41 5.86-3.19 8.28-9.83 10.36-15.76 2.45-7.06 1-14.58 1.43-21.87.31-8.13-2.93-16.13-7.82-22.51-4.39-3.99-6.96-10.14-12.87-12.24-6.04-2.22-12.97-4.16-19.26-1.9m107.96 57.79c-5.55.76-11.32 1.18-16.41 3.73-4.92 2.45-10.08 4.45-14.74 7.38-3.5 2.16-5.37 5.96-8.08 8.91-2.15 2.56-5.06 4.79-5.78 8.24-.96 4.24-1.4 8.91.35 13.01 3.33 6.58 10.1 10.1 16.12 13.8 6.44 3.78 13.53 7.17 21.16 7.11 9.67.49 19.12-2.18 28.21-5.15 8.04-3.96 17.56-7.61 21.4-16.41.74-7.36-.47-14.92-3.46-21.69-1.76-3.84-2.41-8.59-5.99-11.26-3.18-2.38-6.76-4.13-10.35-5.76-7-3.22-14.97-2.76-22.43-1.91m-383.98 3.26c-6.71.7-13.08 3.08-19.26 5.66-4.03 1.6-8.16 3.89-10.15 7.94-3.51 6.79-1.35 14.67.38 21.65 1.31 5.89 6.71 9.29 10.28 13.74 5.29 6.77 12.55 11.59 19.55 16.4 9.82 3.8 20.77 3.44 31.02 1.74 4.36-.59 7.72-3.64 11.28-5.95 2.94-2.07 6.59-3.91 7.58-7.69 2.33-7.3 5.35-14.86 3.99-22.67-.84-5.29-1.27-10.82-3.61-15.7-2.57-3.49-6.67-5.38-10.09-7.9-4.43-3.21-9.82-4.44-14.98-5.94-8.4-2.64-17.35-2.04-25.99-1.28m198.04 30.18c-2.99 2.25-5.23 5.36-8.32 7.51-6.8 4.94-14.38 8.87-22.38 11.49-7.45 2.79-15.56 2.9-23.17 5.01-1.68 1.31-3.58 3.04-3.42 5.38.47 5.28 4.5 10.45 9.88 11.27 5.13-.06 9.85-2.5 14.83-3.47 4.87 9.03 10.72 18.55 20.25 23.25 7.2 3.23 15.26 2.32 22.92 2.4 7.34-.38 14.56-3.34 19.53-8.85 4.59-5.28 8.71-11.02 11.81-17.31 4.25.98 8.39 2.43 12.69 3.23 3.91.91 7.23-2.12 9.51-4.92 1.79-2.84 3.49-7.1.75-9.91-2.44-2.84-6.46-2.78-9.86-3.32-17.08-1.98-34-9.1-45.96-21.69-2.96-.58-6.09-.58-9.06-.07m90.37 60.95c-6.79 2.17-12.55 6.77-17.88 11.37-6.6 5.6-10.28 13.58-14.03 21.17-2.89 6.24-3.53 13.2-3.78 19.98.36 19.01 5.06 37.53 9.11 56.01 3.05 15.53 6.2 31.04 8.97 46.62 1.21 3.98 3.13 8.05 6.25 10.88 2.34.74 3.78-1.75 4.9-3.36 1.35-3.08 2.97-6.41 2.24-9.86-3.31-21.9-7.54-43.68-12.85-65.18-2.87-12.86-6.17-25.86-5.51-39.14-.75-7.9 3.42-14.96 7.4-21.4 3.13-5.14 8-8.84 12.94-12.1 6.04-4.01 13.29-5.36 20.21-7.05 13.34-2.14 27.64 1.95 37.37 11.43 6.53 6.22 10.51 14.49 14.6 22.4 9.46 17.29 17.18 35.51 23.64 54.12 3.6 10.79 6.75 21.75 10.92 32.34 1.18 2.38 1.92 5.55 4.65 6.65 2.24-1.61 3.13-4.77 2.11-7.32-3.26-11.56-5.87-23.29-9.4-34.78-7.21-25.67-18.57-50-31.91-73.02-8.03-13.64-22.81-22.97-38.64-24.01-10.59-.93-21.41.25-31.31 4.25m-214.61-.13c-12.2 4.08-22.03 13.55-27.99 24.8-10.57 19.61-20.06 39.91-26.66 61.24-4.63 14.65-7.69 29.71-11.66 44.54-.9 2.34.48 4.55 1.37 6.65.57 0 1.71-.02 2.28-.03 1.95-3.54 3.83-7.15 4.94-11.06 3.4-9.81 6.05-19.86 9.44-29.68 6.09-18.88 14.16-37.06 23.3-54.64 4.52-9.48 9.78-19.33 18.91-25.12 8.99-6.46 20.56-8.76 31.43-7.23 8.71 1.79 17.86 3.84 24.79 9.81 7.57 5.42 12.54 13.78 15.65 22.41 3.01 19.39-2.48 38.66-6.63 57.46-3.82 18.39-7.14 36.9-9.71 55.51-.44 4.61 2.34 8.69 4.76 12.37 1.07.05 2.14.12 3.23.19 1.94-3.13 4.21-6.18 5.28-9.74 3.49-20.34 7.07-40.68 11.33-60.88 3.22-16.42 6.75-33.15 5.18-49.97-.7-8.51-4.69-16.24-9-23.43-2.47-4.33-5.58-8.34-9.51-11.44-5.12-4.07-10.39-8.25-16.67-10.35-14.04-5-29.8-6.24-44.06-1.41m254.22 20.15c-2.53.48-5 2.72-4.69 5.48.1 4.5 1.5 9.23 4.87 12.38 1.65 1.51 3.77 3.53 6.21 2.51 5.14-1.3 7.66-6.69 8.61-11.46.45-1.91-.41-3.79-1.5-5.29-2.86-4.38-8.92-4.12-13.5-3.62m-22.12.51c-1.79.46-3.6 1.11-5.01 2.33-1.82 2.35-.79 5.52.06 8.05 1.17 3.16 2.86 7.06 6.68 7.52 3.64-1.35 6.18-4.65 8.14-7.86 1.77-2.64.94-6.09-.5-8.65-2.34-2.55-6.32-2.04-9.37-1.39m-236.47 5.71c-4.95 2.33-4.21 9.11-1.61 12.96 1.8 3.36 6.96 3.78 9.16.6 3.46-3.08 3.57-7.86 3.44-12.14-3.37-1.74-7.33-3.47-10.99-1.42m24.6-.26c-1.76.65-2.02 2.97-2.25 4.6-.74 5.17 3.54 9.52 7.81 11.66 3.18-.81 6.57-2.8 7.63-6.08.41-2.81-.79-5.65-2.43-7.86-2.52-3.14-7.16-3.63-10.76-2.32m191.01 2.88c-3.04.11-6.54 1.21-7.6 4.39-1.32 4.36 1.14 9.16 4.66 11.77 1.34.83 3.33 2.25 4.66.65 3.73-3.2 7.9-8.48 5.27-13.58-1-2.89-4.3-3.59-6.99-3.23m-169.36 6.65c-.08 3.9-.38 8 1.21 11.69.97 2.3 2.51 5.53 5.58 4.48 2.83-1.95 4.76-4.96 6.19-8.03 1.24-2.98 1.23-7.56-2.28-8.95-3.43-1.94-7.29-.22-10.7.81m191.32 8.55c-7.52 1.25-13.53 8.01-14.17 15.56-.15 6.51 2.05 13.24 7.01 17.65 4 5.09 10.05 8.82 16.71 8.52 5.68-.55 9.84-4.91 13.53-8.84 4.4-4.47 6.02-10.83 7-16.83.09-5.32-2.82-11.13-7.95-13.18-6.87-3.13-14.72-3.36-22.13-2.88m-228.96 2.12c-3.16.41-6.08 2.2-7.7 4.97-3.7 5.27-2.59 12.1-2.16 18.12.68 7.3 6.71 12.33 12.05 16.59 3.7 3.24 8.92 2.1 13.41 2.33 2.93-.22 6.5.44 8.73-1.95 2.67-2.68 4.97-5.71 7.47-8.55 3.57-3.88 3.63-9.47 4.33-14.39 1.04-5.15-2.74-9.67-6.55-12.57-9.26-4-19.51-6.24-29.58-4.55Z"/><path fill="#383a39" opacity=".5" d="M10.78 409.05c-.59-1.49.22-2.98 1.27-3.99.32 1.39.4 3.42-1.27 3.99Z"/><path fill="#393a3b" opacity=".61" d="M1014.82 409.06c1.34.55 1.76 1.57 1.26 3.06-1.14-.75-1.57-1.77-1.26-3.06Z"/><path fill="#393b3a" opacity=".58" d="M9.86 413.88c-.4-1.38.04-2.31 1.32-2.77.42 1.36-.02 2.29-1.32 2.77Z"/><path fill="#38393a" opacity=".49" d="M1015.91 413.08c1.25.47 1.71 1.38 1.38 2.75-1.35-.43-1.81-1.34-1.38-2.75Z"/><path fill="#373838" opacity=".56" d="M8.95 420.2a6.535 6.535 0 0 1 1.04-5.49c.67 1.89.24 3.95-1.04 5.49Z"/><path fill="#393a3c" opacity=".61" d="M1016.86 419.16c1.34.49 1.75 1.42 1.23 2.82-1.21-.56-1.62-1.5-1.23-2.82Z"/><path fill="#393939" opacity=".53" d="M7.75 424.84c-.41-1.4.05-2.31 1.39-2.74.34 1.38-.13 2.29-1.39 2.74ZM6.84 429.86c-.38-1.38.07-2.29 1.34-2.74.42 1.38-.02 2.29-1.34 2.74Z"/><path fill="#383a3c" opacity=".6" d="M1019.02 429.8c1.2 1.13 1.5 2.82.97 4.37-1.22-1.15-1.59-2.84-.97-4.37Z"/><path fill="#363636" opacity=".44" d="M6.13 436.2c-.6-1.55-.28-3.28.97-4.4.55 1.54.17 3.21-.97 4.4Z"/><path fill="#0d0504" d="M647.42 437.54c2.03-1 4.1-2.11 6.37-2.43 2.38 1.61 3.85 4.18 5.51 6.46-10.17 12.81-17.93 27.26-26.73 41-3.7 5.62-6.34 12.37-12.41 15.93-5.88-2.16-11.54-5.16-17.84-5.91-15.35-2.2-30.9-2.34-46.33-3.75-6.67-.4-13.31-1.26-19.99-1.16-8.34-.07-16.63 1.46-24.97.84-7.35.54-14.68-.28-22.02-.38-12.3-.38-24.47 1.67-36.71 2.44-12.62 1.1-25.37 1.43-37.79 4.14-4.62 1.28-8.78 3.89-13.49 4.91-2.63-1.02-4.58-3.21-6.09-5.52-6.79-10.08-12.93-20.58-19.51-30.79 2.86-3.3 6.07-6.3 9.61-8.88 3.35 4.81 6.87 9.49 10.31 14.24 3.34 4.94 9.28 6.8 14.14 9.82 5.47 2.76 10.77 7.53 17.33 6.55 8.46-1.43 16.96-2.6 25.49-3.51 14.2-1.43 28.39-4.75 42.72-3.26 7.67.59 15.33-1.04 22.99-.07 9.01-.09 18.05-1.21 27.06-.14 12.18 1.4 24.36 2.75 36.54 4.12 5.09.5 10.11 1.79 15.24 1.67 5.77-.35 10.29-4.31 15.18-6.92 4.83-2.99 10.59-5.12 13.83-10.07 7.11-9.83 13.81-19.98 21.56-29.33Z"/><path fill="#383a3d" opacity=".61" d="M1020.14 435.74c1.13 1.57 1.35 3.57.78 5.42-1.25-1.55-1.53-3.59-.78-5.42Z"/><path fill="#383a3c" opacity=".51" d="M1021.13 441.78c1.13 1.61 1.36 3.63.74 5.49-1.2-1.6-1.45-3.65-.74-5.49Z"/><path fill="#383838" opacity=".49" d="M4.05 452.31c-.57-2.54-.41-5.2.86-7.5.61 2.53.46 5.2-.86 7.5Z"/><path fill="#0a0707" d="M90.91 445.31c1.64.46 3.28.93 4.93 1.4-11.54 62.75-8.19 128.18 9.86 189.39-2.2 2.2-4.72 4.03-7.43 5.54C80.36 582.43 75.55 519.14 85.2 458c4.46-2.7 5.02-8.03 5.71-12.69Z"/><path fill="#383a39" opacity=".48" d="M1022.09 448.75c1.2 1.97 1.42 4.32.76 6.52-1.2-1.98-1.41-4.32-.76-6.52Z"/><path fill="#363636" opacity=".58" d="M3.11 461.3c-.59-2.56-.44-5.23.72-7.6.73 2.55.54 5.24-.72 7.6Z"/><path fill="#363637" opacity=".46" d="M1023.17 457.74c1.2 2.29 1.36 4.9.66 7.38-1.23-2.29-1.39-4.91-.66-7.38Z"/><path fill="#363636" opacity=".47" d="M2.15 470.13c-.68-2.5-.5-5.13.72-7.43.67 2.49.54 5.13-.72 7.43Z"/><path fill="#0f0a01" d="M213.69 464.71c5.52-2.08 11.54-1.06 17.28-1.69 4.48.17 9.71-.5 13.35 2.7 2.53 1.95 1.14 5.49.66 8.07-3.22 8.41-8.75 15.71-12.23 24.01-2.55 5.71-4.66 11.89-9.14 16.43-2.03-.72-4.11-1.31-6.2-1.86-2.27-5.82-1.92-12.15-2.73-18.24-.91-8.05-1.31-16.14-1.99-24.2-.07-1.77-.34-3.82 1-5.22m6.9 9.47c.1 7.03.32 14.07.93 21.09 3.9-7.15 8.66-13.81 12.18-21.15-4.37-.38-8.75-.15-13.11.06Z"/><path fill="#100509" d="M761.48 463.76c4.44-1.05 9.04-1.01 13.55-.51 4.4.45 9.09-.42 13.26 1.47 1.82 1.56.83 4.16.9 6.23-.63 12.35-2.08 24.64-3.13 36.96-.55 1.83-.97 4.5-3.19 4.96-2.04.63-4.81 1.88-6.24-.47-4.39-5.82-6.26-13.03-9.64-19.4-3.26-6.1-7.03-11.96-9.68-18.36-.57-2.83-2.46-6.76.48-8.88 1.06-.93 2.32-1.64 3.69-2m6.83 10.37c3.6 7.2 7.98 14 12.32 20.77.23-6.95.78-13.89.77-20.85-4.37.05-8.73-.02-13.09.08Z"/><path fill="#3a3a3b" opacity=".57" d="M1024.23 469.58c.31 2.91.52 5.83.7 8.76-.31-2.92-.53-5.84-.7-8.76Z"/><path fill="#ceaeb1" d="M768.31 474.13c4.36-.1 8.72-.03 13.09-.08.01 6.96-.54 13.9-.77 20.85-4.34-6.77-8.72-13.57-12.32-20.77Z"/><path fill="#353537" opacity=".75" d="M1025.17 481.71c1.1 9.73.88 19.52.98 29.29-.06 11.39.18 22.82-1.1 34.17-.15-7.4-.24-14.79.15-22.17.61-13.76-.71-27.53-.03-41.29Z"/><path fill="#3c3c3c" opacity=".55" d="m0 498.03.46-1.2c.81 7.36.27 14.77.47 22.16.13 4.77.18 9.55-.45 14.28l-.48-1.2v-34.04Z"/><path fill="#0e0703" d="M131.4 522.6c5.38-1.34 11.52.86 13.94 6.05 5.06 10.32 6.08 21.98 9.08 32.96 1.37 5.67 3.02 11.83.88 17.51-.76 2.26-1.43 4.6-2.73 6.64-1.29.74-2.89.85-4.12-.06-5.63-2.95-10.65-6.9-16.23-9.94-5-3-10.23-5.66-15.03-8.99-5.28-3.61-8.67-10.59-6.61-16.9 1.47-8.97 5.99-17.41 13-23.25 2.32-1.81 4.89-3.46 7.82-4.02m1.15 12.9c-2.61 1.67-4.86 3.86-6.75 6.3-2.71 3.52-3.26 8.06-4.25 12.26 6.99 6.78 15.36 11.89 23.28 17.48-1.18-7.2-2.76-14.33-4.01-21.52-1.02-5.06-1.96-10.24-4.18-14.94-1.28-.84-2.97-.55-4.09.42Z"/><path fill="#0e0905" d="M863.46 522.58c4.28-.61 8.94-.24 12.55 2.37 10.07 6.43 15.08 18.42 16.13 29.96-.78 3.7-2.25 7.49-5.16 10.05-3.97 3.6-8.89 5.85-13.44 8.57-6.6 3.69-12.8 8.04-19.35 11.8-1.61 1.05-4 1.56-5.27-.27-1.23-2.34-1.84-4.93-2.64-7.42-1.5-5.09.13-10.36 1.14-15.37 2.5-9.78 3.99-19.83 7.34-29.37 1.44-4.39 4.31-8.52 8.7-10.32m-1.44 23.57c-1.7 8.44-3.36 16.88-4.71 25.38 4.26-2.75 8.29-5.86 12.46-8.76 3.45-2.52 7.21-4.81 9.88-8.23.86-5.63-1.87-11.44-5.78-15.41-2.1-2.14-4.52-4.81-7.82-4.43-2.67 3.15-2.89 7.61-4.03 11.45Z"/><path fill="#d0aca9" d="M132.55 535.5c1.12-.97 2.81-1.26 4.09-.42 2.22 4.7 3.16 9.88 4.18 14.94 1.25 7.19 2.83 14.32 4.01 21.52-7.92-5.59-16.29-10.7-23.28-17.48.99-4.2 1.54-8.74 4.25-12.26 1.89-2.44 4.14-4.63 6.75-6.3Z"/><path fill="#cdaca6" d="M862.02 546.15c1.14-3.84 1.36-8.3 4.03-11.45 3.3-.38 5.72 2.29 7.82 4.43 3.91 3.97 6.64 9.78 5.78 15.41-2.67 3.42-6.43 5.71-9.88 8.23-4.17 2.9-8.2 6.01-12.46 8.76 1.35-8.5 3.01-16.94 4.71-25.38Z"/><path fill="#3a3a3a" opacity=".48" d="M1.22 542.63c.25 2.9.42 5.81.56 8.73-.29-2.91-.46-5.82-.56-8.73Z"/><path fill="#38383b" opacity=".53" d="M1024.17 557.47c.1-3.28.32-6.54.71-9.79-.08 3.27-.29 6.54-.71 9.79Z"/><path fill="#363636" opacity=".49" d="M2.12 555.64c.32 2.93.57 5.88.76 8.83-.32-2.94-.58-5.88-.76-8.83Z"/><path fill="#3b3b3d" opacity=".52" d="M1023.22 567.06c-.83-2.07-.66-4.35.63-6.18.67 2.07.51 4.3-.63 6.18Z"/><path fill="#373737" opacity=".53" d="M3.1 566.96c1.24 1.5 1.51 3.52.81 5.34-1.18-1.55-1.43-3.53-.81-5.34Z"/><path fill="#eed536" d="M211.07 574.92c8.25-3.28 16.45-6.85 25.16-8.79.17 5.71-1.62 11.19-3.12 16.63-2.18.02-4.46-.13-6.45.95-8.52 4.08-16.46 9.27-24.03 14.92-17.64 12.81-34.92 27.2-46.32 46.07-4.91-5.47-8.44-13.76-16.66-14.63 4.67-8.18 11.87-14.38 18.4-21.02 15.94-13.77 33.28-26.39 53.02-34.13Z"/><path fill="#303032" opacity=".45" d="M1021.23 583.41c.2-4.98.74-9.95 1.81-14.83-.13 4.99-.65 9.97-1.81 14.83Z"/><path fill="#060505" d="M408.34 571.14c3.74-.82 7.74-1.21 11.49-.17 6.97 2.61 10.11 10.26 11.53 17.02-.21 10.75 1.04 21.94-3.28 32.13-3.88 8.95-9.21 17.94-17.71 23.2-4.93 3.38-11.61 5.55-17.25 2.59-6.57-3.66-9.53-11.06-11.32-17.97-1.51-6.22-.81-12.64-.96-18.97-.2-9.29 3.2-18.73 9.72-25.41 2.91-3.04 5.09-6.88 8.79-9.08 2.69-1.8 5.85-2.68 8.99-3.34Z"/><path fill="#040600" d="M585.4 571.33c6.29-2.26 13.22-.32 19.26 1.9 5.91 2.1 8.48 8.25 12.87 12.24 4.89 6.38 8.13 14.38 7.82 22.51-.43 7.29 1.02 14.81-1.43 21.87-2.08 5.93-4.5 12.57-10.36 15.76-5.65 3.39-12.82 1.3-17.77-2.41-7.3-4.08-11.57-11.54-15.55-18.58-4.4-7.73-5.64-16.85-5.39-25.62.08-4.71-.6-9.54.76-14.13 1.65-5.39 4.52-10.95 9.79-13.54Z"/><path fill="#393939" opacity=".58" d="M4.11 573.76a7.66 7.66 0 0 1 .72 6.53c-1.15-2-1.33-4.33-.72-6.53Z"/><path fill="#b6d290" d="M787.91 573.74c16.7 6.02 31.68 15.87 45.67 26.63 7.94 5.99 14.91 13.1 21.86 20.18 2.7 2.85 4.96 6.1 6.76 9.6-2.27.54-4.84.74-6.51 2.56-3.73 3.71-6.83 7.98-10.09 12.09-11.14-19.1-28.65-33.31-46.24-46.18-2.39-1.96-5.84-3.31-6.61-6.59-1.55-6.11-3.31-12.17-4.84-18.29Z"/><path fill="#37383a" opacity=".48" d="M1020.15 590.25c-.71-1.48-.46-3.17.7-4.33.67 1.46.42 3.15-.7 4.33Z"/><path fill="#383838" opacity=".52" d="M6.04 589.76c1.2 1.15 1.51 2.88.84 4.41-1.13-1.21-1.41-2.89-.84-4.41Z"/><path fill="#373739" opacity=".51" d="M1019.1 597.21c-.67-1.86-.4-3.89.87-5.42.57 1.85.3 3.85-.87 5.42Z"/><path fill="#3a3a3a" opacity=".52" d="M7 595.83c1.24 1.09 1.6 2.78 1.02 4.33-1.21-1.13-1.56-2.81-1.02-4.33Z"/><path fill="#bacc9a" d="M198.02 614c9.95-6.7 19.97-13.84 31.55-17.42-2.96 11.87-5.27 23.89-8.09 35.78-1.99-8.7-.16-17.58 3.32-25.64-3.83-.04-7.8-.75-11.52.38-3.46 1.69-6.11 4.59-9.1 6.94 3.22 2.15 7.11 2.57 10.72 1.15.23 1.99.46 3.99.73 5.99-4.92-2.4-10.16-.51-14.83 1.48-.38-1.53-.76-3.06-1.14-4.58-2.55 2-5.44 3.46-8.41 4.73-3.45 1.46-5.35 4.94-8.33 7.05-1.91.95-4.13.89-6.18 1.31 6.06-6.89 13.99-11.71 21.28-17.17Z"/><path fill="#393a3b" opacity=".48" d="M1018.11 603.16c-.67-1.52-.4-3.22.77-4.39.64 1.5.35 3.19-.77 4.39Z"/><path fill="#363636" opacity=".56" d="M7.99 600.84c1.33 1.43 1.61 3.45.86 5.24-1.16-1.51-1.41-3.45-.86-5.24Z"/><path fill="#363737" opacity=".48" d="M1017.06 609.08c-.68-1.81-.39-3.8.91-5.24.59 1.79.3 3.76-.91 5.24Z"/><path fill="#b3d08b" d="M213.28 607.1c3.72-1.13 7.69-.42 11.52-.38-3.48 8.06-5.31 16.94-3.32 25.64-.01 3.97-1.31 7.81-1.91 11.71-2.17-.08-4.77-1.76-6.68-.19-11.35 11.41-24.99 20.79-33.81 34.53-6.5-9.35-12.48-19.04-19.09-28.31 3.46-5.73 8.06-10.65 12.54-15.58 1.34-1.15 2.41-2.93 4.21-3.35 2.05-.42 4.27-.36 6.18-1.31 2.98-2.11 4.88-5.59 8.33-7.05 2.97-1.27 5.86-2.73 8.41-4.73.38 1.52.76 3.05 1.14 4.58 4.67-1.99 9.91-3.88 14.83-1.48-.27-2-.5-4-.73-5.99-3.61 1.42-7.5 1-10.72-1.15 2.99-2.35 5.64-5.25 9.1-6.94Z"/><path fill="#353635" opacity=".48" d="M9.14 607.64c.64 2.89 1.2 5.8 1.62 8.75-.62-2.91-1.18-5.82-1.62-8.75Z"/><path fill="#d9d86a" d="M796.92 609.28c4.49 3.21 9.48 5.77 13.46 9.67-3.05-1.32-6.1-2.62-9.09-4.03-.13 3.45-.34 6.9-.41 10.36-1.65-5.25-2.41-10.72-3.96-16Z"/><path fill="#efd435" d="M801.29 614.92c2.99 1.41 6.04 2.71 9.09 4.03 10.91 6.93 20.36 16.12 28.38 26.25.87 1.23 2.01 2.43 2.18 4.02.02.4.05 1.19.07 1.59-5.34 9.13-11.61 17.84-17.42 26.72l-1.15.12c-3.06-3.95-5.83-8.16-9.5-11.58-2.53-2.66-6.1-5.01-6.25-9.05-1.56-10.65-4.24-21.11-5.81-31.74.07-3.46.28-6.91.41-10.36Z"/><path fill="#373738" opacity=".5" d="M1014.75 618.03c-.37-1.29.02-2.31 1.17-3.05.53 1.46.14 2.47-1.17 3.05Z"/><path fill="#383838" opacity=".51" d="M11.05 618.08c1.19.7 1.6 1.7 1.23 2.99-1.31-.54-1.72-1.54-1.23-2.99Z"/><path fill="#343233" opacity=".42" d="M1013.95 624.13c-.49-1.55-.16-3.24 1.12-4.29.59 1.53.07 3.19-1.12 4.29Z"/><path fill="#eef8fb" d="M764.41 841.4c67.79-56.49 117.3-134.86 137.95-220.75a97.47 97.47 0 0 0 6.77 6.87c2.39-.96 5.44-3.38 7.86-1.17 3.73 3.35 1.69 8.63.97 12.84-.91.35-1.82.69-2.71 1.04.51 1.71 1.03 3.41 1.57 5.13.39-1.46.79-2.9 1.2-4.34.35.03 1.06.08 1.41.11.07 4.72-.22 9.44-.81 14.12-.57-.65-1.72-1.95-2.29-2.6-.89 4.44-1.48 8.98-1.03 13.52.59 6.77.21 13.57-.19 20.34 1.43.23 2.89.47 4.34.71-.82 1.31-1.62 2.64-2.42 3.98 1.06.09 2.15.2 3.24.31-.05 4.96.27 9.92.75 14.86-1.17-.67-2.33-1.33-3.5-1.97.28 3.26 1.16 6.47 3.09 9.18.16 3.55.08 7.11.15 10.68.2 4.19.27 8.64-2.21 12.25.75.05 1.51.1 2.29.17-.01 1.44 0 2.9.01 4.36-1.57 1.98-3.1 3.99-4.58 6.04-4.78-3.23-9.06-7.41-14.48-9.53-5.04-.36-9.02 5.31-7.74 10 1.71 9.27 4.2 18.39 6.59 27.5-7.67-2.83-15.3-5.92-23.34-7.52-1.96-.56-3.86.29-5.68.86 1.01 1.55 2.11 3.05 3.26 4.52 3.2 4.33 6.37 8.78 8.45 13.78 1.89 7.77 7.53 13.76 11.5 20.52 1.59 3.22 5.33 3.78 8.57 3.67-.88-6.44-5.91-10.96-8.98-16.37-4.77-7.88-10.02-15.44-15.42-22.87 7.5 2.41 14.09 6.82 21.14 10.23 2.88 1.47 6.12 1.91 9.34 1.81.34-2.12.9-4.27.48-6.41-1.31-8.78-3.94-17.3-5.4-26.05 3.79 2.58 7.3 5.54 11.02 8.23 4.5 3.14 9.2 6.03 13.31 9.7 2.67 2.41 7.56 3.96 9.9.31 1.59 1.06 3.17 2.16 4.75 3.28.08-.99.17-1.96.27-2.93 1.15 1.52 2.3 3.03 3.47 4.56-30.89 51.5-71.2 97.35-118.26 134.66-67.83 53.86-149.85 89.54-235.35 103.13-52.46 8.46-106.25 8.39-158.73.16-57.83-9.12-113.98-28.59-165.18-56.95 1.35.17 2.71.31 4.07.46-.52-1.33-1.04-2.66-1.56-3.97 3.09.6 6.1 1.6 8.84 3.17.31-.98.63-1.96.95-2.92 5.86 4.15 13.37 2.62 19.67.47 3.4-1.11 4.78-4.84 5.18-8.07-6.17-1.37-11.67 2.73-17.76 2.43-3.04-.04-4.09-3.51-4.23-6-.05-5.33 2.61-10.22 5.52-14.52 4.34-5.69 9.8-10.9 16.64-13.37 3.04-1 6.67-1.41 9.47.44 1.74 2.79 2.29 6.12 3.56 9.14 1.16-2.8 2.15-5.93 1.17-8.93-.81-3.84-4.48-6.29-8.15-6.94 2.84-2.58 5.61-5.24 8.33-7.95 62.64 29.14 132.55 42.48 201.52 38.19 43.35-2.53 86.26-12.14 126.73-27.88 41.56-16.19 80.39-39.22 114.7-67.72m88.33-44.55c1.38 4.4.52 8.98 1.42 13.45.24-2.18.43-4.38.77-6.53 4.01 6.02 6.15 13.04 9.16 19.58-.72-.06-2.16-.16-2.88-.21 2.68 6.79 5.95 13.46 10.37 19.3 1.72 2.28 4.8 2.31 7.4 2.35-.05-7.95-6.21-14.03-8.53-21.31 3.93-3.73 7.56-7.76 11.63-11.34 3.65 2.12 6.8 4.98 9.91 7.82 1.95 1.6 4.57 1.72 6.99 1.69-.18-2.77-.87-5.72-2.91-7.72-3.29-3.31-7.75-4.99-11.77-7.17-7.59-3.55-15.82-6.75-24.34-6.04-2.93.16-4.65-2.9-7.22-3.87m-21.7 22.17c-2.26 4.85-5.98 8.76-9.32 12.87 2.79 5.16 6.61 9.67 9.68 14.67 2.88 4.76 6.03 9.34 8.99 14.06 1.73 2.56 3.38 5.73 6.7 6.4 3 .84 5.83 4.2 9.11 2.2 4.9-4.39 7.13-10.88 9.01-16.99 1.2-3.18.31-7.15-2.3-9.37-3.4.4-4.99 4-4.85 7.08-.93 6.2-1 13.63-6.18 18-2.01-7.59-8.32-12.64-12.52-18.99 2.52-2.37 4.21-6.1 8.04-6.47.84-5.09 3.68-10.57.23-15.31-2.55-.01-4.61 1.74-5.1 4.24-1.16 4.9-3.07 9.63-6.16 13.65-3.1-3.94-6.31-7.8-9.64-11.55 4.76-3.53 9.13-7.74 11.82-13.1 2.09-2.89-.15-6.54-2.52-8.46-2.15 1.99-3.81 4.4-4.99 7.07m-30.91 25.07c-4.77 8.17-11.18 15.23-16.03 23.33 1.46.16 3.12 1.38 4.55.5 3.67-2.73 6.5-6.36 9.62-9.65 4.94-5.81 10.22-11.47 13.99-18.14 1.71-3.05-.58-6.31-2.09-8.9-5.54 2.18-7.03 8.34-10.04 12.86m7.63 3.16c.22 4.97 3.89 8.66 6.18 12.8 5.07 8.37 9.69 17.02 14.49 25.55 1.4 2.71 4.54 3.58 7.38 3.73.11-2.84-.34-5.77-2.05-8.11-6.24-8.45-12.1-17.17-18.44-25.54-2.31-2.99-4.21-6.47-7.56-8.43m-87.31 53.18c-3.13 2.7.58 6.09 1.06 9.14 2.26 9.36 2.68 19.06 4.29 28.55.41 2.79 2.81 5.43 5.72 5.59 1.79-1.83 1.59-4.77.7-6.98-1.5-3.65-2.55-7.45-3.28-11.32 7.45 4.7 15.32 8.7 23.36 12.31 1.57.45 3.34 1.8 4.93.64 1.18-3.18 1.21-6.66.32-9.91-8.01-2.47-15.74-5.77-23.33-9.32 2.33-4.47 5.57-8.89 5.49-14.14-.07-2.24-.08-5.1-2.33-6.32-5.28-3.07-12.2-1.68-16.93 1.76m-28.84 14.15c-2.22.58-2.18 4.11.42 3.95 4.46-.45 8.51-2.84 13.01-3.13 1.91.07 3.73-1.1 4.68-2.71.2-1.67.07-3.37.08-5.02-6.47.97-12.39 4.05-18.19 6.91m-354.87 5.59c2.09 1.17 4.99 1.77 5.61 4.48 1.82 7.1-1.16 14.09-3.36 20.72-4.67-1.69-9.26-3.59-13.91-5.31 4.63-5.35 10.37-9.73 14.44-15.54-1.6.12-3.19.51-4.41 1.62-4.46 3.48-8.45 7.51-12.49 11.47-1.01 1.19-2.62 1.38-4.01 1.88-.92 6.34-8.8 9-9.37 15.49.21 1.3.94 3.78 2.65 3.31 4.29-2.85 5.71-8.02 8.08-12.27.88-.83 1.48-2.89 2.98-2.36 4.87 1.79 9.25 4.66 13.88 6.97-1.91 4.22-3.98 8.37-5.85 12.6a199.8 199.8 0 0 0-3.59-1.79c-.3 3.19-.4 6.79 1.74 9.43.74 1.27 2.23 1.24 3.5.91 4-3.55 5.45-8.88 7.3-13.69 2.86-8.85 6.24-17.73 6.6-27.13-.13-3.51-.95-7.32-3.39-9.98-1.66-1.87-4.28-1.01-6.4-.81m351.26-.63c3.81 9.71 4.2 20.27 5.78 30.49.63 2.63.09 5.88 2.22 7.93 1.28 1.19 2.9 3.23 4.78 1.8 1.63-3.12.34-6.68-.78-9.72-1.68-4.4-2.34-9.08-3.76-13.55 4.4 1.31 8.41-1.17 11.98-3.44.61.66 1.24 1.34 1.87 2.03 3.07-3.15 6.95-7.4 4.22-12.04-1.56.39-3.32.48-4.49 1.72-4.15 3.8-8.03 8.07-13.22 10.5-2-4.53-2.53-9.59-4.94-13.94-.51-1.68-2.09-2.22-3.66-1.78m-20.92 7.4c-2.02 1.26-4.66 1.96-5.85 4.2 2.72 12.04 3.31 24.47 3.84 36.78-.05 2.37 1.88 3.94 3.26 5.62 2.06-.03 4.15.2 6.21-.14 4.12-1.86 7.59-4.87 11.07-7.7 2.5-1.77 1.56-5.16.73-7.55-2 .46-4.37.71-5.58 2.61-2.61 3.5-5.41 6.93-9.03 9.46-.59-5.19-1.87-10.26-2.57-15.42 4.97-1.9 9.45-5 13.2-8.75.66-2 .44-4.1-.26-6.04-5.92 1.37-8.38 7.98-13.88 10.3-.87-5.61-2.24-11.1-3.32-16.66 4.25-1.45 9.06-2.16 12.52-5.24 1.65-1.33 1.1-3.66 1.35-5.49-4.37-.81-8.01 2.22-11.69 4.02M350 929.81c.38 1.48 1.19 2.98 2.73 3.51 5 2.19 10.17 3.99 15.28 5.91-7.21 10.99-14.79 21.73-22.31 32.51-2.1 2.53-2.1 7.1 1.37 8.45 3.25-1.43 4.5-5.1 6.2-7.94 5.62-10.86 12.35-21.13 17.67-32.15 2.82.69 5.63 1.93 8.59 1.48 1.69-1.09 1.92-3.23 2.42-4.99-5.99-1.96-12.33-2.36-18.38-4.09-4.55-.81-8.83-3.41-13.57-2.69m282.38 10.54c-2.77 1.51-6.15 2.2-8.25 4.68.86 1.15 2.21 1.99 3.73 1.7 3.81-.75 7.47-2.11 11.19-3.21.95 11.86-.75 23.69-1.4 35.51.39 3.5 4.12 5.68 7.42 5.74.77-3.88.43-7.83.31-11.73-.65-10.44-.9-20.9-2.14-31.27 1.98-1.1 4.44-1.73 5.76-3.7 1.25-1.7.38-3.88.25-5.75-6.22 1.29-11.14 5.55-16.87 8.03m83.22 6.18c-2.61 4.41-5.7 8.57-9.86 11.64-.93-.7-1.85-1.4-2.77-2.08.1 1.25.22 2.51.35 3.78 1.43.36 2.91 1.35 4.44.86 4.98-1.92 8.78-5.84 12.38-9.63 1.78-1.74 1.11-4.52 1.28-6.75-2.24-.54-4.65.06-5.82 2.18m-281.8 6.48c-.1 12.95-1.93 25.84-1.49 38.79-.56 2.72.25 6.67 3.69 6.78 2.71.18 3.59-2.83 4.85-4.65 6.42-11.57 13.19-22.94 19.52-34.57 1.64-3.36 3.96-6.71 3.88-10.59-2.08-1.09-3.32.64-4.36 2.17-7.15 10.96-14.27 21.96-21.99 32.53-1.14-12.71-.14-25.5-1.52-38.18-.4-.28-1.21-.83-1.61-1.11-1.2 2.79-.84 5.87-.97 8.83m174.73-2.77c-2.11 11.23-3.15 22.83-7.45 33.52-6.54-6.86-7.99-16.75-13.47-24.29-1.52-2.29-4.03-3.45-6.67-3.79-3.87 12.1-7.4 24.32-10.96 36.52-1.07 2.61 1.8 4.18 3.2 5.89 1.37-1.93 2.31-4.11 2.59-6.46 1.86-10.61 5.4-20.85 7.09-31.49.37.1 1.13.3 1.5.4 5.16 8.97 6.04 20.11 13.1 27.99 1.64 2.05 4.59 3.42 7.11 2.11 2.71-1.88 3.79-5.2 4.76-8.19 2.69-9.7 4.61-19.59 6.28-29.51.43-2.29-.24-4.56-.83-6.73-2.78-.49-5.94.97-6.25 4.03m-126.16 1.31c-1.19.34-2.35.79-3.4 1.45-5.23 9.79-11.92 19.54-12.3 31.03-.68 7.81 6.42 15.31 14.38 14.35 7.57-1.18 13.02-7.64 16.13-14.23 3.27-7.94 5.12-17.15 1.81-25.39-1.31-3.22-4.4-5.33-7.72-6.02-2.91-.59-5.92-2.12-8.9-1.19m78.13 5.67a126.46 126.46 0 0 1-5.28 26.9c-1.33 4.18-3.05 8.72-6.92 11.19-2.85.98-6.08-.5-7.54-3.06-3.67-5.33-2.44-12.08-2.2-18.12.1-4.17 1.9-8.36.64-12.47-2.85 2.2-2.86 5.99-3.54 9.2-1.19 6.54-1.8 13.29-.57 19.87 1.52 6.37 8.07 12.35 14.94 10.44 5.06-1.18 7.8-6.01 9.62-10.45 3.84-9.98 6.17-20.46 7.81-31 .33-1.49-.22-2.97-1.05-4.17-2.14-.9-4.06.84-5.91 1.67m-50.4 6c-1.44 8.19-4.67 15.95-5.89 24.19-.38 3.06-1.7 6.41-.12 9.36 1.55 3.98 5.51 7.05 9.88 6.85 3.25-.26 6.45-1 9.58-1.89 3.51-.5 4.38-5.58 2.35-8.02-5.25-.22-10.14 3.02-15.52 2.05l-.72-2.84c.51-11.93 5.57-23.28 5.13-35.28-3.56-.92-4.19 3.04-4.69 5.58Z"/><path fill="#343434" opacity=".41" d="M11.86 623.14c1.34.46 1.76 1.37 1.29 2.75-1.27-.51-1.7-1.42-1.29-2.75Z"/><path fill="#313132" opacity=".42" d="M1012.18 631.23c-.38-2.35.2-4.7 1.77-6.49.53 2.35-.15 4.71-1.77 6.49Z"/><path fill="#343434" opacity=".44" d="M12.89 626.86c1.59.68 1.49 2.66 1.16 4.08-1.02-1.07-1.86-2.62-1.16-4.08Z"/><path fill="#d4aa9b" d="M693.36 629.12c7.46-.85 15.43-1.31 22.43 1.91 3.59 1.63 7.17 3.38 10.35 5.76 3.58 2.67 4.23 7.42 5.99 11.26 2.99 6.77 4.2 14.33 3.46 21.69-3.84 8.8-13.36 12.45-21.4 16.41-9.09 2.97-18.54 5.64-28.21 5.15-7.63.06-14.72-3.33-21.16-7.11-6.02-3.7-12.79-7.22-16.12-13.8-1.75-4.1-1.31-8.77-.35-13.01.72-3.45 3.63-5.68 5.78-8.24 2.71-2.95 4.58-6.75 8.08-8.91 4.66-2.93 9.82-4.93 14.74-7.38 5.09-2.55 10.86-2.97 16.41-3.73Z"/><path fill="#d3a99c" d="M309.38 632.38c8.64-.76 17.59-1.36 25.99 1.28 5.16 1.5 10.55 2.73 14.98 5.94 3.42 2.52 7.52 4.41 10.09 7.9 2.34 4.88 2.77 10.41 3.61 15.7 1.36 7.81-1.66 15.37-3.99 22.67-.99 3.78-4.64 5.62-7.58 7.69-3.56 2.31-6.92 5.36-11.28 5.95-10.25 1.7-21.2 2.06-31.02-1.74-7-4.81-14.26-9.63-19.55-16.4-3.57-4.45-8.97-7.85-10.28-13.74-1.73-6.98-3.89-14.86-.38-21.65 1.99-4.05 6.12-6.34 10.15-7.94 6.18-2.58 12.55-4.96 19.26-5.66Z"/><path fill="#353437" opacity=".64" d="M1009.09 644.31c.38-4.04 1.29-7.99 2.76-11.77-.58 3.99-1.49 7.93-2.76 11.77Z"/><path fill="#353535" opacity=".4" d="M15.17 635.87c.23.56.69 1.69.93 2.25-.24-.56-.7-1.69-.93-2.25Z"/><path fill="#100b0c" d="M105.7 636.1c19.59 66.96 56.75 128.61 106.6 177.38-.72 1.8-1.56 3.56-2.39 5.32 2.72 2.52 5.27 5.36 8.55 7.18 2.01 1.27 4.25-.31 6.25-.82 29.32 26.17 62.3 48.21 97.82 65.05a363.5 363.5 0 0 0-4.86 6.79c-12.3-5.93-24.32-12.45-36.03-19.46-23.58-14.35-45.78-30.94-66.1-49.62-54.85-50.08-95.77-115.19-117.27-186.28 2.71-1.51 5.23-3.34 7.43-5.54Z"/><path fill="#3b3b3b" opacity=".58" d="M16.01 639c.27.55.79 1.65 1.06 2.19-.27-.54-.79-1.64-1.06-2.19Z"/><path fill="#353535" opacity=".48" d="M16.79 643.21c1.29.39 1.77 1.29 1.44 2.69-1.33-.4-1.81-1.29-1.44-2.69Z"/><path fill="#343236" opacity=".45" d="M1007.15 651.36c-.75-2.34.24-4.66 1.8-6.4.33 2.31-.29 4.61-1.8 6.4Z"/><path fill="#323232" opacity=".62" d="M18.17 646.59c1.65 1.77 2.26 4.17 1.68 6.52-1.32-1.9-2.24-4.18-1.68-6.52Z"/><path fill="#88856b" d="m840.94 649.22.82-.05.49.8-.43.83-.81.01c-.02-.4-.05-1.19-.07-1.59Z"/><path fill="#3a383c" opacity=".54" d="M1006 654.94c-.56-1.48-.15-2.46 1.23-2.96.3 1.27-.11 2.25-1.23 2.96Z"/><path fill="#363636" opacity=".66" d="M20.25 654.4a43.96 43.96 0 0 1 2.6 8.84c-1.03-2.9-1.91-5.84-2.6-8.84Z"/><path fill="#e9d539" d="M199.54 667.55c5.78-4.28 11.53-8.67 17.95-11.96-.58 4.98-1.24 9.95-2.06 14.91-1.89.58-3.82 1.24-5.18 2.77-4.12 4.21-8.44 8.23-12.36 12.64-2.37 2.6-3.84 5.92-6.35 8.42-.38.08-1.13.25-1.51.33-2.83-3.27-4.86-7.13-7.26-10.71 4.46-6.51 10.51-11.69 16.77-16.4Z"/><path fill="#0b0704" d="M507.42 662.56c2.97-.51 6.1-.51 9.06.07 11.96 12.59 28.88 19.71 45.96 21.69 3.4.54 7.42.48 9.86 3.32 2.74 2.81 1.04 7.07-.75 9.91-2.28 2.8-5.6 5.83-9.51 4.92-4.3-.8-8.44-2.25-12.69-3.23-3.1 6.29-7.22 12.03-11.81 17.31-4.97 5.51-12.19 8.47-19.53 8.85-7.66-.08-15.72.83-22.92-2.4-9.53-4.7-15.38-14.22-20.25-23.25-4.98.97-9.7 3.41-14.83 3.47-5.38-.82-9.41-5.99-9.88-11.27-.16-2.34 1.74-4.07 3.42-5.38 7.61-2.11 15.72-2.22 23.17-5.01 8-2.62 15.58-6.55 22.38-11.49 3.09-2.15 5.33-5.26 8.32-7.51m-21.28 32.71c5.41 9.29 15.27 15.69 25.86 17.21 10.61-1.62 20.63-8.08 25.7-17.68-9.96-5.26-19.93-11.66-25.79-21.59-5.96 9.98-15.84 16.52-25.77 22.06Z"/><path fill="#393739" opacity=".46" d="M1002.12 668.2c.19-.57.59-1.7.79-2.27-.2.57-.6 1.7-.79 2.27Z"/><path fill="#b9c69a" d="M809.13 672.93c3.74 3.31 7.2 6.94 10.18 10.97-2.49 3.81-4.92 7.66-7.58 11.36-.7-7.47-1.81-14.88-2.6-22.33Z"/><path fill="#b5cd90" d="M193.87 701.93c5.76-6.25 11.73-12.65 19.61-16.23-1.45 14.5-2.37 29.06-3.5 43.59-5.41-9.1-10.19-18.57-16.11-27.36Z"/><g fill="#343434"><path opacity=".42" d="M993.97 692.07c.21-.56.64-1.68.85-2.24-.21.56-.64 1.68-.85 2.24ZM617.8 1015.99c1.04-1.25 2.69-1.6 4.19-.98-1.06 1.22-2.72 1.57-4.19.98Z"/></g><path fill="#323232" opacity=".61" d="M35.06 698.6c1.04 2.52 2.05 5.06 2.95 7.65-1.05-2.53-2.07-5.07-2.95-7.65Z"/><path fill="#333" opacity=".42" d="M38.98 708.89c1.19 1.08 2.57 2.52 2.08 4.31-1.93-.46-2.21-2.67-2.08-4.31Z"/><path fill="#363638" opacity=".49" d="M984.95 714.01c.3-.51.9-1.52 1.2-2.03-.3.51-.9 1.52-1.2 2.03Z"/><path fill="#353436" opacity=".58" d="M40.99 713.78c1.96.46 2.19 2.72 1.98 4.39-1.13-1.18-2.44-2.64-1.98-4.39Z"/><path fill="#34343b" opacity=".62" d="M982.87 719.26c-.3-1.83.47-3.61 2.06-4.56.32 1.81-.56 3.54-2.06 4.56Z"/><path fill="#0f0709" d="M597.79 723.51c9.9-4 20.72-5.18 31.31-4.25 15.83 1.04 30.61 10.37 38.64 24.01 13.34 23.02 24.7 47.35 31.91 73.02 3.53 11.49 6.14 23.22 9.4 34.78 1.02 2.55.13 5.71-2.11 7.32-2.73-1.1-3.47-4.27-4.65-6.65-4.17-10.59-7.32-21.55-10.92-32.34-6.46-18.61-14.18-36.83-23.64-54.12-4.09-7.91-8.07-16.18-14.6-22.4-9.73-9.48-24.03-13.57-37.37-11.43-.34-1.19-.68-2.36-1.01-3.53-5.65-1.49-11.21-3.34-16.96-4.41Z"/><path fill="#0e0705" d="M383.18 723.38c14.26-4.83 30.02-3.59 44.06 1.41 6.28 2.1 11.55 6.28 16.67 10.35 3.93 3.1 7.04 7.11 9.51 11.44 4.31 7.19 8.3 14.92 9 23.43 1.57 16.82-1.96 33.55-5.18 49.97-4.26 20.2-7.84 40.54-11.33 60.88-1.07 3.56-3.34 6.61-5.28 9.74-1.09-.07-2.16-.14-3.23-.19-2.42-3.68-5.2-7.76-4.76-12.37 2.57-18.61 5.89-37.12 9.71-55.51 4.15-18.8 9.64-38.07 6.63-57.46-3.11-8.63-8.08-16.99-15.65-22.41-6.93-5.97-16.08-8.02-24.79-9.81-10.87-1.53-22.44.77-31.43 7.23-9.13 5.79-14.39 15.64-18.91 25.12-9.14 17.58-17.21 35.76-23.3 54.64-3.39 9.82-6.04 19.87-9.44 29.68-1.11 3.91-2.99 7.52-4.94 11.06-.57.01-1.71.03-2.28.03-.89-2.1-2.27-4.31-1.37-6.65 3.97-14.83 7.03-29.89 11.66-44.54 6.6-21.33 16.09-41.63 26.66-61.24 5.96-11.25 15.79-20.72 27.99-24.8Z"/><path fill="#0e0500" d="M579.91 734.88c5.33-4.6 11.09-9.2 17.88-11.37 5.75 1.07 11.31 2.92 16.96 4.41.33 1.17.67 2.34 1.01 3.53-6.92 1.69-14.17 3.04-20.21 7.05-4.94 3.26-9.81 6.96-12.94 12.1-3.98 6.44-8.15 13.5-7.4 21.4-.66 13.28 2.64 26.28 5.51 39.14 5.31 21.5 9.54 43.28 12.85 65.18.73 3.45-.89 6.78-2.24 9.86-1.12 1.61-2.56 4.1-4.9 3.36-3.12-2.83-5.04-6.9-6.25-10.88-2.77-15.58-5.92-31.09-8.97-46.62-4.05-18.48-8.75-37-9.11-56.01.25-6.78.89-13.74 3.78-19.98 3.75-7.59 7.43-15.57 14.03-21.17Z"/><path fill="#0a0a12" d="M894.05 747.55c-1.28-4.69 2.7-10.36 7.74-10 5.42 2.12 9.7 6.3 14.48 9.53 5.44 4.22 11.69 7.29 17.06 11.61 3.37 2.6 4.17 6.97 5.46 10.77-2.34 3.65-7.23 2.1-9.9-.31-4.11-3.67-8.81-6.56-13.31-9.7-3.72-2.69-7.23-5.65-11.02-8.23 1.46 8.75 4.09 17.27 5.4 26.05.42 2.14-.14 4.29-.48 6.41-3.22.1-6.46-.34-9.34-1.81-7.05-3.41-13.64-7.82-21.14-10.23-.26-.1-.78-.29-1.04-.38-1.03.54-2.06 1.09-3.08 1.65a64.595 64.595 0 0 1-3.26-4.52c1.82-.57 3.72-1.42 5.68-.86 8.04 1.6 15.67 4.69 23.34 7.52-2.39-9.11-4.88-18.23-6.59-27.5Z"/><path fill="#cead9d" d="M637.4 743.53c4.58-.5 10.64-.76 13.5 3.62 1.09 1.5 1.95 3.38 1.5 5.29-.95 4.77-3.47 10.16-8.61 11.46-2.44 1.02-4.56-1-6.21-2.51-3.37-3.15-4.77-7.88-4.87-12.38-.31-2.76 2.16-5 4.69-5.48Z"/><path fill="#cdaea1" d="M615.28 744.04c3.05-.65 7.03-1.16 9.37 1.39 1.44 2.56 2.27 6.01.5 8.65-1.96 3.21-4.5 6.51-8.14 7.86-3.82-.46-5.51-4.36-6.68-7.52-.85-2.53-1.88-5.7-.06-8.05 1.41-1.22 3.22-1.87 5.01-2.33Z"/><path fill="#c9aea7" d="M378.81 749.75c3.66-2.05 7.62-.32 10.99 1.42.13 4.28.02 9.06-3.44 12.14-2.2 3.18-7.36 2.76-9.16-.6-2.6-3.85-3.34-10.63 1.61-12.96Z"/><path fill="#ceada6" d="M403.41 749.49c3.6-1.31 8.24-.82 10.76 2.32 1.64 2.21 2.84 5.05 2.43 7.86-1.06 3.28-4.45 5.27-7.63 6.08-4.27-2.14-8.55-6.49-7.81-11.66.23-1.63.49-3.95 2.25-4.6Z"/><path fill="#d0ada3" d="M594.42 752.37c2.69-.36 5.99.34 6.99 3.23 2.63 5.1-1.54 10.38-5.27 13.58-1.33 1.6-3.32.18-4.66-.65-3.52-2.61-5.98-7.41-4.66-11.77 1.06-3.18 4.56-4.28 7.6-4.39Z"/><path fill="#caaaa3" d="M425.06 759.02c3.41-1.03 7.27-2.75 10.7-.81 3.51 1.39 3.52 5.97 2.28 8.95-1.43 3.07-3.36 6.08-6.19 8.03-3.07 1.05-4.61-2.18-5.58-4.48-1.59-3.69-1.29-7.79-1.21-11.69Z"/><path fill="#d0ab9b" d="M616.38 767.57c7.41-.48 15.26-.25 22.13 2.88 5.13 2.05 8.04 7.86 7.95 13.18-.98 6-2.6 12.36-7 16.83-3.69 3.93-7.85 8.29-13.53 8.84-6.66.3-12.71-3.43-16.71-8.52-4.96-4.41-7.16-11.14-7.01-17.65.64-7.55 6.65-14.31 14.17-15.56Z"/><path fill="#d3ab9d" d="M387.42 769.69c10.07-1.69 20.32.55 29.58 4.55 3.81 2.9 7.59 7.42 6.55 12.57-.7 4.92-.76 10.51-4.33 14.39-2.5 2.84-4.8 5.87-7.47 8.55-2.23 2.39-5.8 1.73-8.73 1.95-4.49-.23-9.71.91-13.41-2.33-5.34-4.26-11.37-9.29-12.05-16.59-.43-6.02-1.54-12.85 2.16-18.12 1.62-2.77 4.54-4.56 7.7-4.97Z"/><path fill="#090d15" d="M136.5 773.51c2.2-3.08 6.7-3.51 9.9-1.89 5.9 2.47 9.96 8.29 11.03 14.5.16 1.5-.89 2.81-1.33 4.21-2.51-4.65-4.46-10.45-9.78-12.61-1.89-.87-5.71-1.48-5.91 1.5-1.9 8.39 2.19 16.99-.03 25.39-1.21 4.11-3.22 8.47-7.21 10.54-2.86 2.01-6.85 2.37-9.87.51-6.32-3.57-10.36-10.54-11.33-17.62-.4-4.96-.79-10.3 1.77-14.79 3.15.67 6.57 3 5.73 6.69-.96 7.02 1.57 15.01 7.88 18.79 2.94.98 5.14-1.91 5.92-4.37 2.16-5.13-.07-10.59-.03-15.88-.05-5.08-.16-10.83 3.26-14.97Z"/><path fill="#081314" d="M874.88 772.91c1.02-.56 2.05-1.11 3.08-1.65.26.09.78.28 1.04.38 5.4 7.43 10.65 14.99 15.42 22.87 3.07 5.41 8.1 9.93 8.98 16.37-3.24.11-6.98-.45-8.57-3.67-3.97-6.76-9.61-12.75-11.5-20.52-2.08-5-5.25-9.45-8.45-13.78Z"/><path fill="#0c1013" d="M162.14 796.05c3.92.02 6.42 3.4 9.42 5.41 6.04 4.58 12.97 8.04 18.24 13.57-1.32 1.86-2.76 3.76-4.85 4.83-2.68-1.25-4.58-3.63-6.86-5.43-7.85 7.4-16.46 13.95-24.15 21.51-2.23 1.91-4.79 4.14-7.95 3.19-.02-2.44.45-5.07 2.52-6.62 8.83-6.87 17.88-13.45 26.65-20.4-4.46-3.56-9.2-7.02-12.38-11.85-.77-1.26-.45-2.84-.64-4.21Z"/><path fill="#0b0e12" d="M852.74 796.85c2.57.97 4.29 4.03 7.22 3.87 8.52-.71 16.75 2.49 24.34 6.04 4.02 2.18 8.48 3.86 11.77 7.17 2.04 2 2.73 4.95 2.91 7.72-2.42.03-5.04-.09-6.99-1.69-3.11-2.84-6.26-5.7-9.91-7.82-4.07 3.58-7.7 7.61-11.63 11.34 2.32 7.28 8.48 13.36 8.53 21.31-2.6-.04-5.68-.07-7.4-2.35-4.42-5.84-7.69-12.51-10.37-19.3.72.05 2.16.15 2.88.21-3.01-6.54-5.15-13.56-9.16-19.58-.34 2.15-.53 4.35-.77 6.53-.9-4.47-.04-9.05-1.42-13.45m6.35 5.83c3.32 5.26 5.96 10.9 8.92 16.36 2.81-3.54 5.27-7.34 7.95-10.99-5.36-2.54-10.93-4.79-16.87-5.37Z"/><path fill="#091112" d="M831.04 819.02c1.18-2.67 2.84-5.08 4.99-7.07 2.37 1.92 4.61 5.57 2.52 8.46-2.69 5.36-7.06 9.57-11.82 13.1 3.33 3.75 6.54 7.61 9.64 11.55 3.09-4.02 5-8.75 6.16-13.65.49-2.5 2.55-4.25 5.1-4.24 3.45 4.74.61 10.22-.23 15.31-3.83.37-5.52 4.1-8.04 6.47 4.2 6.35 10.51 11.4 12.52 18.99 5.18-4.37 5.25-11.8 6.18-18-.14-3.08 1.45-6.68 4.85-7.08 2.61 2.22 3.5 6.19 2.3 9.37-1.88 6.11-4.11 12.6-9.01 16.99-3.28 2-6.11-1.36-9.11-2.2-3.32-.67-4.97-3.84-6.7-6.4-2.96-4.72-6.11-9.3-8.99-14.06-3.07-5-6.89-9.51-9.68-14.67 3.34-4.11 7.06-8.02 9.32-12.87Z"/><path fill="#0a1015" d="M193.38 825.73c5.89-2.23 11.19 2.1 15.56 5.48.85 1.46 1.97 2.92 2.07 4.69-.77 2.89-3.11 5.05-5.63 6.5-4.96 2.99-10.74 4.09-16.37 5.05 2.35 8.96 4.05 18.08 5.2 27.27 7.34-5.23 14.93-10.09 22.52-14.94 4.32-2.64 8.19-6.02 12.82-8.14-.49 4.03.17 8.04.19 12.08-1.33 12.04-8.36 22.32-14.84 32.19-1.5 2.43-3.86 4.08-6.16 5.69-2.79-5.15.35-10.42 2.42-15.13.86.7 1.72 1.42 2.57 2.16 1.19-1.79 2.39-3.58 3.55-5.37-3.38-3.83-7.05-7.39-11.04-10.58a56.022 56.022 0 0 1-12.83 11.1 79.17 79.17 0 0 1-2.29-4.11c-1.28.06-2.55.11-3.82.16-1.44-6.48-1.43-13.15-2.58-19.66-.83-5.02-1.9-10-2.28-15.07-3.82 4.29-8.09 8.16-12.15 12.23-1.55 1.63-3.66 2.45-5.71 3.23-.08-2.27-1.53-4.89.01-6.91 2.35-3.04 5.83-4.88 8.66-7.41 6.73-5.86 13.53-11.65 19.65-18.15.97.52 1.95 1.06 2.93 1.61-2.74 4.52-5.9 8.83-9.91 12.32 7.48-.49 15.64-1.28 21.55-6.42-3.37-4.97-9.06-7.09-14.09-9.87m15.92 44.59c3.84 2.74 7.55 5.67 11.57 8.13 3.23-6.43 6.87-13.18 6-20.64-5.84 4.19-11.48 8.67-17.57 12.51Z"/><path fill="#eff4f9" d="M215.54 827.92c20.32 18.68 42.52 35.27 66.1 49.62v1.94c-4.3-.93-9.61-2.51-12.79 1.65-.27-1.04-.54-2.06-.8-3.07-6.56 5.07-15.28 5.74-23.21 6.88-.15-1.7-.67-3.45-.04-5.09 1.83-5.74 4.68-11.31 4.84-17.45-3.56 3.36-4.72 8.26-6.76 12.54-1.51 3.52-3.64 6.74-5.18 10.25-.61 2.35.01 5.04-1.4 7.18-1.71 2.67-3.81 5.08-5.98 7.4-4.02-1.08-8.09-1.94-12.17-2.77-.69 1.14-1.37 2.29-2.06 3.44-.74-.28-1.49-.55-2.23-.8.17 1.27.34 2.53.52 3.82-2-.18-4.09-.46-5.64-1.86 2.3-1.61 4.66-3.26 6.16-5.69 6.48-9.87 13.51-20.15 14.84-32.19-.02-4.04-.68-8.05-.19-12.08-4.63 2.12-8.5 5.5-12.82 8.14-7.59 4.85-15.18 9.71-22.52 14.94-1.15-9.19-2.85-18.31-5.2-27.27 5.63-.96 11.41-2.06 16.37-5.05 2.52-1.45 4.86-3.61 5.63-6.5-.1-1.77-1.22-3.23-2.07-4.69 2.2-1.08 4.4-2.18 6.6-3.29Z"/><path fill="#0a1313" d="M800.13 844.09c3.01-4.52 4.5-10.68 10.04-12.86 1.51 2.59 3.8 5.85 2.09 8.9-3.77 6.67-9.05 12.33-13.99 18.14-3.12 3.29-5.95 6.92-9.62 9.65-1.43.88-3.09-.34-4.55-.5 4.85-8.1 11.26-15.16 16.03-23.33Z"/><path fill="#0a1114" d="M807.76 847.25c3.35 1.96 5.25 5.44 7.56 8.43 6.34 8.37 12.2 17.09 18.44 25.54 1.71 2.34 2.16 5.27 2.05 8.11-2.84-.15-5.98-1.02-7.38-3.73-4.8-8.53-9.42-17.18-14.49-25.55-2.29-4.14-5.96-7.83-6.18-12.8Z"/><path fill="#eff7fa" d="M209.3 870.32c6.09-3.84 11.73-8.32 17.57-12.51.87 7.46-2.77 14.21-6 20.64-4.02-2.46-7.73-5.39-11.57-8.13Z"/><path fill="#090f16" d="M242.88 874.94c2.04-4.28 3.2-9.18 6.76-12.54-.16 6.14-3.01 11.71-4.84 17.45-.63 1.64-.11 3.39.04 5.09 7.93-1.14 16.65-1.81 23.21-6.88.26 1.01.53 2.03.8 3.07-5.21 5.33-12.76 7.15-19.68 9.17-2.78.99-6.83.38-8.25 3.56-3.06 5.23-6.18 10.45-9.81 15.32-1.28 1.95-3.63 2.57-5.7 3.32-.14-2.32-.85-4.78-.02-7.03 1.34-2.14 3.25-3.84 4.93-5.7 2.17-2.32 4.27-4.73 5.98-7.4 1.41-2.14.79-4.83 1.4-7.18 1.54-3.51 3.67-6.73 5.18-10.25Z"/><path fill="#0c090b" d="M322.53 890.21c72.08 34.33 154.3 46.91 233.31 35.4 26.09-3.58 51.71-10.11 76.64-18.5 5.76.5 11.52 1.07 17.23 2.01-40.47 15.74-83.38 25.35-126.73 27.88-68.97 4.29-138.88-9.05-201.52-38.19-1.28-.61-2.54-1.21-3.79-1.81a363.5 363.5 0 0 1 4.86-6.79Z"/><path fill="#080d11" d="M720.45 900.43c4.73-3.44 11.65-4.83 16.93-1.76 2.25 1.22 2.26 4.08 2.33 6.32.08 5.25-3.16 9.67-5.49 14.14 7.59 3.55 15.32 6.85 23.33 9.32.89 3.25.86 6.73-.32 9.91-1.59 1.16-3.36-.19-4.93-.64-8.04-3.61-15.91-7.61-23.36-12.31.73 3.87 1.78 7.67 3.28 11.32.89 2.21 1.09 5.15-.7 6.98-2.91-.16-5.31-2.8-5.72-5.59-1.61-9.49-2.03-19.19-4.29-28.55-.48-3.05-4.19-6.44-1.06-9.14m1.81 2.51c1.91 4.51 3.39 9.17 4.65 13.9 3.15-4.4 7.11-8.66 7.78-14.27-3.99-1.96-8.52-1.53-12.43.37Z"/><path fill="#f0f5f5" d="M722.26 902.94c3.91-1.9 8.44-2.33 12.43-.37-.67 5.61-4.63 9.87-7.78 14.27-1.26-4.73-2.74-9.39-4.65-13.9Z"/><path fill="#080f14" d="M291.17 916.17c5.86-5.56 13.57-10.26 21.96-9.41 3.67.65 7.34 3.1 8.15 6.94.98 3-.01 6.13-1.17 8.93-1.27-3.02-1.82-6.35-3.56-9.14-2.8-1.85-6.43-1.44-9.47-.44-6.84 2.47-12.3 7.68-16.64 13.37-2.91 4.3-5.57 9.19-5.52 14.52.14 2.49 1.19 5.96 4.23 6 6.09.3 11.59-3.8 17.76-2.43-.4 3.23-1.78 6.96-5.18 8.07-6.3 2.15-13.81 3.68-19.67-.47-2.69-4.43-4.43-9.72-3.4-14.92 1.9-8.07 6.66-15.25 12.51-21.02Z"/><path fill="#081215" d="M691.61 914.58c5.8-2.86 11.72-5.94 18.19-6.91-.01 1.65.12 3.35-.08 5.02-.95 1.61-2.77 2.78-4.68 2.71-4.5.29-8.55 2.68-13.01 3.13-2.6.16-2.64-3.37-.42-3.95Z"/><path fill="#060c15" d="M336.74 920.17c2.12-.2 4.74-1.06 6.4.81 2.44 2.66 3.26 6.47 3.39 9.98-.36 9.4-3.74 18.28-6.6 27.13-1.85 4.81-3.3 10.14-7.3 13.69-1.27.33-2.76.36-3.5-.91-2.14-2.64-2.04-6.24-1.74-9.43 1.2.58 2.39 1.18 3.59 1.79 1.87-4.23 3.94-8.38 5.85-12.6-4.63-2.31-9.01-5.18-13.88-6.97-1.5-.53-2.1 1.53-2.98 2.36-2.37 4.25-3.79 9.42-8.08 12.27-1.71.47-2.44-2.01-2.65-3.31.57-6.49 8.45-9.15 9.37-15.49 1.39-.5 3-.69 4.01-1.88 4.04-3.96 8.03-7.99 12.49-11.47 1.22-1.11 2.81-1.5 4.41-1.62-4.07 5.81-9.81 10.19-14.44 15.54 4.65 1.72 9.24 3.62 13.91 5.31 2.2-6.63 5.18-13.62 3.36-20.72-.62-2.71-3.52-3.31-5.61-4.48Z"/><path fill="#080e12" d="M688 919.54c1.57-.44 3.15.1 3.66 1.78 2.41 4.35 2.94 9.41 4.94 13.94 5.19-2.43 9.07-6.7 13.22-10.5 1.17-1.24 2.93-1.33 4.49-1.72 2.73 4.64-1.15 8.89-4.22 12.04-.63-.69-1.26-1.37-1.87-2.03-3.57 2.27-7.58 4.75-11.98 3.44 1.42 4.47 2.08 9.15 3.76 13.55 1.12 3.04 2.41 6.6.78 9.72-1.88 1.43-3.5-.61-4.78-1.8-2.13-2.05-1.59-5.3-2.22-7.93-1.58-10.22-1.97-20.78-5.78-30.49Z"/><path fill="#080e14" d="M667.08 926.94c3.68-1.8 7.32-4.83 11.69-4.02-.25 1.83.3 4.16-1.35 5.49-3.46 3.08-8.27 3.79-12.52 5.24 1.08 5.56 2.45 11.05 3.32 16.66 5.5-2.32 7.96-8.93 13.88-10.3.7 1.94.92 4.04.26 6.04-3.75 3.75-8.23 6.85-13.2 8.75.7 5.16 1.98 10.23 2.57 15.42 3.62-2.53 6.42-5.96 9.03-9.46 1.21-1.9 3.58-2.15 5.58-2.61.83 2.39 1.77 5.78-.73 7.55-3.48 2.83-6.95 5.84-11.07 7.7-2.06.34-4.15.11-6.21.14-1.38-1.68-3.31-3.25-3.26-5.62-.53-12.31-1.12-24.74-3.84-36.78 1.19-2.24 3.83-2.94 5.85-4.2Z"/><path fill="#0b0f15" d="M350 929.81c4.74-.72 9.02 1.88 13.57 2.69 6.05 1.73 12.39 2.13 18.38 4.09-.5 1.76-.73 3.9-2.42 4.99-2.96.45-5.77-.79-8.59-1.48-5.32 11.02-12.05 21.29-17.67 32.15-1.7 2.84-2.95 6.51-6.2 7.94-3.47-1.35-3.47-5.92-1.37-8.45 7.52-10.78 15.1-21.52 22.31-32.51-5.11-1.92-10.28-3.72-15.28-5.91-1.54-.53-2.35-2.03-2.73-3.51Z"/><path fill="#091016" d="M632.38 940.35c5.73-2.48 10.65-6.74 16.87-8.03.13 1.87 1 4.05-.25 5.75-1.32 1.97-3.78 2.6-5.76 3.7 1.24 10.37 1.49 20.83 2.14 31.27.12 3.9.46 7.85-.31 11.73-3.3-.06-7.03-2.24-7.42-5.74.65-11.82 2.35-23.65 1.4-35.51-3.72 1.1-7.38 2.46-11.19 3.21-1.52.29-2.87-.55-3.73-1.7 2.1-2.48 5.48-3.17 8.25-4.68Z"/><path fill="#070912" d="M715.6 946.53c1.17-2.12 3.58-2.72 5.82-2.18-.17 2.23.5 5.01-1.28 6.75-3.6 3.79-7.4 7.71-12.38 9.63-1.53.49-3.01-.5-4.44-.86-.13-1.27-.25-2.53-.35-3.78.92.68 1.84 1.38 2.77 2.08 4.16-3.07 7.25-7.23 9.86-11.64Z"/><path fill="#080b14" d="M433.8 953.01c.13-2.96-.23-6.04.97-8.83.4.28 1.21.83 1.61 1.11 1.38 12.68.38 25.47 1.52 38.18 7.72-10.57 14.84-21.57 21.99-32.53 1.04-1.53 2.28-3.26 4.36-2.17.08 3.88-2.24 7.23-3.88 10.59-6.33 11.63-13.1 23-19.52 34.57-1.26 1.82-2.14 4.83-4.85 4.65-3.44-.11-4.25-4.06-3.69-6.78-.44-12.95 1.39-25.84 1.49-38.79Z"/><path fill="#061115" d="M608.53 950.24c.31-3.06 3.47-4.52 6.25-4.03.59 2.17 1.26 4.44.83 6.73-1.67 9.92-3.59 19.81-6.28 29.51-.97 2.99-2.05 6.31-4.76 8.19-2.52 1.31-5.47-.06-7.11-2.11-7.06-7.88-7.94-19.02-13.1-27.99-.37-.1-1.13-.3-1.5-.4-1.69 10.64-5.23 20.88-7.09 31.49-.28 2.35-1.22 4.53-2.59 6.46-1.4-1.71-4.27-3.28-3.2-5.89 3.56-12.2 7.09-24.42 10.96-36.52 2.64.34 5.15 1.5 6.67 3.79 5.48 7.54 6.93 17.43 13.47 24.29 4.3-10.69 5.34-22.29 7.45-33.52Z"/><path fill="#090d14" d="M482.37 951.55c2.98-.93 5.99.6 8.9 1.19 3.32.69 6.41 2.8 7.72 6.02 3.31 8.24 1.46 17.45-1.81 25.39-3.11 6.59-8.56 13.05-16.13 14.23-7.96.96-15.06-6.54-14.38-14.35.38-11.49 7.07-21.24 12.3-31.03 1.05-.66 2.21-1.11 3.4-1.45m-11.17 31.47c-.5 3.84 2.05 8.14 6.01 8.86 3.18 1.06 6.21-1.12 8.38-3.23 7.07-6.66 10.15-17.38 7.44-26.73-4.33-1.44-9.33-.37-13.12-3.29-4.54 7.39-8.03 15.67-8.71 24.39Z"/><path fill="#070f13" d="M560.5 957.22c1.85-.83 3.77-2.57 5.91-1.67.83 1.2 1.38 2.68 1.05 4.17-1.64 10.54-3.97 21.02-7.81 31-1.82 4.44-4.56 9.27-9.62 10.45-6.87 1.91-13.42-4.07-14.94-10.44-1.23-6.58-.62-13.33.57-19.87.68-3.21.69-7 3.54-9.2 1.26 4.11-.54 8.3-.64 12.47-.24 6.04-1.47 12.79 2.2 18.12 1.46 2.56 4.69 4.04 7.54 3.06 3.87-2.47 5.59-7.01 6.92-11.19 2.73-8.74 4.5-17.78 5.28-26.9Z"/><path fill="#080f13" d="M510.1 963.22c.5-2.54 1.13-6.5 4.69-5.58.44 12-4.62 23.35-5.13 35.28l.72 2.84c5.38.97 10.27-2.27 15.52-2.05 2.03 2.44 1.16 7.52-2.35 8.02-3.13.89-6.33 1.63-9.58 1.89-4.37.2-8.33-2.87-9.88-6.85-1.58-2.95-.26-6.3.12-9.36 1.22-8.24 4.45-16 5.89-24.19Z"/><path fill="#313231" opacity=".45" d="M732.89 977.39c.8-1.73 2.59-2.64 4.46-2.38a5.152 5.152 0 0 1-4.46 2.38Z"/><path fill="#353535" opacity=".61" d="M295.76 977.91c1.84-.33 3.64.52 4.53 2.2-1.82.13-3.52-.7-4.53-2.2Z"/><path fill="#2d2e30" opacity=".56" d="M726.67 980.08c.89-1.67 2.69-2.53 4.55-2.25-1 1.54-2.74 2.35-4.55 2.25Z"/><path fill="#2e2d2f" opacity=".68" d="M662.91 1004.33c5.99-3.32 12.64-5.02 19.33-6.29-6.27 2.59-12.73 4.7-19.33 6.29Z"/><path fill="#353637" opacity=".53" d="M353.91 1001c1.35-.55 2.4-.19 3.14 1.05-1.32.45-2.37.1-3.14-1.05Z"/><path fill="#3a3c3d" opacity=".53" d="M357.85 1001.92c.54.26 1.62.76 2.16 1.01-.54-.25-1.62-.75-2.16-1.01Z"/><path fill="#333434" opacity=".44" d="M370.58 1006.17c2.34-.21 4.67.39 6.54 1.87-2.4.62-4.81-.14-6.54-1.87Z"/><path fill="#353638" opacity=".62" d="M646.71 1009.03c1.64-1.92 4.13-2.59 6.55-1.9-1.94 1.31-4.21 2-6.55 1.9Z"/><path fill="#393b3c" opacity=".48" d="M377.8 1008Z"/><path fill="#343637" opacity=".44" d="M384.91 1010.01c1.32-.54 2.38-.22 3.19.97-1.33.52-2.39.19-3.19-.97Z"/><path fill="#37373b" opacity=".64" d="M638.91 1011.13c.73-1.26 1.79-1.63 3.17-1.11-.78 1.14-1.84 1.51-3.17 1.11Z"/><path fill="#3c3c3e" opacity=".53" d="M635.9 1012.07c.54-.26 1.63-.77 2.17-1.03-.54.26-1.63.77-2.17 1.03Z"/><path fill="#2e3032" opacity=".7" d="M392.76 1012c2.55.54 5.1 1.13 7.64 1.76-2.56-.57-5.1-1.16-7.64-1.76Z"/><path fill="#3a3a3b" opacity=".6" d="M631.14 1012.97c.69-1.18 1.68-1.59 2.97-1.22-.52 1.31-1.51 1.72-2.97 1.22Z"/><path fill="#383737" opacity=".62" d="M622.73 1014.84c2.51-.61 5.03-1.19 7.57-1.68-2.53.55-5.05 1.13-7.57 1.68Z"/><path fill="#333535" opacity=".57" d="M401.91 1014.1c2.5.54 5.01 1.11 7.52 1.66-2.52-.51-5.03-1.06-7.52-1.66Z"/><path fill="#373939" opacity=".49" d="M410.96 1016.08c1.49-.66 3.21-.33 4.27.97-1.52.54-3.15.15-4.27-.97Z"/><path fill="#353435" opacity=".49" d="M612.78 1016.97c1.11-1.21 2.77-1.57 4.31-1.03-1.09 1.25-2.79 1.61-4.31 1.03Z"/><path fill="#383939" opacity=".55" d="M417.12 1016.8c1.37-.38 2.27.09 2.7 1.39-1.4.38-2.3-.08-2.7-1.39Z"/><path fill="#383838" opacity=".62" d="M606.95 1018.13c.75-1.6 2.75-1.42 4.17-1.02-1.15.91-2.71 1.73-4.17 1.02Z"/><path fill="#393b3b" opacity=".46" d="M422.15 1017.82c1.39-.41 2.31.05 2.74 1.39-1.39.33-2.3-.13-2.74-1.39Z"/><path fill="#383839" opacity=".51" d="M601.96 1018.96c1.09-.99 2.66-1.86 4.13-1.09-.74 1.57-2.73 1.39-4.13 1.09Z"/><path fill="#373836" opacity=".54" d="M426.74 1018.99c1.87-.62 3.88-.26 5.44.96-1.88.56-3.91.29-5.44-.96Z"/><path fill="#363637" opacity=".47" d="M596.81 1019.91c1.16-1.19 2.84-1.5 4.39-.94-1.15 1.2-2.86 1.54-4.39.94Z"/><path fill="#393a39" opacity=".56" d="M433.75 1020.14c1.51-.7 3.23-.41 4.43.76-1.52.6-3.22.34-4.43-.76Z"/><path fill="#39393b" opacity=".6" d="M588.85 1020.95a5.25 5.25 0 0 1 5.39-.83c-1.57 1.15-3.56 1.37-5.39.83Z"/><path fill="#3b3939" opacity=".49" d="M439.76 1021.12c1.86-.69 3.93-.43 5.5.82-1.88.56-3.9.31-5.5-.82Z"/><path fill="#393839" opacity=".47" d="M582.73 1021.87c1.58-1.19 3.63-1.43 5.48-.72-1.61 1.12-3.64 1.36-5.48.72Z"/><path fill="#383637" opacity=".49" d="M446.74 1022.11c2.2-.72 4.57-.48 6.5.85-2.21.53-4.52.29-6.5-.85Z"/><path fill="#383739" opacity=".51" d="M574.97 1022.96c1.85-1.32 4.16-1.55 6.3-.8-1.91 1.17-4.17 1.4-6.3.8Z"/><path fill="#393a3a" opacity=".58" d="M455.73 1023.19c2.19-.77 4.58-.54 6.54.75-2.22.54-4.54.36-6.54-.75Z"/><path fill="#373738" opacity=".5" d="M564.85 1023.99c2.85-.38 5.71-.67 8.59-.88-2.87.32-5.73.61-8.59.88Z"/><path fill="#373737" opacity=".46" d="M464.74 1024.19c2.47-.72 5.08-.59 7.38.64-2.48.71-5.09.56-7.38-.64Z"/><path fill="#3a3a3b" opacity=".57" d="M553.74 1024.96c3.13-.44 6.29-.66 9.45-.79-3.13.44-6.3.64-9.45.79Z"/><path fill="#373738" opacity=".55" d="M476.52 1025.19c4.29-.16 8.6-.06 12.84.68-4.29.15-8.59-.02-12.84-.68Z"/><path fill="#383739" opacity=".53" d="M538.58 1026.03c4.17-.95 8.45-1.02 12.71-.85-4.21.66-8.47.8-12.71.85Z"/><path fill="#363637" opacity=".41" d="M493.75 1026.51c7.38-1.03 14.83-.15 22.25-.33 6.87.03 13.77-.68 20.62.14l1.23.68h-42.87l-1.23-.49Z"/></svg>